<svg width="56" height="56" viewBox="0 0 56 56" fill="none" xmlns="http://www.w3.org/2000/svg">
<circle cx="28" cy="28" r="27.5" fill="url(#paint0_linear_636_27053)" stroke="url(#paint1_linear_636_27053)"/>
<path d="M33.9121 15.5833H23.088C18.3863 15.5833 15.5834 18.3862 15.5834 23.0878V33.912C15.5834 38.6137 18.3863 41.4166 23.088 41.4166H33.9121C38.6138 41.4166 41.4167 38.6137 41.4167 33.912V23.0878C41.4167 18.3862 38.6138 15.5833 33.9121 15.5833ZM25.878 32.2458L22.9717 35.152C22.778 35.3458 22.5325 35.4362 22.2871 35.4362C22.0417 35.4362 21.7834 35.3458 21.6025 35.152L20.6338 34.1833C20.2463 33.8087 20.2463 33.1887 20.6338 32.8141C21.0084 32.4395 21.6155 32.4395 22.003 32.8141L22.2871 33.0983L24.5088 30.8766C24.8834 30.502 25.4905 30.502 25.878 30.8766C26.2525 31.2512 26.2525 31.8712 25.878 32.2458ZM25.878 23.2041L22.9717 26.1103C22.778 26.3041 22.5325 26.3945 22.2871 26.3945C22.0417 26.3945 21.7834 26.3041 21.6025 26.1103L20.6338 25.1416C20.2463 24.767 20.2463 24.147 20.6338 23.7724C21.0084 23.3978 21.6155 23.3978 22.003 23.7724L22.2871 24.0566L24.5088 21.8349C24.8834 21.4603 25.4905 21.4603 25.878 21.8349C26.2525 22.2095 26.2525 22.8295 25.878 23.2041ZM35.6817 34.4674H28.9005C28.3709 34.4674 27.9317 34.0283 27.9317 33.4987C27.9317 32.9691 28.3709 32.5299 28.9005 32.5299H35.6817C36.2242 32.5299 36.6505 32.9691 36.6505 33.4987C36.6505 34.0283 36.2242 34.4674 35.6817 34.4674ZM35.6817 25.4258H28.9005C28.3709 25.4258 27.9317 24.9866 27.9317 24.457C27.9317 23.9274 28.3709 23.4883 28.9005 23.4883H35.6817C36.2242 23.4883 36.6505 23.9274 36.6505 24.457C36.6505 24.9866 36.2242 25.4258 35.6817 25.4258Z" fill="#FF0083"/>
<defs>
<linearGradient id="paint0_linear_636_27053" x1="28" y1="0" x2="28" y2="56" gradientUnits="userSpaceOnUse">
<stop stop-color="#232631"/>
<stop offset="1" stop-color="#1D202B" stop-opacity="0.4"/>
</linearGradient>
<linearGradient id="paint1_linear_636_27053" x1="28" y1="0" x2="28" y2="56" gradientUnits="userSpaceOnUse">
<stop stop-color="#343742"/>
<stop offset="1" stop-color="#343742" stop-opacity="0"/>
</linearGradient>
</defs>
</svg>
