<svg width="20" height="20" viewBox="0 0 20 20" fill="none" xmlns="http://www.w3.org/2000/svg">
<g clip-path="url(#clip0_260_1879)">
<path d="M1.66669 12.0833H9.37502V20H3.12502C2.32502 20 1.66669 19.3417 1.66669 18.5417V12.0833Z" fill="#81828A"/>
<path d="M18.3333 12.0833V18.5417C18.3333 19.3417 17.675 20 16.875 20H10.625V12.0833H18.3333Z" fill="#81828A"/>
<path d="M0 7.29168V9.37501C0 10.175 0.658333 10.8333 1.45833 10.8333H1.66667H9.375V9.58334V5.83334H1.45833C0.658333 5.83334 0 6.49168 0 7.29168Z" fill="#81828A"/>
<path d="M18.5417 5.83334H10.625V9.58334V10.8333H18.3333H18.5417C19.3417 10.8333 20 10.175 20 9.37501V7.29168C20 6.49168 19.3417 5.83334 18.5417 5.83334Z" fill="#81828A"/>
<path d="M10 6.70333C9.81835 6.70333 9.64502 6.62416 9.52752 6.48666C9.40835 6.34916 9.35585 6.16666 9.38169 5.98666C9.69002 3.90333 11.3175 -0.0375061 15.2742 -0.0375061C17.5325 -0.0366728 18.3334 1.18333 18.3334 2.22833C18.3334 4.08583 15.7475 6.70333 10 6.70333ZM15.2742 1.21333C12.2892 1.21333 11.1559 4.05083 10.78 5.43499C13.135 5.32499 14.62 4.72916 15.475 4.22166C16.6609 3.51749 17.0834 2.72999 17.0834 2.22749C17.0834 1.47916 16.1492 1.21333 15.2742 1.21333Z" fill="#81828A"/>
<path d="M10.0008 6.70332C4.25331 6.70332 1.66748 4.08582 1.66748 2.22832C1.66748 1.18332 2.46915 -0.0366821 4.72748 -0.0366821C8.68331 -0.0366821 10.3108 3.90415 10.6191 5.98748C10.645 6.16748 10.5925 6.34998 10.4733 6.48748C10.3558 6.62415 10.1825 6.70332 10.0008 6.70332ZM4.72748 1.21332C3.85248 1.21332 2.91748 1.47998 2.91748 2.22832C2.91748 3.29248 4.77831 5.23165 9.21998 5.43582C8.84498 4.05082 7.71165 1.21332 4.72748 1.21332Z" fill="#81828A"/>
</g>
<defs>
<clipPath id="clip0_260_1879">
<rect width="20" height="20" fill="white"/>
</clipPath>
</defs>
</svg>
