<svg width="48" height="48" viewBox="0 0 48 48" fill="none" xmlns="http://www.w3.org/2000/svg">
<g filter="url(#filter0_d_56_2764)">
<rect x="4" y="2" width="40" height="40" rx="20" fill="url(#paint0_linear_56_2764)" fill-opacity="0.2" shape-rendering="crispEdges"/>
<g clip-path="url(#clip0_56_2764)">
<path d="M29.665 16.1562C29.665 15.4962 29.555 14.8638 29.3488 14.2725C30.7582 15.0219 31.7275 16.5138 31.7275 18.2188C31.7275 20.68 29.72 22.6875 27.2588 22.6875C26.3375 22.6875 25.4713 22.4056 24.7632 21.9244C25.4438 21.8144 26.09 21.5875 26.6675 21.2575C28.4207 20.2744 29.6169 18.4181 29.665 16.28V16.1562ZM23.4913 20.6112C23.6013 20.6181 23.7113 20.625 23.8213 20.625C24.2682 20.625 24.7013 20.5562 25.1069 20.4394C26.9425 19.8825 28.29 18.1706 28.29 16.1562C28.29 15.8538 28.2625 15.565 28.2007 15.2762C28.0907 14.7262 27.8844 14.2175 27.5888 13.7638C26.7982 12.5194 25.4025 11.6875 23.8213 11.6875C21.36 11.6875 19.3525 13.695 19.3525 16.1562C19.3525 18.5075 21.1813 20.4394 23.4913 20.6112ZM17.8744 22.7769C17.6888 22.715 17.4894 22.6875 17.29 22.6875H15.915C14.7807 22.6875 13.8525 23.6156 13.8525 24.75V30.2362C13.8525 31.3706 14.7807 32.2987 15.915 32.2987H17.29C17.4825 32.2987 17.675 32.2712 17.8538 32.2163C17.0907 31.5837 16.6025 30.6281 16.6025 29.5625V25.4375C16.6025 24.365 17.0975 23.4025 17.8744 22.7769ZM33.9165 24.1773C33.832 24.0597 33.7371 23.9491 33.6257 23.8528C33.4882 23.7325 33.3315 23.6294 33.1575 23.5469C32.855 23.4094 32.525 23.3612 32.1992 23.3922C32.085 23.4032 31.9744 23.4355 31.863 23.4651C31.6554 23.5201 31.4525 23.5957 31.2669 23.7119L28.5912 25.4739L27.6025 26.125L26.233 27.038C25.7814 27.3391 25.2506 27.5 24.7075 27.5H22.79C22.4119 27.5 22.1025 27.1906 22.1025 26.8125C22.1025 26.4344 22.4119 26.125 22.79 26.125H24.8525C25.6088 26.125 26.2275 25.5063 26.2275 24.75C26.2275 24.0054 25.6267 23.397 24.8862 23.3784C24.8745 23.3784 24.8642 23.375 24.8525 23.375H20.04C20.0235 23.375 20.0084 23.3805 19.9919 23.3812C19.8462 23.3846 19.7045 23.4039 19.5677 23.4355C19.5052 23.4499 19.4467 23.4719 19.3869 23.4919C19.301 23.5208 19.2178 23.5531 19.1374 23.5929C19.103 23.6094 19.0631 23.6177 19.0301 23.6362C18.9861 23.6617 18.9449 23.6919 18.9029 23.7201C18.894 23.7263 18.885 23.7318 18.8768 23.7373C18.7737 23.8088 18.676 23.8872 18.588 23.9759C18.5805 23.9834 18.5743 23.9917 18.5667 23.9999C18.4925 24.0763 18.4258 24.1588 18.3639 24.2454C18.3454 24.2715 18.3275 24.2969 18.3103 24.3237C18.2477 24.4207 18.1907 24.5217 18.1446 24.629C18.1398 24.6407 18.1364 24.6531 18.1315 24.6647C18.091 24.7644 18.06 24.8682 18.0353 24.9748C18.0284 25.0057 18.0215 25.0367 18.016 25.0676C17.994 25.1879 17.9789 25.3103 17.9789 25.4368V29.5632V29.5659C17.9789 29.6917 17.994 29.8134 18.016 29.9331C18.0215 29.964 18.0277 29.9943 18.0346 30.0245C18.0607 30.14 18.0937 30.2528 18.1391 30.36C18.1398 30.3621 18.1405 30.3648 18.1412 30.3669C18.1886 30.4796 18.2484 30.5848 18.3144 30.6866C18.3275 30.7072 18.3412 30.7264 18.3557 30.7464C18.4224 30.8412 18.4945 30.9306 18.5757 31.0124C18.5791 31.0159 18.5819 31.0193 18.5853 31.0228C18.6685 31.1053 18.7599 31.1788 18.8562 31.2462C18.8837 31.2654 18.9119 31.2826 18.94 31.3005C18.9682 31.3184 18.995 31.339 19.0239 31.3555C19.0459 31.3679 19.072 31.3727 19.0947 31.3844C19.1985 31.4387 19.3072 31.4827 19.4206 31.5191C19.4653 31.5329 19.5072 31.5494 19.5526 31.5604C19.71 31.5989 19.8723 31.625 20.0421 31.625H27.0972C27.311 31.625 27.5194 31.5858 27.7201 31.5226C27.883 31.471 28.0391 31.4016 28.1849 31.3108C28.2722 31.2565 28.3581 31.1987 28.4379 31.1314L32.237 27.8857L33.7928 26.5574L33.8959 26.4474C34.1228 26.1449 34.2809 25.6706 34.2809 25.2924C34.2809 24.8779 34.1489 24.4949 33.9193 24.1766L33.9165 24.1773Z" fill="#FF8936"/>
</g>
<rect x="4.5" y="2.5" width="39" height="39" rx="19.5" stroke="url(#paint1_linear_56_2764)" shape-rendering="crispEdges"/>
</g>
<defs>
<filter id="filter0_d_56_2764" x="0" y="0" width="48" height="48" filterUnits="userSpaceOnUse" color-interpolation-filters="sRGB">
<feFlood flood-opacity="0" result="BackgroundImageFix"/>
<feColorMatrix in="SourceAlpha" type="matrix" values="0 0 0 0 0 0 0 0 0 0 0 0 0 0 0 0 0 0 127 0" result="hardAlpha"/>
<feOffset dy="2"/>
<feGaussianBlur stdDeviation="2"/>
<feComposite in2="hardAlpha" operator="out"/>
<feColorMatrix type="matrix" values="0 0 0 0 1 0 0 0 0 0.537255 0 0 0 0 0.211765 0 0 0 1 0"/>
<feBlend mode="normal" in2="BackgroundImageFix" result="effect1_dropShadow_56_2764"/>
<feBlend mode="normal" in="SourceGraphic" in2="effect1_dropShadow_56_2764" result="shape"/>
</filter>
<linearGradient id="paint0_linear_56_2764" x1="24" y1="2" x2="24" y2="42" gradientUnits="userSpaceOnUse">
<stop stop-color="#282630"/>
<stop offset="1" stop-color="#0F0E13"/>
</linearGradient>
<linearGradient id="paint1_linear_56_2764" x1="24" y1="2" x2="24" y2="42" gradientUnits="userSpaceOnUse">
<stop stop-color="#393D45"/>
<stop offset="1" stop-color="#393D45" stop-opacity="0"/>
</linearGradient>
<clipPath id="clip0_56_2764">
<rect width="22" height="22" fill="white" transform="translate(13.165 11)"/>
</clipPath>
</defs>
</svg>
