<svg width="18" height="18" viewBox="0 0 18 18" fill="none" xmlns="http://www.w3.org/2000/svg">
<path d="M15.7 4.68333L10.9 1.325C9.59166 0.408334 7.58332 0.458334 6.32499 1.43333L2.14999 4.69167C1.31666 5.34167 0.658325 6.675 0.658325 7.725V13.475C0.658325 15.6 2.38332 17.3333 4.50832 17.3333H13.4917C15.6167 17.3333 17.3417 15.6083 17.3417 13.4833V7.83334C17.3417 6.70834 16.6167 5.325 15.7 4.68333ZM9.62499 14C9.62499 14.3417 9.34166 14.625 8.99999 14.625C8.65832 14.625 8.37499 14.3417 8.37499 14V11.5C8.37499 11.1583 8.65832 10.875 8.99999 10.875C9.34166 10.875 9.62499 11.1583 9.62499 11.5V14Z" fill="#81828A"/>
</svg>
