<svg width="18" height="18" viewBox="0 0 18 18" fill="none" xmlns="http://www.w3.org/2000/svg">
<path d="M12.4916 0.666666H5.50829C2.47496 0.666666 0.666626 2.475 0.666626 5.50833V12.4917C0.666626 15.525 2.47496 17.3333 5.50829 17.3333H12.4916C15.525 17.3333 17.3333 15.525 17.3333 12.4917V5.50833C17.3333 2.475 15.525 0.666666 12.4916 0.666666ZM7.30829 11.4167L5.43329 13.2917C5.30829 13.4167 5.14996 13.475 4.99163 13.475C4.83329 13.475 4.66663 13.4167 4.54996 13.2917L3.92496 12.6667C3.67496 12.425 3.67496 12.025 3.92496 11.7833C4.16663 11.5417 4.55829 11.5417 4.80829 11.7833L4.99163 11.9667L6.42496 10.5333C6.66663 10.2917 7.05829 10.2917 7.30829 10.5333C7.54996 10.775 7.54996 11.175 7.30829 11.4167ZM7.30829 5.58333L5.43329 7.45833C5.30829 7.58333 5.14996 7.64167 4.99163 7.64167C4.83329 7.64167 4.66663 7.58333 4.54996 7.45833L3.92496 6.83333C3.67496 6.59167 3.67496 6.19167 3.92496 5.95C4.16663 5.70833 4.55829 5.70833 4.80829 5.95L4.99163 6.13333L6.42496 4.7C6.66663 4.45833 7.05829 4.45833 7.30829 4.7C7.54996 4.94167 7.54996 5.34167 7.30829 5.58333ZM13.6333 12.85H9.25829C8.91663 12.85 8.63329 12.5667 8.63329 12.225C8.63329 11.8833 8.91663 11.6 9.25829 11.6H13.6333C13.9833 11.6 14.2583 11.8833 14.2583 12.225C14.2583 12.5667 13.9833 12.85 13.6333 12.85ZM13.6333 7.01667H9.25829C8.91663 7.01667 8.63329 6.73333 8.63329 6.39167C8.63329 6.05 8.91663 5.76667 9.25829 5.76667H13.6333C13.9833 5.76667 14.2583 6.05 14.2583 6.39167C14.2583 6.73333 13.9833 7.01667 13.6333 7.01667Z" fill="#81828A"/>
</svg>
