<svg width="24" height="24" viewBox="0 0 24 24" fill="none" xmlns="http://www.w3.org/2000/svg">
<path fill-rule="evenodd" clip-rule="evenodd" d="M6.51 12C6.51 11.6022 6.35196 11.2206 6.07066 10.9393C5.78936 10.658 5.40782 10.5 5.01 10.5H5C4.60218 10.5 4.22064 10.658 3.93934 10.9393C3.65804 11.2206 3.5 11.6022 3.5 12V12.01C3.5 12.4078 3.65804 12.7894 3.93934 13.0707C4.22064 13.352 4.60218 13.51 5 13.51H5.01C5.40782 13.51 5.78936 13.352 6.07066 13.0707C6.35196 12.7894 6.51 12.4078 6.51 12.01V12ZM12.01 10.5C12.4078 10.5 12.7894 10.658 13.0707 10.9393C13.352 11.2206 13.51 11.6022 13.51 12V12.01C13.51 12.4078 13.352 12.7894 13.0707 13.0707C12.7894 13.352 12.4078 13.51 12.01 13.51H12C11.6022 13.51 11.2206 13.352 10.9393 13.0707C10.658 12.7894 10.5 12.4078 10.5 12.01V12C10.5 11.6022 10.658 11.2206 10.9393 10.9393C11.2206 10.658 11.6022 10.5 12 10.5H12.01ZM19.01 10.5C19.4078 10.5 19.7894 10.658 20.0707 10.9393C20.352 11.2206 20.51 11.6022 20.51 12V12.01C20.51 12.4078 20.352 12.7894 20.0707 13.0707C19.7894 13.352 19.4078 13.51 19.01 13.51H19C18.6022 13.51 18.2206 13.352 17.9393 13.0707C17.658 12.7894 17.5 12.4078 17.5 12.01V12C17.5 11.6022 17.658 11.2206 17.9393 10.9393C18.2206 10.658 18.6022 10.5 19 10.5H19.01Z" fill="white"/>
</svg>
