<svg width="18" height="18" viewBox="0 0 18 18" fill="none" xmlns="http://www.w3.org/2000/svg">
<g clip-path="url(#clip0_172_31977)">
<path d="M9 0C4.02574 0 0 4.02539 0 9C0 13.9743 4.02539 18 9 18C13.9743 18 18 13.9746 18 9C18 4.02574 13.9746 0 9 0ZM6.85849 12.7965C6.85849 12.7965 3.74991 9.68667 3.52645 9.46364C3.02938 8.96657 3.02938 8.15769 3.52645 7.66104C4.02479 7.1627 4.83071 7.1627 5.32905 7.66104L7.34154 9.67352C7.59178 9.92377 7.99791 9.92204 8.24604 9.67054L12.6648 5.18804C13.1615 4.68418 13.9729 4.68077 14.4738 5.18168C14.967 5.67492 14.97 6.48042 14.4802 6.9775C9.68157 11.8461 8.77029 12.7961 8.77029 12.7961C8.24347 13.3229 7.38573 13.3233 6.85849 12.7965Z" fill="#FF0083"/>
</g>
<defs>
<clipPath id="clip0_172_31977">
<rect width="18" height="18" fill="white"/>
</clipPath>
</defs>
</svg>
