<svg width="26" height="27" viewBox="0 0 26 27" fill="none" xmlns="http://www.w3.org/2000/svg">
<g clip-path="url(#clip0_163_18337)">
<path d="M13 0.5C10.4288 0.5 7.91543 1.26244 5.77759 2.6909C3.63975 4.11935 1.97351 6.14968 0.989572 8.52512C0.00563266 10.9006 -0.251811 13.5144 0.249797 16.0362C0.751405 18.5579 1.98953 20.8743 3.80762 22.6924C5.6257 24.5105 7.94208 25.7486 10.4638 26.2502C12.9856 26.7518 15.5995 26.4944 17.9749 25.5104C20.3503 24.5265 22.3807 22.8603 23.8091 20.7224C25.2376 18.5846 26 16.0712 26 13.5C26 10.0522 24.6304 6.74559 22.1924 4.30761C19.7544 1.86964 16.4478 0.5 13 0.5ZM17.7587 8.82855C18.0887 8.82821 18.4114 8.92578 18.6859 9.10891C18.9604 9.29204 19.1744 9.55249 19.3009 9.8573C19.4273 10.1621 19.4605 10.4976 19.3962 10.8213C19.3319 11.1449 19.173 11.4423 18.9397 11.6756C18.7063 11.9089 18.409 12.0678 18.0853 12.1321C17.7617 12.1964 17.4262 12.1632 17.1214 12.0368C16.8166 11.9104 16.5561 11.6963 16.373 11.4218C16.1899 11.1473 16.0923 10.8246 16.0926 10.4946C16.0926 10.0527 16.2682 9.62897 16.5806 9.31653C16.8931 9.00408 17.3168 8.82855 17.7587 8.82855ZM8.24132 8.82855C8.57132 8.82821 8.894 8.92578 9.16852 9.10891C9.44305 9.29204 9.65708 9.55249 9.78352 9.8573C9.90996 10.1621 9.94313 10.4976 9.87883 10.8213C9.81454 11.1449 9.65566 11.4423 9.42232 11.6756C9.18897 11.9089 8.89165 12.0678 8.56798 12.1321C8.2443 12.1964 7.90883 12.1632 7.60402 12.0368C7.2992 11.9104 7.03875 11.6963 6.85562 11.4218C6.6725 11.1473 6.57493 10.8246 6.57527 10.4946C6.57572 10.0529 6.7514 9.62938 7.06374 9.31703C7.37609 9.00468 7.7996 8.82901 8.24132 8.82855ZM20.3211 16.815C19.7754 19.9299 16.705 22.0903 13 22.0903C9.29501 22.0903 6.22632 19.9299 5.68066 16.815C5.6748 16.7834 5.67137 16.7514 5.6704 16.7192C5.6704 16.2693 6.21777 15.9786 6.69672 16.1428C8.54409 16.7808 10.6993 17.1058 13.0017 17.1058C15.3041 17.1058 17.4593 16.7808 19.3067 16.1428C19.784 15.9717 20.333 16.2676 20.333 16.7192C20.3315 16.7514 20.3275 16.7834 20.3211 16.815Z" fill="#81828A"/>
</g>
<defs>
<clipPath id="clip0_163_18337">
<rect width="26" height="26" fill="white" transform="translate(0 0.5)"/>
</clipPath>
</defs>
</svg>
