<svg width="26" height="27" viewBox="0 0 26 27" fill="none" xmlns="http://www.w3.org/2000/svg">
<g clip-path="url(#clip0_163_18333)">
<path d="M6.10609 11.9682C5.75399 11.6161 5.47468 11.198 5.28412 10.738C5.09356 10.2779 4.99548 9.78487 4.99548 9.28692C4.99548 8.78896 5.09356 8.29589 5.28412 7.83583C5.47468 7.37579 5.75399 6.95777 6.10609 6.60567C6.4582 6.25356 6.87621 5.97425 7.33626 5.78369C7.79631 5.59314 8.28939 5.49506 8.78734 5.49506C9.2853 5.49506 9.77838 5.59314 10.2384 5.78369C10.6985 5.97425 11.1165 6.25356 11.4686 6.60567L19.8948 15.0318C20.6059 15.7429 21.0054 16.7074 21.0054 17.7131C21.0054 18.7187 20.6059 19.6832 19.8948 20.3943C19.5427 20.7464 19.1246 21.0257 18.6646 21.2163C18.2045 21.4069 17.7115 21.5049 17.2135 21.5049C16.2078 21.5049 15.2434 21.1054 14.5323 20.3943L10.1274 15.9895C10.0017 15.8637 9.90191 15.7144 9.83384 15.5501C9.76578 15.3858 9.73075 15.2097 9.73075 15.0318C9.73075 14.854 9.76578 14.6779 9.83384 14.5135C9.90191 14.3492 10.0017 14.1999 10.1274 14.0742C10.2532 13.9484 10.4025 13.8486 10.5668 13.7806C10.7311 13.7125 10.9072 13.6775 11.0851 13.6775C11.263 13.6775 11.4391 13.7125 11.6034 13.7806C11.7677 13.8486 11.917 13.9484 12.0428 14.0742L16.0641 18.0966C16.2674 18.2999 16.5431 18.4141 16.8306 18.4141C17.118 18.4141 17.3937 18.2999 17.597 18.0966C17.8003 17.8933 17.9145 17.6176 17.9145 17.3301C17.9145 17.0426 17.8003 16.7669 17.597 16.5637L13.5746 12.5423C12.9123 11.8921 12.02 11.5297 11.0918 11.5339C10.1636 11.5382 9.27469 11.9088 8.61837 12.5651C7.96205 13.2214 7.59144 14.1104 7.58718 15.0385C7.58291 15.9667 7.94533 16.859 8.59559 17.5213L13.0004 21.9262C13.5524 22.4855 14.2095 22.9302 14.934 23.2346C15.6584 23.5389 16.436 23.697 17.2218 23.6996C18.0076 23.7022 18.7862 23.5494 19.5127 23.2499C20.2392 22.9504 20.8993 22.5102 21.4549 21.9545C22.0106 21.3988 22.4508 20.7388 22.7503 20.0122C23.0498 19.2857 23.2027 18.5072 23.2 17.7214C23.1974 16.9355 23.0394 16.158 22.735 15.4335C22.4306 14.709 21.986 14.0519 21.4266 13.5L13.0004 5.07383C12.4485 4.51446 11.7914 4.0698 11.0669 3.76543C10.3424 3.46107 9.56489 3.30302 8.77908 3.30039C7.99326 3.29775 7.21469 3.45059 6.48818 3.75009C5.76168 4.0496 5.10159 4.48985 4.54594 5.04551C3.99028 5.60117 3.55002 6.26125 3.25052 6.98776C2.95102 7.71426 2.79818 8.49283 2.80081 9.27865C2.80345 10.0645 2.9615 10.842 3.26586 11.5665C3.57022 12.291 4.01489 12.9481 4.57426 13.5L4.95668 13.8824C5.05654 13.986 5.17602 14.0686 5.30815 14.1254C5.44028 14.1823 5.58241 14.2123 5.72626 14.2136C5.8701 14.215 6.01277 14.1877 6.14594 14.1333C6.27912 14.0789 6.40013 13.9986 6.50192 13.8969C6.60371 13.7953 6.68423 13.6744 6.7388 13.5413C6.79336 13.4082 6.82087 13.2656 6.81973 13.1217C6.81858 12.9779 6.7888 12.8357 6.73212 12.7035C6.67543 12.5713 6.59299 12.4517 6.48959 12.3517L6.10609 11.9682Z" fill="#81828A"/>
</g>
<defs>
<clipPath id="clip0_163_18333">
<rect width="26" height="26" fill="white" transform="translate(0 0.5)"/>
</clipPath>
</defs>
</svg>
