<svg width="17" height="17" viewBox="0 0 17 17" fill="none" xmlns="http://www.w3.org/2000/svg">
<path d="M14.8544 0.708252H12.7719C12.1557 0.708252 11.7023 0.963252 11.4969 1.41659C11.3836 1.622 11.334 1.86284 11.334 2.14617V4.22867C11.334 5.12825 11.8723 5.66659 12.7719 5.66659H14.8544C15.1377 5.66659 15.3786 5.617 15.584 5.50367C16.0373 5.29825 16.2923 4.84492 16.2923 4.22867V2.14617C16.2923 1.24659 15.754 0.708252 14.8544 0.708252ZM15.5202 3.492C15.4494 3.56284 15.3432 3.61242 15.2298 3.6195H14.2311V3.98075L14.2382 4.60409C14.2311 4.7245 14.1886 4.82367 14.1036 4.90867C14.0327 4.9795 13.9265 5.02909 13.8132 5.02909C13.5794 5.02909 13.3882 4.83784 13.3882 4.60409V3.61242L12.3965 3.6195C12.1627 3.6195 11.9715 3.42117 11.9715 3.18742C11.9715 2.95367 12.1627 2.76242 12.3965 2.76242L13.0198 2.7695H13.3882V1.77784C13.3882 1.54409 13.5794 1.34575 13.8132 1.34575C14.0469 1.34575 14.2382 1.54409 14.2382 1.77784L14.2311 2.28075V2.76242H15.2298C15.4636 2.76242 15.6548 2.95367 15.6548 3.18742C15.6477 3.30784 15.5982 3.407 15.5202 3.492Z" fill="#FF0083"/>
<path d="M6.37529 7.35238C7.30635 7.35238 8.06112 6.59761 8.06112 5.66655C8.06112 4.73549 7.30635 3.98071 6.37529 3.98071C5.44423 3.98071 4.68945 4.73549 4.68945 5.66655C4.68945 6.59761 5.44423 7.35238 6.37529 7.35238Z" fill="#FF0083"/>
<path d="M14.8531 5.66675H14.5202V8.93216L14.4281 8.85425C13.8756 8.37966 12.9831 8.37966 12.4306 8.85425L9.48393 11.383C8.93143 11.8576 8.03893 11.8576 7.48643 11.383L7.2456 11.1847C6.74268 10.7455 5.94227 10.703 5.3756 11.0855L2.72643 12.8634C2.5706 12.4667 2.47852 12.0063 2.47852 11.468V5.53217C2.47852 3.53466 3.53393 2.47925 5.53143 2.47925H11.3327V2.14633C11.3327 1.863 11.3823 1.62216 11.4956 1.41675H5.53143C2.9531 1.41675 1.41602 2.95383 1.41602 5.53217V11.468C1.41602 12.2401 1.5506 12.913 1.81268 13.4797C2.42185 14.8255 3.72518 15.5834 5.53143 15.5834H11.4673C14.0456 15.5834 15.5827 14.0463 15.5827 11.468V5.50383C15.3773 5.61717 15.1364 5.66675 14.8531 5.66675Z" fill="#FF0083"/>
</svg>
