<svg width="19" height="18" viewBox="0 0 19 18" fill="none" xmlns="http://www.w3.org/2000/svg">
<path d="M9.5 1C4.8165 1 1 4.8165 1 9.5C1 14.1835 4.8165 18 9.5 18C14.1835 18 18 14.1835 18 9.5C18 4.8165 14.1835 1 9.5 1ZM11.0215 12.05C11.268 12.2965 11.268 12.7045 11.0215 12.951C10.894 13.0785 10.7325 13.138 10.571 13.138C10.4095 13.138 10.248 13.0785 10.1205 12.951L7.12 9.9505C6.8735 9.704 6.8735 9.296 7.12 9.0495L10.1205 6.049C10.367 5.8025 10.775 5.8025 11.0215 6.049C11.268 6.2955 11.268 6.7035 11.0215 6.95L8.4715 9.5L11.0215 12.05Z" fill="white"/>
</svg>
