<svg width="75" height="74" viewBox="0 0 75 74" fill="none" xmlns="http://www.w3.org/2000/svg">
<rect x="0.5" width="74" height="74" rx="37" fill="#FF0083" fill-opacity="0.18"/>
<path d="M53.8325 32.0322C53.3215 31.2217 52.7753 30.4641 52.2115 29.7593C51.5596 28.9312 50.3263 28.8608 49.5863 29.6008L44.3006 34.8865C44.6882 36.0493 44.7587 37.3884 44.4063 38.7803C43.7896 41.2646 41.781 43.2731 39.2968 43.8898C37.9048 44.2422 36.5658 44.1717 35.4029 43.7841C35.4029 43.7841 32.8834 46.3036 31.0687 48.1184C30.1877 48.9993 30.4696 50.5498 31.6501 51.0079C33.5353 51.7303 35.491 52.1003 37.4996 52.1003C40.6358 52.1003 43.6839 51.1841 46.4677 49.475C49.3044 47.7131 51.8591 45.1231 53.9206 41.8284C55.5944 39.1679 55.5063 34.6927 53.8325 32.0322Z" fill="#FF0083"/>
<path d="M41.059 33.4409L33.9409 40.559C33.0424 39.6428 32.4609 38.3743 32.4609 37C32.4609 34.2338 34.7162 31.9609 37.5 31.9609C38.8743 31.9609 40.1428 32.5424 41.059 33.4409Z" fill="#FF0083"/>
<path d="M48.5118 25.988L42.539 31.9609C41.2528 30.6571 39.4732 29.8818 37.4999 29.8818C33.5532 29.8818 30.3818 33.0709 30.3818 36.9999C30.3818 38.9732 31.1747 40.7528 32.4609 42.039L26.5056 48.0118H26.488C24.5323 46.4261 22.7351 44.3999 21.2023 42.0037C19.4404 39.2375 19.4404 34.7447 21.2023 31.9785C23.2461 28.7718 25.748 26.2523 28.5318 24.5256C31.3156 22.8342 34.3637 21.9004 37.4999 21.9004C41.429 21.9004 45.2347 23.3452 48.5118 25.988Z" fill="#FF0083"/>
<path d="M42.5388 37.0007C42.5388 39.7669 40.2835 42.0397 37.4997 42.0397C37.394 42.0397 37.3059 42.0397 37.2002 42.0045L42.5035 36.7012C42.5388 36.8069 42.5388 36.895 42.5388 37.0007Z" fill="#FF0083"/>
<path d="M54.7137 19.7861C54.1851 19.2575 53.3218 19.2575 52.7932 19.7861L20.2861 52.3108C19.7575 52.8394 19.7575 53.7028 20.2861 54.2313C20.5504 54.478 20.8851 54.6189 21.2375 54.6189C21.5899 54.6189 21.9246 54.478 22.1889 54.2137L54.7137 21.6889C55.2599 21.1604 55.2599 20.3146 54.7137 19.7861Z" fill="#FF0083"/>
</svg>
