<svg width="50" height="50" viewBox="0 0 50 50" fill="none" xmlns="http://www.w3.org/2000/svg">
<rect width="50" height="50" rx="5" fill="#8147FF"/>
<path d="M37.25 9.25H12.75C10.825 9.25 9.25 10.825 9.25 12.75V37.25C9.25 39.175 10.825 40.75 12.75 40.75H37.25C39.175 40.75 40.75 39.175 40.75 37.25V12.75C40.75 10.825 39.175 9.25 37.25 9.25ZM20.625 24.125C20.625 25.525 19.4 26.75 18 26.75H16.25V30.25H13.625V19.75H18C19.4 19.75 20.625 20.975 20.625 22.375V24.125ZM29.375 27.625C29.375 29.025 28.15 30.25 26.75 30.25H22.375V19.75H26.75C28.15 19.75 29.375 20.975 29.375 22.375V27.625ZM36.375 22.375H33.75V24.125H36.375V26.75H33.75V30.25H31.125V19.75H36.375V22.375ZM25 22.375H26.75V27.625H25V22.375ZM16.25 22.375H18V24.125H16.25V22.375Z" fill="white"/>
</svg>
