<svg width="46" height="46" viewBox="0 0 46 46" fill="none" xmlns="http://www.w3.org/2000/svg">
<rect width="46" height="46" rx="4" fill="#E01E5A"/>
<path d="M35.8258 27.8558C35.1954 26.7549 33.0174 26.409 32.0181 26.2533C31.2305 26.1305 30.4265 26.0939 29.6298 26.0946C29.0044 26.0905 28.388 26.1207 27.7797 26.1546C27.5554 26.1694 27.3334 26.1884 27.1116 26.2072C26.8843 25.9766 26.6645 25.7383 26.4519 25.4947C25.0988 23.9251 24.0063 22.145 23.1161 20.2953C23.3524 19.4016 23.5416 18.4688 23.6557 17.5001C23.8642 15.7321 23.9359 13.7172 23.2599 12.0317C23.0265 11.4499 22.4041 10.7416 21.686 11.0943C20.8605 11.4999 20.6283 12.649 20.561 13.4636C20.5068 14.122 20.5447 14.7821 20.6575 15.4295C20.7724 16.0812 20.9574 16.7001 21.1588 17.3182C21.3467 17.8849 21.5538 18.4471 21.7796 19.0041C21.6364 19.4426 21.4843 19.8734 21.3246 20.2933C20.9522 21.2501 20.5496 22.1591 20.1623 23.0335C19.9582 23.4671 19.7583 23.8915 19.5628 24.3064C18.9441 25.6383 18.2724 26.9458 17.5185 28.2097C15.76 28.8175 14.182 29.5222 12.8715 30.3504C12.1685 30.7955 11.5475 31.2789 11.0303 31.8091C10.542 32.3096 10.0458 32.9592 10.0024 33.6783C9.97798 34.0842 10.142 34.4781 10.4813 34.7189C10.948 35.0606 11.5664 35.0378 12.1078 34.9266C13.8813 34.5621 15.2432 33.0681 16.403 31.8089C17.2018 30.9416 18.1111 29.8403 19.0622 28.5084C19.0643 28.5054 19.0664 28.5023 19.0686 28.4993C20.6999 28.0037 22.4754 27.5852 24.3596 27.2776C25.2204 27.1377 26.1041 27.0233 27.0054 26.9429C27.6392 27.5247 28.324 28.0544 29.0711 28.4967C29.653 28.8476 30.2719 29.1438 30.9198 29.3647C31.5748 29.5745 32.2339 29.7457 32.9144 29.8541C33.258 29.9022 33.6095 29.9241 33.9685 29.9109C34.7698 29.8812 35.9199 29.5801 35.9953 28.6273C36.0185 28.3357 35.9543 28.08 35.8258 27.8558ZM16.6425 29.604C16.2672 30.1737 15.9052 30.6861 15.5641 31.137C14.7289 32.2506 13.775 33.5734 12.3939 34.068C12.1316 34.1619 11.7863 34.2589 11.4222 34.2379C11.098 34.2192 10.7782 34.079 10.7929 33.7182C10.8002 33.5293 10.8945 33.2883 11.0392 33.0516C11.1975 32.792 11.3935 32.554 11.6058 32.3351C12.0607 31.8667 12.6358 31.4128 13.2975 30.9925C14.3123 30.3473 15.5238 29.7666 16.8743 29.2484C16.7966 29.3688 16.7191 29.4885 16.6425 29.604ZM21.3526 15.3169C21.2484 14.721 21.2327 14.1169 21.2967 13.536C21.3285 13.2455 21.3889 12.962 21.4763 12.6963C21.5504 12.4708 21.7102 11.9204 21.9653 11.8497C22.3857 11.7331 22.515 12.6177 22.5626 12.8679C22.8335 14.2915 22.5947 15.8747 22.2696 17.2712C22.2179 17.4933 22.1603 17.7119 22.1013 17.9296C22.0006 17.6581 21.9045 17.3858 21.8161 17.1122C21.6258 16.5145 21.4517 15.9098 21.3526 15.3169ZM24.2392 26.5553C22.6595 26.8062 21.1567 27.135 19.7441 27.5231C19.9142 27.4765 20.6915 26.033 20.8648 25.7334C21.6817 24.3235 22.3499 22.8438 22.8301 21.2915C23.6779 22.9347 24.7069 24.5067 25.971 25.9059C26.0875 26.0329 26.2058 26.1583 26.3262 26.2823C25.6179 26.3571 24.9207 26.4481 24.2392 26.5553ZM34.9226 28.5381C34.8648 28.8442 34.1978 29.0192 33.8865 29.0673C32.9667 29.2091 31.9936 29.0956 31.1132 28.8058C30.5092 28.6071 29.9266 28.3365 29.3731 28.011C28.8228 27.6852 28.3081 27.302 27.8269 26.8795C28.4202 26.8446 29.0208 26.8217 29.6243 26.8329C30.2278 26.8388 30.836 26.8686 31.4368 26.9454C32.5633 27.0685 33.8257 27.4475 34.7125 28.1639C34.8871 28.3051 34.9428 28.4299 34.9226 28.5381Z" fill="white"/>
</svg>
