<svg width="48" height="48" viewBox="0 0 48 48" fill="none" xmlns="http://www.w3.org/2000/svg">
<g filter="url(#filter0_d_71_4787)">
<rect x="4" y="2" width="40" height="40" rx="20" fill="url(#paint0_linear_71_4787)" fill-opacity="0.2" shape-rendering="crispEdges"/>
<path d="M24.3302 12C22.3523 12 20.4189 12.5865 18.7744 13.6853C17.1299 14.7841 15.8482 16.3459 15.0913 18.1732C14.3344 20.0005 14.1364 22.0112 14.5222 23.951C14.9081 25.8908 15.8605 27.6727 17.259 29.0712C18.6576 30.4697 20.4394 31.4222 22.3792 31.808C24.3191 32.1939 26.3298 31.9958 28.157 31.2389C29.9843 30.4821 31.5461 29.2003 32.6449 27.5558C33.7437 25.9113 34.3302 23.9779 34.3302 22.0001C34.3302 20.6868 34.0716 19.3865 33.569 18.1732C33.0665 16.9599 32.3299 15.8575 31.4013 14.929C30.4727 14.0004 29.3703 13.2638 28.157 12.7612C26.9438 12.2587 25.6434 12 24.3302 12ZM30.0102 21.5401L27.8802 23.7201L28.3802 26.8201C28.4148 27.0086 28.3946 27.203 28.3219 27.3803C28.2492 27.5576 28.1272 27.7102 27.9702 27.8201C27.816 27.9271 27.6348 27.9885 27.4474 27.9973C27.2599 28.0062 27.0738 27.9621 26.9102 27.8701L24.3302 26.4201L21.7301 27.8501C21.5847 27.9358 21.4189 27.9807 21.2501 27.9801C21.0428 27.9817 20.8401 27.9188 20.6701 27.8001C20.5132 27.6902 20.3911 27.5376 20.3184 27.3603C20.2457 27.183 20.2255 26.9886 20.2601 26.8001L20.7701 23.7001L18.6301 21.5401C18.5007 21.4082 18.4104 21.2431 18.3692 21.0631C18.3279 20.8831 18.3373 20.6951 18.3963 20.5201C18.4554 20.3451 18.5617 20.1898 18.7036 20.0715C18.8455 19.9533 19.0173 19.8766 19.2001 19.8501L22.1101 19.4001L23.4202 16.62C23.4945 16.439 23.6204 16.2837 23.7821 16.1735C23.9439 16.0633 24.1344 16.003 24.3302 16C24.5203 15.9987 24.707 16.0516 24.8682 16.1525C25.0293 16.2535 25.1584 16.3983 25.2402 16.57L26.5402 19.4001L29.4502 19.8501C29.6323 19.8773 29.8034 19.9542 29.9445 20.0724C30.0857 20.1907 30.1915 20.3456 30.2502 20.5201C30.3085 20.6956 30.3169 20.8839 30.2745 21.064C30.2321 21.2441 30.1406 21.4089 30.0102 21.5401Z" fill="#04C453"/>
<rect x="4.5" y="2.5" width="39" height="39" rx="19.5" stroke="url(#paint1_linear_71_4787)" shape-rendering="crispEdges"/>
</g>
<defs>
<filter id="filter0_d_71_4787" x="0" y="0" width="48" height="48" filterUnits="userSpaceOnUse" color-interpolation-filters="sRGB">
<feFlood flood-opacity="0" result="BackgroundImageFix"/>
<feColorMatrix in="SourceAlpha" type="matrix" values="0 0 0 0 0 0 0 0 0 0 0 0 0 0 0 0 0 0 127 0" result="hardAlpha"/>
<feOffset dy="2"/>
<feGaussianBlur stdDeviation="2"/>
<feComposite in2="hardAlpha" operator="out"/>
<feColorMatrix type="matrix" values="0 0 0 0 0.0156863 0 0 0 0 0.768627 0 0 0 0 0.32549 0 0 0 1 0"/>
<feBlend mode="normal" in2="BackgroundImageFix" result="effect1_dropShadow_71_4787"/>
<feBlend mode="normal" in="SourceGraphic" in2="effect1_dropShadow_71_4787" result="shape"/>
</filter>
<linearGradient id="paint0_linear_71_4787" x1="24" y1="2" x2="24" y2="42" gradientUnits="userSpaceOnUse">
<stop stop-color="#282630"/>
<stop offset="1" stop-color="#0F0E13"/>
</linearGradient>
<linearGradient id="paint1_linear_71_4787" x1="24" y1="2" x2="24" y2="42" gradientUnits="userSpaceOnUse">
<stop stop-color="#393D45"/>
<stop offset="1" stop-color="#393D45" stop-opacity="0"/>
</linearGradient>
</defs>
</svg>
