<svg width="48" height="48" viewBox="0 0 48 48" fill="none" xmlns="http://www.w3.org/2000/svg">
<g filter="url(#filter0_d_71_4813)">
<rect x="4" y="2" width="40" height="40" rx="20" fill="url(#paint0_linear_71_4813)" fill-opacity="0.2" shape-rendering="crispEdges"/>
<path d="M31.1396 15.7461L25 12.3458C24.5921 12.119 24.1332 12.0001 23.6665 12.0001C23.1999 12.0001 22.7409 12.119 22.333 12.3458L16.2212 15.7461C15.7886 15.9828 15.4267 16.3304 15.1728 16.7533C14.9189 17.1761 14.7822 17.6588 14.7766 18.152V25.8529C14.7794 26.3433 14.912 26.8242 15.1608 27.2467C15.4097 27.6693 15.766 28.0184 16.1934 28.2587L22.333 31.6591C22.7419 31.8828 23.2005 32.0001 23.6665 32.0001C24.1326 32.0001 24.5912 31.8828 25 31.6591L31.1396 28.2587C31.5671 28.0184 31.9234 27.6693 32.1722 27.2467C32.4211 26.8242 32.5536 26.3433 32.5564 25.8529V18.152C32.5536 17.6616 32.4211 17.1807 32.1722 16.7581C31.9234 16.3356 31.5671 15.9864 31.1396 15.7461ZM21.444 24.2249C21.444 24.3723 21.3855 24.5136 21.2813 24.6178C21.1771 24.722 21.0358 24.7805 20.8884 24.7805C20.7915 24.7799 20.6963 24.754 20.6125 24.7053C20.5287 24.6565 20.4591 24.5867 20.4106 24.5027L18.1103 21.4468V24.2249C18.1103 24.3723 18.0518 24.5136 17.9476 24.6178C17.8434 24.722 17.7021 24.7805 17.5547 24.7805C17.4074 24.7805 17.266 24.722 17.1618 24.6178C17.0576 24.5136 16.9991 24.3723 16.9991 24.2249V19.7799C16.9991 19.6326 17.0576 19.4913 17.1618 19.3871C17.266 19.2829 17.4074 19.2243 17.5547 19.2243C17.6517 19.2249 17.7468 19.2509 17.8306 19.2996C17.9144 19.3483 17.9841 19.4182 18.0325 19.5021L20.3328 22.558V19.7799C20.3328 19.6326 20.3913 19.4913 20.4955 19.3871C20.5997 19.2829 20.7411 19.2243 20.8884 19.2243C21.0358 19.2243 21.1771 19.2829 21.2813 19.3871C21.3855 19.4913 21.444 19.6326 21.444 19.7799V24.2249ZM25.3334 21.4468C25.4807 21.4468 25.6221 21.5053 25.7263 21.6095C25.8305 21.7137 25.889 21.8551 25.889 22.0024C25.889 22.1498 25.8305 22.2911 25.7263 22.3953C25.6221 22.4995 25.4807 22.558 25.3334 22.558H23.6665V24.2249C23.6665 24.3723 23.608 24.5136 23.5038 24.6178C23.3996 24.722 23.2583 24.7805 23.1109 24.7805C22.9636 24.7805 22.8222 24.722 22.718 24.6178C22.6138 24.5136 22.5553 24.3723 22.5553 24.2249V19.7799C22.5553 19.6326 22.6138 19.4913 22.718 19.3871C22.8222 19.2829 22.9636 19.2243 23.1109 19.2243H25.3334C25.4807 19.2243 25.6221 19.2829 25.7263 19.3871C25.8305 19.4913 25.889 19.6326 25.889 19.7799C25.889 19.9273 25.8305 20.0686 25.7263 20.1728C25.6221 20.277 25.4807 20.3356 25.3334 20.3356H23.6665V21.4468H25.3334ZM29.7783 20.3356H29.2227V24.2249C29.2227 24.3723 29.1642 24.5136 29.06 24.6178C28.9558 24.722 28.8145 24.7805 28.6671 24.7805C28.5197 24.7805 28.3784 24.722 28.2742 24.6178C28.17 24.5136 28.1115 24.3723 28.1115 24.2249V20.3356H27.5559C27.4085 20.3356 27.2672 20.277 27.163 20.1728C27.0588 20.0686 27.0002 19.9273 27.0002 19.7799C27.0002 19.6326 27.0588 19.4913 27.163 19.3871C27.2672 19.2829 27.4085 19.2243 27.5559 19.2243H29.7783C29.9257 19.2243 30.067 19.2829 30.1712 19.3871C30.2754 19.4913 30.334 19.6326 30.334 19.7799C30.334 19.9273 30.2754 20.0686 30.1712 20.1728C30.067 20.277 29.9257 20.3356 29.7783 20.3356Z" fill="#FF8936"/>
<rect x="4.5" y="2.5" width="39" height="39" rx="19.5" stroke="url(#paint1_linear_71_4813)" shape-rendering="crispEdges"/>
</g>
<defs>
<filter id="filter0_d_71_4813" x="0" y="0" width="48" height="48" filterUnits="userSpaceOnUse" color-interpolation-filters="sRGB">
<feFlood flood-opacity="0" result="BackgroundImageFix"/>
<feColorMatrix in="SourceAlpha" type="matrix" values="0 0 0 0 0 0 0 0 0 0 0 0 0 0 0 0 0 0 127 0" result="hardAlpha"/>
<feOffset dy="2"/>
<feGaussianBlur stdDeviation="2"/>
<feComposite in2="hardAlpha" operator="out"/>
<feColorMatrix type="matrix" values="0 0 0 0 1 0 0 0 0 0.537255 0 0 0 0 0.211765 0 0 0 1 0"/>
<feBlend mode="normal" in2="BackgroundImageFix" result="effect1_dropShadow_71_4813"/>
<feBlend mode="normal" in="SourceGraphic" in2="effect1_dropShadow_71_4813" result="shape"/>
</filter>
<linearGradient id="paint0_linear_71_4813" x1="24" y1="2" x2="24" y2="42" gradientUnits="userSpaceOnUse">
<stop stop-color="#282630"/>
<stop offset="1" stop-color="#0F0E13"/>
</linearGradient>
<linearGradient id="paint1_linear_71_4813" x1="24" y1="2" x2="24" y2="42" gradientUnits="userSpaceOnUse">
<stop stop-color="#393D45"/>
<stop offset="1" stop-color="#393D45" stop-opacity="0"/>
</linearGradient>
</defs>
</svg>
