<svg width="18" height="18" viewBox="0 0 18 18" fill="none" xmlns="http://www.w3.org/2000/svg">
<path d="M10.285 2.57143C9.77746 2.57208 9.27123 2.62268 8.77363 2.7225C9.04015 3.56432 9.07038 4.46317 8.86102 5.321C8.65165 6.17883 8.21073 6.96269 7.58634 7.58707C6.96196 8.21145 6.1781 8.65238 5.32027 8.86175C4.46244 9.07111 3.56359 9.04088 2.72177 8.77435C2.41014 10.3342 2.5883 11.9522 3.23186 13.4068C3.87542 14.8615 4.95291 16.0816 6.31678 16.9002C7.68064 17.7187 9.2642 18.0957 10.8506 17.9794C12.437 17.863 13.9486 17.2592 15.1785 16.2505C16.4085 15.2418 17.2965 13.8776 17.721 12.3446C18.1455 10.8117 18.0858 9.18496 17.55 7.68727C17.0143 6.18957 16.0286 4.89412 14.728 3.9783C13.4275 3.06249 11.8756 2.5711 10.285 2.57143ZM14.1421 10.9286H10.285C10.1145 10.9286 9.95097 10.8608 9.83041 10.7403C9.70985 10.6197 9.64213 10.4562 9.64213 10.2857V6.42857C9.64213 6.25807 9.70985 6.09456 9.83041 5.974C9.95097 5.85344 10.1145 5.78571 10.285 5.78571C10.4555 5.78571 10.619 5.85344 10.7396 5.974C10.8601 6.09456 10.9278 6.25807 10.9278 6.42857V9.64285H14.1421C14.3126 9.64285 14.4761 9.71058 14.5967 9.83114C14.7173 9.9517 14.785 10.1152 14.785 10.2857C14.785 10.4562 14.7173 10.6197 14.5967 10.7403C14.4761 10.8608 14.3126 10.9286 14.1421 10.9286Z" fill="#FF8936"/>
<path d="M8.35714 4.17857C8.35714 3.35213 8.11208 2.54425 7.65293 1.85708C7.19378 1.16992 6.54118 0.634343 5.77764 0.318077C5.01411 0.00181051 4.17394 -0.0809391 3.36337 0.080292C2.55281 0.241523 1.80826 0.639493 1.22388 1.22388C0.639493 1.80826 0.241523 2.55281 0.080292 3.36337C-0.0809391 4.17394 0.00181051 5.01411 0.318077 5.77764C0.634343 6.54118 1.16992 7.19378 1.85708 7.65293C2.54425 8.11208 3.35213 8.35714 4.17857 8.35714C5.28638 8.35578 6.34843 7.91511 7.13177 7.13177C7.91511 6.34843 8.35578 5.28638 8.35714 4.17857ZM3.53572 2.57143C3.53572 2.40093 3.60345 2.23742 3.724 2.11686C3.84456 1.9963 4.00808 1.92857 4.17857 1.92857C4.34907 1.92857 4.51258 1.9963 4.63314 2.11686C4.7537 2.23742 4.82143 2.40093 4.82143 2.57143V3.85714C4.82143 4.02764 4.7537 4.19115 4.63314 4.31171C4.51258 4.43227 4.34907 4.5 4.17857 4.5C4.00808 4.5 3.84456 4.43227 3.724 4.31171C3.60345 4.19115 3.53572 4.02764 3.53572 3.85714V2.57143ZM3.53572 5.78572C3.53572 5.65857 3.57342 5.53428 3.64406 5.42856C3.7147 5.32285 3.8151 5.24045 3.93256 5.19179C4.05003 5.14314 4.17929 5.13041 4.30399 5.15521C4.42869 5.18002 4.54324 5.24124 4.63314 5.33115C4.72305 5.42105 4.78427 5.5356 4.80908 5.6603C4.83388 5.785 4.82115 5.91426 4.7725 6.03173C4.72384 6.14919 4.64144 6.24959 4.53573 6.32023C4.43001 6.39087 4.30572 6.42857 4.17857 6.42857C4.00808 6.42857 3.84456 6.36084 3.724 6.24028C3.60345 6.11973 3.53572 5.95621 3.53572 5.78572Z" fill="#FF8936"/>
</svg>
