<svg width="18" height="19" viewBox="0 0 18 19" fill="none" xmlns="http://www.w3.org/2000/svg">
<path d="M4.22701 8.43952C3.98325 8.19575 3.78988 7.90636 3.65796 7.58786C3.52603 7.26936 3.45813 6.928 3.45813 6.58326C3.45813 6.23853 3.52603 5.89717 3.65796 5.57867C3.78988 5.26017 3.98325 4.97078 4.22701 4.72701C4.47078 4.48325 4.76017 4.28988 5.07867 4.15796C5.39717 4.02603 5.73853 3.95813 6.08326 3.95813C6.428 3.95813 6.76936 4.02603 7.08786 4.15796C7.40636 4.28988 7.69575 4.48325 7.93952 4.72701L13.773 10.5605C14.2653 11.0528 14.5419 11.7205 14.5419 12.4168C14.5419 13.113 14.2653 13.7807 13.773 14.273C13.5292 14.5168 13.2399 14.7101 12.9214 14.8421C12.6029 14.974 12.2615 15.0419 11.9168 15.0419C11.2205 15.0419 10.5528 14.7653 10.0605 14.273L7.01101 11.2235C6.92395 11.1364 6.85488 11.0331 6.80776 10.9193C6.76064 10.8056 6.73639 10.6836 6.73639 10.5605C6.73639 10.4374 6.76064 10.3155 6.80776 10.2017C6.85488 10.0879 6.92395 9.98458 7.01101 9.89751C7.09808 9.81045 7.20144 9.74138 7.3152 9.69426C7.42896 9.64714 7.55088 9.62289 7.67402 9.62289C7.79715 9.62289 7.91907 9.64714 8.03283 9.69426C8.14659 9.74138 8.24995 9.81045 8.33701 9.89751L11.121 12.6823C11.2617 12.823 11.4526 12.9021 11.6516 12.9021C11.8507 12.9021 12.0415 12.823 12.1823 12.6823C12.323 12.5415 12.4021 12.3507 12.4021 12.1516C12.4021 11.9526 12.323 11.7617 12.1823 11.621L9.39751 8.83701C8.93898 8.38683 8.32123 8.13593 7.67865 8.13888C7.03608 8.14183 6.42066 8.3984 5.96628 8.85278C5.5119 9.30716 5.25533 9.92258 5.25238 10.5652C5.24943 11.2077 5.50033 11.8255 5.95051 12.284L9.00001 15.3335C9.38211 15.7208 9.83704 16.0286 10.3386 16.2393C10.8402 16.45 11.3785 16.5595 11.9225 16.5613C12.4665 16.5631 13.0055 16.4573 13.5085 16.25C14.0115 16.0426 14.4684 15.7378 14.8531 15.3531C15.2378 14.9684 15.5426 14.5115 15.75 14.0085C15.9573 13.5055 16.0631 12.9665 16.0613 12.4225C16.0595 11.8785 15.95 11.3402 15.7393 10.8386C15.5286 10.337 15.2208 9.88211 14.8335 9.50001L9.00001 3.66651C8.61791 3.27926 8.16299 2.97141 7.66142 2.7607C7.15986 2.54998 6.62157 2.44057 6.07754 2.43874C5.53351 2.43692 4.9945 2.54273 4.49154 2.75008C3.98857 2.95743 3.53159 3.26222 3.14691 3.64691C2.76222 4.03159 2.45743 4.48857 2.25008 4.99154C2.04273 5.4945 1.93692 6.03351 1.93874 6.57754C1.94057 7.12157 2.04998 7.65986 2.2607 8.16142C2.47141 8.66299 2.77926 9.11791 3.16651 9.50001L3.43126 9.76476C3.5004 9.83644 3.58312 9.89364 3.67459 9.93301C3.76607 9.97238 3.86447 9.99314 3.96405 9.99407C4.06363 9.99501 4.1624 9.9761 4.2546 9.93845C4.3468 9.90081 4.43058 9.84518 4.50105 9.77481C4.57151 9.70444 4.62726 9.62074 4.66504 9.5286C4.70282 9.43645 4.72186 9.33771 4.72107 9.23812C4.72027 9.13854 4.69965 9.04011 4.66041 8.94858C4.62117 8.85705 4.5641 8.77425 4.49251 8.70501L4.22701 8.43952Z" fill="white"/>
</svg>
