<svg width="320" height="82" viewBox="0 0 320 82" fill="none" xmlns="http://www.w3.org/2000/svg">
<path d="M70.593 9.3277L62.2233 8.77925L59.0712 0.886475L55.9192 8.77925L47.5586 9.3277L53.9711 14.7547L51.8668 22.987L59.0712 18.4481L66.2757 22.987L64.1714 14.7547L70.593 9.3277Z" fill="#FF0083"/>
<path fill-rule="evenodd" clip-rule="evenodd" d="M30.9357 52.9789H11.4842L20.8339 69.389H36.3448C32.9604 64.7882 30.9551 59.1165 30.9357 52.9789ZM81.5803 69.389H97.2561L106.606 52.9789H86.9894C86.9699 59.1165 84.9646 64.7882 81.5803 69.389ZM31.2973 48.3887C32.3639 41.8242 35.7258 36.0264 40.5356 31.8398H0L9.20785 48.3887H31.2973ZM77.3894 31.8398C82.1993 36.0264 85.5612 41.8242 86.6278 48.3887H108.765L117.925 31.8398H77.3894Z" fill="#FF0083"/>
<path d="M58.9631 36.7865C67.4428 36.7865 74.3553 43.5806 74.6745 52.0864L82.1133 56.7105C82.3355 55.3963 82.4508 54.0467 82.4508 52.6682C82.4508 39.5367 71.9359 28.8914 58.9614 28.8914C45.9869 28.8914 35.4736 39.5383 35.4736 52.6699C35.4736 55.5131 35.9665 58.2412 36.8722 60.7664C37.7678 63.2712 39.0677 65.5782 40.6918 67.6112L47.3704 63.459L55.0715 58.6708V76.8865H62.6507V58.5236L70.5691 63.4471L77.246 67.5994C78.8684 65.5664 80.1667 63.2577 81.0606 60.7511L74.2367 56.5076L66.3935 51.6314L58.9798 47.0225L58.9631 47.0327L51.566 51.6314L43.6944 56.5245C43.3953 55.2999 43.2366 54.023 43.2366 52.7054C43.2366 43.9138 50.2778 36.7882 58.9614 36.7882L58.9631 36.7865ZM58.9631 56.2302L58.9781 56.2386L58.9631 56.2488V56.2285V56.2302Z" fill="#FF0083"/>
<path d="M137.869 44.9277V29.6138H131.776V24.1932H150.974V29.6138H144.882V44.9277H137.869Z" fill="white"/>
<path d="M163.413 45.4016C161.728 45.4016 160.163 45.135 158.717 44.6018C157.291 44.0687 156.052 43.3183 155.002 42.3507C153.952 41.3633 153.13 40.2081 152.536 38.885C151.961 37.562 151.674 36.1204 151.674 34.5604C151.674 32.9806 151.961 31.5391 152.536 30.2358C153.13 28.9127 153.952 27.7674 155.002 26.7998C156.052 25.8124 157.291 25.0522 158.717 24.519C160.163 23.9858 161.728 23.7192 163.413 23.7192C165.116 23.7192 166.682 23.9858 168.108 24.519C169.535 25.0522 170.773 25.8124 171.823 26.7998C172.873 27.7674 173.685 28.9127 174.26 30.2358C174.854 31.5391 175.151 32.9806 175.151 34.5604C175.151 36.1204 174.854 37.562 174.26 38.885C173.685 40.2081 172.873 41.3633 171.823 42.3507C170.773 43.3183 169.535 44.0687 168.108 44.6018C166.682 45.135 165.116 45.4016 163.413 45.4016ZM163.413 39.744C164.066 39.744 164.671 39.6256 165.225 39.3886C165.8 39.1516 166.295 38.8159 166.711 38.3815C167.147 37.9273 167.484 37.3843 167.722 36.7523C167.959 36.1007 168.078 35.37 168.078 34.5604C168.078 33.7508 167.959 33.03 167.722 32.3981C167.484 31.7464 167.147 31.2034 166.711 30.769C166.295 30.3148 165.8 29.9692 165.225 29.7322C164.671 29.4953 164.066 29.3768 163.413 29.3768C162.759 29.3768 162.145 29.4953 161.57 29.7322C161.015 29.9692 160.52 30.3148 160.084 30.769C159.668 31.2034 159.341 31.7464 159.103 32.3981C158.866 33.03 158.747 33.7508 158.747 34.5604C158.747 35.37 158.866 36.1007 159.103 36.7523C159.341 37.3843 159.668 37.9273 160.084 38.3815C160.52 38.8159 161.015 39.1516 161.57 39.3886C162.145 39.6256 162.759 39.744 163.413 39.744Z" fill="white"/>
<path d="M177.697 44.9277V24.1932H183.462L191.783 37.7298H188.752L196.836 24.1932H202.601L202.66 44.9277H196.271L196.211 33.7903H197.222L191.694 43.0616H188.604L182.838 33.7903H184.086V44.9277H177.697Z" fill="white"/>
<path d="M206.051 44.9277V24.1932H213.065V44.9277H206.051Z" fill="white"/>
<path d="M223.092 44.9277L232.186 24.1932H239.081L248.175 44.9277H240.923L234.207 27.5107H236.941L230.225 44.9277H223.092ZM228.501 41.3139L230.284 36.2784H239.853L241.636 41.3139H228.501Z" fill="white"/>
<path d="M249.294 44.9277V24.1932H259.309C261.251 24.1932 262.925 24.5091 264.331 25.141C265.758 25.7729 266.857 26.6813 267.63 27.8661C268.403 29.0312 268.789 30.4135 268.789 32.013C268.789 33.6125 268.403 34.9948 267.63 36.1599C266.857 37.3053 265.758 38.184 264.331 38.7962C262.925 39.4083 261.251 39.7144 259.309 39.7144H253.187L256.307 36.8412V44.9277H249.294ZM261.746 44.9277L256.634 37.3744H264.064L269.235 44.9277H261.746ZM256.307 37.6113L253.187 34.4419H258.863C259.834 34.4419 260.547 34.2247 261.003 33.7903C261.478 33.3558 261.716 32.7634 261.716 32.013C261.716 31.2626 261.478 30.6702 261.003 30.2358C260.547 29.8014 259.834 29.5841 258.863 29.5841H253.187L256.307 26.4147V37.6113Z" fill="white"/>
<path d="M271.438 44.9277V24.1932H277.203L285.524 37.7298H282.493L290.576 24.1932H296.342L296.401 44.9277H290.012L289.952 33.7903H290.963L285.435 43.0616H282.344L276.579 33.7903H277.827V44.9277H271.438Z" fill="white"/>
<path d="M305.141 44.9277V35.8341L306.746 40.0106L297.296 24.1932H304.695L311.085 35.0047H306.776L313.225 24.1932H320L310.609 40.0106L312.155 35.8341V44.9277H305.141Z" fill="white"/>
<path d="M140.877 63.998C141.34 64.0709 141.761 64.2593 142.139 64.5631C142.529 64.8669 142.834 65.2436 143.053 65.6932C143.285 66.1429 143.401 66.6229 143.401 67.1333C143.401 67.7773 143.236 68.3606 142.907 68.8832C142.578 69.3936 142.096 69.8007 141.462 70.1045C140.84 70.3961 140.103 70.5419 139.249 70.5419H134.494V57.8369H139.067C139.932 57.8369 140.67 57.9828 141.279 58.2744C141.889 58.5539 142.346 58.9367 142.651 59.4228C142.956 59.9089 143.108 60.4557 143.108 61.0633C143.108 61.8167 142.901 62.4426 142.486 62.9408C142.084 63.4269 141.548 63.7793 140.877 63.998ZM136.159 63.3236H138.957C139.737 63.3236 140.341 63.1413 140.767 62.7767C141.194 62.4122 141.407 61.9079 141.407 61.2638C141.407 60.6198 141.194 60.1154 140.767 59.7509C140.341 59.3863 139.725 59.204 138.92 59.204H136.159V63.3236ZM139.103 69.1748C139.932 69.1748 140.578 68.9804 141.042 68.5915C141.505 68.2027 141.737 67.6619 141.737 66.9692C141.737 66.2644 141.493 65.7115 141.005 65.3105C140.517 64.8973 139.865 64.6907 139.048 64.6907H136.159V69.1748H139.103Z" fill="white"/>
<path d="M152.952 70.6695C151.77 70.6695 150.691 70.3961 149.715 69.8493C148.74 69.2903 147.966 68.5186 147.393 67.5343C146.832 66.5378 146.552 65.4198 146.552 64.1803C146.552 62.9408 146.832 61.8289 147.393 60.8446C147.966 59.8481 148.74 59.0764 149.715 58.5296C150.691 57.9706 151.77 57.6911 152.952 57.6911C154.147 57.6911 155.232 57.9706 156.208 58.5296C157.183 59.0764 157.951 59.842 158.512 60.8263C159.073 61.8107 159.353 62.9287 159.353 64.1803C159.353 65.432 159.073 66.55 158.512 67.5343C157.951 68.5186 157.183 69.2903 156.208 69.8493C155.232 70.3961 154.147 70.6695 152.952 70.6695ZM152.952 69.2295C153.842 69.2295 154.641 69.0229 155.348 68.6097C156.068 68.1966 156.628 67.6072 157.031 66.8416C157.445 66.076 157.653 65.1889 157.653 64.1803C157.653 63.1595 157.445 62.2724 157.031 61.519C156.628 60.7534 156.074 60.1641 155.366 59.7509C154.659 59.3377 153.855 59.1311 152.952 59.1311C152.05 59.1311 151.246 59.3377 150.538 59.7509C149.831 60.1641 149.27 60.7534 148.856 61.519C148.454 62.2724 148.252 63.1595 148.252 64.1803C148.252 65.1889 148.454 66.076 148.856 66.8416C149.27 67.6072 149.831 68.1966 150.538 68.6097C151.258 69.0229 152.062 69.2295 152.952 69.2295Z" fill="white"/>
<path d="M164.641 57.8369V65.8755C164.641 67.0057 164.915 67.8442 165.464 68.391C166.025 68.9379 166.799 69.2113 167.787 69.2113C168.762 69.2113 169.524 68.9379 170.073 68.391C170.634 67.8442 170.914 67.0057 170.914 65.8755V57.8369H172.578V65.8573C172.578 66.9145 172.365 67.8077 171.938 68.5368C171.511 69.2538 170.932 69.7885 170.201 70.1409C169.481 70.4933 168.671 70.6695 167.768 70.6695C166.866 70.6695 166.049 70.4933 165.318 70.1409C164.598 69.7885 164.025 69.2538 163.599 68.5368C163.184 67.8077 162.977 66.9145 162.977 65.8573V57.8369H164.641Z" fill="white"/>
<path d="M186.839 70.5419H185.175L178.482 60.4253V70.5419H176.817V57.8187H178.482L185.175 67.9171V57.8187H186.839V70.5419Z" fill="white"/>
<path d="M198.985 57.8369V59.1858H195.51V70.5419H193.846V59.1858H190.353V57.8369H198.985Z" fill="white"/>
<path d="M211.421 57.8369L207.27 65.7479V70.5419H205.606V65.7479L201.436 57.8369H203.283L206.429 64.2715L209.574 57.8369H211.421Z" fill="white"/>
<path d="M229.501 61.5555C229.501 62.6127 229.135 63.4937 228.404 64.1985C227.684 64.8912 226.581 65.2375 225.093 65.2375H222.643V70.5419H220.979V57.8369H225.093C226.532 57.8369 227.623 58.1833 228.367 58.8759C229.123 59.5686 229.501 60.4618 229.501 61.5555ZM225.093 63.8704C226.02 63.8704 226.703 63.6699 227.142 63.2689C227.581 62.8679 227.8 62.2967 227.8 61.5555C227.8 59.9879 226.898 59.204 225.093 59.204H222.643V63.8704H225.093Z" fill="white"/>
<path d="M239.744 70.5419L236.708 65.3469H234.697V70.5419H233.032V57.8369H237.147C238.11 57.8369 238.921 58.001 239.58 58.3291C240.25 58.6572 240.75 59.1007 241.079 59.6597C241.408 60.2187 241.573 60.8567 241.573 61.5737C241.573 62.4486 241.317 63.2203 240.805 63.8887C240.305 64.557 239.549 65.0006 238.537 65.2193L241.738 70.5419H239.744ZM234.697 64.0163H237.147C238.049 64.0163 238.726 63.7975 239.177 63.3601C239.628 62.9104 239.854 62.315 239.854 61.5737C239.854 60.8203 239.628 60.237 239.177 59.8238C238.738 59.4106 238.062 59.204 237.147 59.204H234.697V64.0163Z" fill="white"/>
<path d="M251.401 70.6695C250.218 70.6695 249.139 70.3961 248.164 69.8493C247.189 69.2903 246.414 68.5186 245.841 67.5343C245.281 66.5378 245 65.4198 245 64.1803C245 62.9408 245.281 61.8289 245.841 60.8446C246.414 59.8481 247.189 59.0764 248.164 58.5296C249.139 57.9706 250.218 57.6911 251.401 57.6911C252.596 57.6911 253.681 57.9706 254.656 58.5296C255.632 59.0764 256.4 59.842 256.961 60.8263C257.522 61.8107 257.802 62.9287 257.802 64.1803C257.802 65.432 257.522 66.55 256.961 67.5343C256.4 68.5186 255.632 69.2903 254.656 69.8493C253.681 70.3961 252.596 70.6695 251.401 70.6695ZM251.401 69.2295C252.291 69.2295 253.09 69.0229 253.797 68.6097C254.516 68.1966 255.077 67.6072 255.479 66.8416C255.894 66.076 256.101 65.1889 256.101 64.1803C256.101 63.1595 255.894 62.2724 255.479 61.519C255.077 60.7534 254.522 60.1641 253.815 59.7509C253.108 59.3377 252.303 59.1311 251.401 59.1311C250.499 59.1311 249.694 59.3377 248.987 59.7509C248.28 60.1641 247.719 60.7534 247.304 61.519C246.902 62.2724 246.701 63.1595 246.701 64.1803C246.701 65.1889 246.902 66.076 247.304 66.8416C247.719 67.6072 248.28 68.1966 248.987 68.6097C249.706 69.0229 250.511 69.2295 251.401 69.2295Z" fill="white"/>
<path d="M271.118 61.519C270.765 60.7777 270.253 60.2066 269.582 59.8056C268.911 59.3924 268.131 59.1858 267.241 59.1858C266.351 59.1858 265.546 59.3924 264.827 59.8056C264.12 60.2066 263.559 60.7899 263.145 61.5555C262.742 62.3089 262.541 63.1838 262.541 64.1803C262.541 65.1768 262.742 66.0517 263.145 66.8052C263.559 67.5586 264.12 68.1419 264.827 68.5551C265.546 68.9561 266.351 69.1566 267.241 69.1566C268.485 69.1566 269.509 68.786 270.314 68.0447C271.118 67.3034 271.588 66.3009 271.722 65.037H266.638V63.6882H273.496V64.9641C273.398 66.0092 273.069 66.9692 272.508 67.8442C271.947 68.707 271.21 69.3936 270.295 69.9039C269.381 70.4022 268.363 70.6513 267.241 70.6513C266.058 70.6513 264.979 70.3779 264.004 69.831C263.029 69.272 262.255 68.5004 261.682 67.5161C261.121 66.5317 260.84 65.4198 260.84 64.1803C260.84 62.9408 261.121 61.8289 261.682 60.8446C262.255 59.8481 263.029 59.0764 264.004 58.5296C264.979 57.9706 266.058 57.6911 267.241 57.6911C268.594 57.6911 269.789 58.0253 270.826 58.6937C271.874 59.362 272.636 60.3038 273.112 61.519H271.118Z" fill="white"/>
<path d="M283.871 70.5419L280.835 65.3469H278.823V70.5419H277.159V57.8369H281.274C282.237 57.8369 283.048 58.001 283.706 58.3291C284.377 58.6572 284.877 59.1007 285.206 59.6597C285.535 60.2187 285.7 60.8567 285.7 61.5737C285.7 62.4486 285.444 63.2203 284.932 63.8887C284.432 64.557 283.676 65.0006 282.664 65.2193L285.864 70.5419H283.871ZM278.823 64.0163H281.274C282.176 64.0163 282.853 63.7975 283.304 63.3601C283.755 62.9104 283.981 62.315 283.981 61.5737C283.981 60.8203 283.755 60.237 283.304 59.8238C282.865 59.4106 282.188 59.204 281.274 59.204H278.823V64.0163Z" fill="white"/>
<path d="M297.284 67.7166H291.724L290.7 70.5419H288.944L293.553 57.9098H295.473L300.063 70.5419H298.308L297.284 67.7166ZM296.808 66.3677L294.504 59.9514L292.199 66.3677H296.808Z" fill="white"/>
<path d="M316.465 57.9281V70.5419H314.801V61.1362L310.594 70.5419H309.424L305.199 61.118V70.5419H303.535V57.9281H305.327L310.009 68.3546L314.691 57.9281H316.465Z" fill="white"/>
</svg>
