<svg width="170" height="26" viewBox="0 0 170 26" fill="none" xmlns="http://www.w3.org/2000/svg">
<path d="M6.52825 20.0606C4.98262 20.0606 3.92509 19.7374 3.35564 19.0909C2.7862 18.4444 2.50148 17.4747 2.50148 16.1818V10.303H0V6.48485H1.28125C1.62698 6.48485 1.90153 6.42424 2.1049 6.30303C2.32861 6.16162 2.47097 5.91919 2.53199 5.57576L3.1116 2.33333H8.11455V6.48485H13.209V10.303H8.11455V15C8.11455 15.5051 8.23658 15.8384 8.48062 16C8.72467 16.1616 9.09074 16.2424 9.57884 16.2424H12.6294L13.2395 19.7576C12.8125 19.8182 12.1617 19.8889 11.2872 19.9697C10.4127 20.0303 9.45681 20.0606 8.41961 20.0606H6.52825Z" fill="white"/>
<path d="M20.0311 20.0606C18.6889 20.0606 17.6822 19.8687 17.0111 19.4848C16.3399 19.101 15.8925 18.5758 15.6688 17.9091C15.4654 17.2222 15.3637 16.4343 15.3637 15.5455V10.9697C15.3637 10.1212 15.4756 9.36364 15.6993 8.69697C15.923 8.0101 16.3603 7.47475 17.0111 7.09091C17.6822 6.68687 18.6889 6.48485 20.0311 6.48485H28.5118C29.854 6.48485 30.8505 6.68687 31.5013 7.09091C32.1725 7.47475 32.6097 8.0101 32.8131 8.69697C33.0368 9.36364 33.1487 10.1212 33.1487 10.9697V15.5455C33.1487 16.4343 33.0368 17.2222 32.8131 17.9091C32.6097 18.5758 32.1725 19.101 31.5013 19.4848C30.8505 19.8687 29.854 20.0606 28.5118 20.0606H20.0311ZM22.4716 16.2424H26.1018C27.078 16.2424 27.5559 15.8384 27.5356 15.0303V11.5152C27.5356 11.1111 27.4237 10.8081 27.2 10.6061C26.9966 10.404 26.6306 10.303 26.1018 10.303H22.5021C21.9733 10.303 21.5971 10.404 21.3734 10.6061C21.1497 10.8081 21.0378 11.1111 21.0378 11.5152V15.0303C21.0175 15.8384 21.4954 16.2424 22.4716 16.2424Z" fill="white"/>
<path d="M36.4926 20.0606V6.48485H40.916L41.6786 6.84849C42.2684 6.74748 42.9293 6.66667 43.6615 6.60606C44.414 6.52525 45.2173 6.48485 46.0714 6.48485H47.7188C48.3085 6.48485 48.878 6.56566 49.4271 6.72727C49.9762 6.86869 50.3829 7.08081 50.6473 7.36364C50.9931 7.18182 51.3693 7.0303 51.776 6.90909C52.1828 6.76768 52.7014 6.66667 53.3318 6.60606C53.9826 6.52525 54.8063 6.48485 55.8028 6.48485H57.3281C58.345 6.48485 59.128 6.62626 59.6771 6.90909C60.2262 7.19192 60.6126 7.54546 60.8363 7.9697C61.0803 8.39394 61.2227 8.82828 61.2634 9.27273C61.3244 9.69697 61.3549 10.0606 61.3549 10.3636V20.0606H55.7723V11.5152C55.7723 10.7071 55.2842 10.303 54.308 10.303H52.5997C52.2743 10.303 52.0506 10.3434 51.9286 10.4242C51.8065 10.5051 51.7455 10.6869 51.7455 10.9697V20.0606H46.0714V11.5152C46.0714 10.7071 45.5834 10.303 44.6072 10.303H43.0514C42.665 10.303 42.4107 10.3434 42.2887 10.4242C42.187 10.4848 42.1362 10.6667 42.1362 10.9697V20.0606H36.4926Z" fill="white"/>
<path d="M67.9346 5.18182C65.8805 5.18182 64.8535 4.31313 64.8535 2.57576C64.8535 1.60606 65.1077 0.939396 65.6162 0.575759C66.1449 0.19192 66.9177 0 67.9346 0C69.0125 0 69.7955 0.19192 70.2836 0.575759C70.792 0.939396 71.0462 1.60606 71.0462 2.57576C71.0462 4.31313 70.009 5.18182 67.9346 5.18182ZM65.1281 20.0606V6.48485H70.6801V20.0606H65.1281Z" fill="white"/>
<path d="M79.8309 20.0606L88.7691 2.24243H96.7007L105.608 20.0606H99.0496L97.5548 16.8182H87.915L86.2372 20.0606H79.8309ZM89.5928 12.6364H95.8465L92.8874 6.18182H92.5824L89.5928 12.6364Z" fill="white"/>
<path d="M107.693 20.0606V6.48485H112.025L113.184 7.09091C114.119 6.48485 115.36 6.18182 116.906 6.18182C117.922 6.18182 118.817 6.29293 119.59 6.51515C120.363 6.71717 120.983 6.93939 121.451 7.18182C121.939 7.42424 122.244 7.59596 122.366 7.69697L120.841 11.6364C120.637 11.495 120.251 11.303 119.682 11.0606C119.132 10.8182 118.482 10.596 117.729 10.3939C116.977 10.1717 116.184 10.0606 115.35 10.0606H115.014C114.445 10.0606 114.007 10.1616 113.702 10.3636C113.397 10.5455 113.245 10.9596 113.245 11.6061V20.0606H107.693Z" fill="white"/>
<path d="M124.495 20.0606V6.48485H128.918L129.681 6.84849C130.271 6.74748 130.932 6.66667 131.664 6.60606C132.416 6.52525 133.219 6.48485 134.074 6.48485H135.721C136.311 6.48485 136.88 6.56566 137.429 6.72727C137.978 6.86869 138.385 7.08081 138.65 7.36364C138.995 7.18182 139.372 7.0303 139.778 6.90909C140.185 6.76768 140.704 6.66667 141.334 6.60606C141.985 6.52525 142.808 6.48485 143.805 6.48485H145.33C146.347 6.48485 147.13 6.62626 147.679 6.90909C148.228 7.19192 148.615 7.54546 148.838 7.9697C149.083 8.39394 149.225 8.82828 149.266 9.27273C149.327 9.69697 149.357 10.0606 149.357 10.3636V20.0606H143.775V11.5152C143.775 10.7071 143.286 10.303 142.31 10.303H140.602C140.277 10.303 140.053 10.3434 139.931 10.4242C139.809 10.5051 139.748 10.6869 139.748 10.9697V20.0606H134.074V11.5152C134.074 10.7071 133.586 10.303 132.609 10.303H131.054C130.667 10.303 130.413 10.3434 130.291 10.4242C130.189 10.4848 130.138 10.6667 130.138 10.9697V20.0606H124.495Z" fill="white"/>
<path d="M154.747 26C153.629 26 152.612 25.8889 151.697 25.6667C150.781 25.4646 150.151 25.2626 149.805 25.0606L151.025 21.3333C151.635 21.596 152.286 21.798 152.978 21.9394C153.69 22.0808 154.361 22.1515 154.991 22.1515H155.327C157.096 22.1515 158.377 21.4545 159.17 20.0606H157.31L151.33 6.48485H157.462L160.086 14.5455L160.543 16.3939H160.848L161.306 14.5455L163.96 6.48485H170L169.512 8.33333C169.126 9.12121 168.678 10.0303 168.17 11.0606C167.682 12.0707 167.173 13.1212 166.644 14.2121C166.116 15.303 165.597 16.3535 165.089 17.3636C164.6 18.3737 164.163 19.2727 163.777 20.0606C162.78 22.0808 161.631 23.5758 160.33 24.5455C159.028 25.5152 157.442 26 155.571 26H154.747Z" fill="white"/>
</svg>
