<svg width="32" height="33" viewBox="0 0 32 33" fill="none" xmlns="http://www.w3.org/2000/svg">
<rect x="0.5" y="1" width="31" height="31" rx="15.5" fill="#161A22"/>
<path d="M16 17.9L11.1 22.8C10.9167 22.9834 10.6834 23.075 10.4 23.075C10.1167 23.075 9.88338 22.9834 9.70005 22.8C9.51672 22.6167 9.42505 22.3834 9.42505 22.1C9.42505 21.8167 9.51672 21.5834 9.70005 21.4L14.6 16.5L9.70005 11.6C9.51672 11.4167 9.42505 11.1834 9.42505 10.9C9.42505 10.6167 9.51672 10.3834 9.70005 10.2C9.88338 10.0167 10.1167 9.92505 10.4 9.92505C10.6834 9.92505 10.9167 10.0167 11.1 10.2L16 15.1L20.9 10.2C21.0834 10.0167 21.3167 9.92505 21.6 9.92505C21.8834 9.92505 22.1167 10.0167 22.3 10.2C22.4834 10.3834 22.575 10.6167 22.575 10.9C22.575 11.1834 22.4834 11.4167 22.3 11.6L17.4 16.5L22.3 21.4C22.4834 21.5834 22.575 21.8167 22.575 22.1C22.575 22.3834 22.4834 22.6167 22.3 22.8C22.1167 22.9834 21.8834 23.075 21.6 23.075C21.3167 23.075 21.0834 22.9834 20.9 22.8L16 17.9Z" fill="white"/>
<rect x="0.5" y="1" width="31" height="31" rx="15.5" stroke="url(#paint0_linear_154_9460)"/>
<defs>
<linearGradient id="paint0_linear_154_9460" x1="16" y1="0.5" x2="16" y2="32.5" gradientUnits="userSpaceOnUse">
<stop stop-color="#2D313E"/>
<stop offset="1" stop-color="#2D313E"/>
</linearGradient>
</defs>
</svg>
