<svg width="18" height="4" viewBox="0 0 18 4" fill="none" xmlns="http://www.w3.org/2000/svg">
<path fill-rule="evenodd" clip-rule="evenodd" d="M3.51 2C3.51 1.60218 3.35196 1.22064 3.07066 0.93934C2.78936 0.658035 2.40782 0.5 2.01 0.5H2C1.60218 0.5 1.22064 0.658035 0.93934 0.93934C0.658035 1.22064 0.5 1.60218 0.5 2V2.01C0.5 2.40782 0.658035 2.78936 0.93934 3.07066C1.22064 3.35197 1.60218 3.51 2 3.51H2.01C2.40782 3.51 2.78936 3.35197 3.07066 3.07066C3.35196 2.78936 3.51 2.40782 3.51 2.01V2ZM9.01 0.5C9.40782 0.5 9.78936 0.658035 10.0707 0.93934C10.352 1.22064 10.51 1.60218 10.51 2V2.01C10.51 2.40782 10.352 2.78936 10.0707 3.07066C9.78936 3.35197 9.40782 3.51 9.01 3.51H9C8.60218 3.51 8.22064 3.35197 7.93934 3.07066C7.65804 2.78936 7.5 2.40782 7.5 2.01V2C7.5 1.60218 7.65804 1.22064 7.93934 0.93934C8.22064 0.658035 8.60218 0.5 9 0.5H9.01ZM16.01 0.5C16.4078 0.5 16.7894 0.658035 17.0707 0.93934C17.352 1.22064 17.51 1.60218 17.51 2V2.01C17.51 2.40782 17.352 2.78936 17.0707 3.07066C16.7894 3.35197 16.4078 3.51 16.01 3.51H16C15.6022 3.51 15.2206 3.35197 14.9393 3.07066C14.658 2.78936 14.5 2.40782 14.5 2.01V2C14.5 1.60218 14.658 1.22064 14.9393 0.93934C15.2206 0.658035 15.6022 0.5 16 0.5H16.01Z" fill="white"/>
</svg>
