<svg width="21" height="20" viewBox="0 0 21 20" fill="none" xmlns="http://www.w3.org/2000/svg">
<path d="M14.8182 1.66669H12.6516C9.9849 1.66669 8.31824 3.33335 8.31824 6.00002V9.37502H13.5266C13.8682 9.37502 14.1516 9.65835 14.1516 10C14.1516 10.3417 13.8682 10.625 13.5266 10.625H8.31824V14C8.31824 16.6667 9.9849 18.3334 12.6516 18.3334H14.8099C17.4766 18.3334 19.1432 16.6667 19.1432 14V6.00002C19.1516 3.33335 17.4849 1.66669 14.8182 1.66669Z" fill="#FB2F2F"/>
<path d="M4.61819 9.37497L6.34319 7.64997C6.46819 7.52497 6.52652 7.36664 6.52652 7.2083C6.52652 7.04997 6.46819 6.8833 6.34319 6.76664C6.10152 6.52497 5.70152 6.52497 5.45986 6.76664L2.66819 9.55831C2.42652 9.79997 2.42652 10.2 2.66819 10.4416L5.45986 13.2333C5.70152 13.475 6.10152 13.475 6.34319 13.2333C6.58486 12.9916 6.58486 12.5916 6.34319 12.35L4.61819 10.625H8.31819V9.37497H4.61819Z" fill="#FB2F2F"/>
</svg>
