<svg width="205" height="48" viewBox="0 0 205 48" fill="none" xmlns="http://www.w3.org/2000/svg">
<path d="M56.9588 7.01895L52.6954 6.74473L51.0898 2.79834L49.4842 6.74473L45.2256 7.01895L48.4919 9.73243L47.4201 13.8486L51.0898 11.5792L54.7596 13.8486L53.6877 9.73243L56.9588 7.01895Z" fill="#FF0083"/>
<path fill-rule="evenodd" clip-rule="evenodd" d="M36.7579 28.8447H26.8498L31.6123 37.0497H39.5131C37.7892 34.7493 36.7678 31.9135 36.7579 28.8447ZM62.5549 37.0497H70.5398L75.3023 28.8447H65.3102C65.3003 31.9135 64.2789 34.7493 62.5549 37.0497ZM36.9421 26.5496C37.4854 23.2673 39.1978 20.3684 41.6478 18.2751H21L25.6902 26.5496H36.9421ZM60.4202 18.2751C62.8703 20.3684 64.5827 23.2673 65.126 26.5496H76.4022L81.068 18.2751H60.4202Z" fill="#FF0083"/>
<path d="M51.0343 20.7484C55.3536 20.7484 58.8747 24.1454 59.0373 28.3983L62.8264 30.7104C62.9396 30.0533 62.9983 29.3784 62.9983 28.6892C62.9983 22.1234 57.6423 16.8008 51.0334 16.8008C44.4245 16.8008 39.0693 22.1243 39.0693 28.6901C39.0693 30.1116 39.3204 31.4757 39.7817 32.7383C40.2379 33.9907 40.9001 35.1442 41.7274 36.1607L45.1292 34.0846L49.052 31.6905V40.7984H52.9127V31.6169L56.9461 34.0787L60.3471 36.1548C61.1735 35.1383 61.8349 33.984 62.2902 32.7307L58.8143 30.6089L54.8192 28.1708L51.0428 25.8664L51.0343 25.8714L47.2664 28.1708L43.2568 30.6173C43.1045 30.0051 43.0236 29.3666 43.0236 28.7078C43.0236 24.312 46.6102 20.7492 51.0334 20.7492L51.0343 20.7484ZM51.0343 30.4702L51.0419 30.4744L51.0343 30.4795V30.4693V30.4702Z" fill="#FF0083"/>
<path d="M91.2263 24.8191V17.1621H88.123V14.4518H97.9021V17.1621H94.7988V24.8191H91.2263Z" fill="white"/>
<path d="M104.238 25.056C103.38 25.056 102.583 24.9227 101.846 24.6561C101.119 24.3896 100.489 24.0144 99.9537 23.5306C99.4188 23.0369 99 22.4593 98.6973 21.7977C98.4046 21.1362 98.2583 20.4154 98.2583 19.6354C98.2583 18.8455 98.4046 18.1248 98.6973 17.4731C99 16.8116 99.4188 16.2389 99.9537 15.7551C100.489 15.2614 101.119 14.8813 101.846 14.6147C102.583 14.3481 103.38 14.2148 104.238 14.2148C105.106 14.2148 105.903 14.3481 106.629 14.6147C107.356 14.8813 107.987 15.2614 108.522 15.7551C109.057 16.2389 109.47 16.8116 109.763 17.4731C110.066 18.1248 110.217 18.8455 110.217 19.6354C110.217 20.4154 110.066 21.1362 109.763 21.7977C109.47 22.4593 109.057 23.0369 108.522 23.5306C107.987 24.0144 107.356 24.3896 106.629 24.6561C105.903 24.9227 105.106 25.056 104.238 25.056ZM104.238 22.2272C104.571 22.2272 104.879 22.168 105.161 22.0495C105.454 21.931 105.706 21.7632 105.918 21.546C106.14 21.3189 106.312 21.0473 106.433 20.7314C106.554 20.4056 106.614 20.0402 106.614 19.6354C106.614 19.2306 106.554 18.8702 106.433 18.5543C106.312 18.2284 106.14 17.9569 105.918 17.7397C105.706 17.5126 105.454 17.3398 105.161 17.2213C104.879 17.1029 104.571 17.0436 104.238 17.0436C103.905 17.0436 103.592 17.1029 103.299 17.2213C103.017 17.3398 102.764 17.5126 102.542 17.7397C102.33 17.9569 102.164 18.2284 102.043 18.5543C101.922 18.8702 101.861 19.2306 101.861 19.6354C101.861 20.0402 101.922 20.4056 102.043 20.7314C102.164 21.0473 102.33 21.3189 102.542 21.546C102.764 21.7632 103.017 21.931 103.299 22.0495C103.592 22.168 103.905 22.2272 104.238 22.2272Z" fill="white"/>
<path d="M111.514 24.8191V14.4518H114.451L118.689 21.2201H117.145L121.263 14.4518H124.199L124.23 24.8191H120.975L120.945 19.2504H121.459L118.644 23.886H117.069L114.133 19.2504H114.768V24.8191H111.514Z" fill="white"/>
<path d="M125.957 24.8191V14.4518H129.529V24.8191H125.957Z" fill="white"/>
<path d="M134.637 24.8191L139.269 14.4518H142.781L147.413 24.8191H143.72L140.299 16.1106H141.691L138.27 24.8191H134.637ZM137.392 23.0122L138.3 20.4944H143.175L144.083 23.0122H137.392Z" fill="white"/>
<path d="M147.984 24.8191V14.4518H153.085C154.074 14.4518 154.927 14.6098 155.643 14.9257C156.37 15.2417 156.93 15.6959 157.324 16.2883C157.717 16.8708 157.914 17.562 157.914 18.3617C157.914 19.1615 157.717 19.8526 157.324 20.4352C156.93 21.0079 156.37 21.4472 155.643 21.7533C154.927 22.0594 154.074 22.2124 153.085 22.2124H149.967L151.556 20.7758V24.8191H147.984ZM154.326 24.8191L151.723 21.0424H155.507L158.141 24.8191H154.326ZM151.556 21.1609L149.967 19.5762H152.858C153.352 19.5762 153.716 19.4676 153.948 19.2504C154.19 19.0331 154.311 18.7369 154.311 18.3617C154.311 17.9865 154.19 17.6903 153.948 17.4731C153.716 17.2559 153.352 17.1473 152.858 17.1473H149.967L151.556 15.5626V21.1609Z" fill="white"/>
<path d="M159.263 24.8191V14.4518H162.2L166.438 21.2201H164.894L169.012 14.4518H171.948L171.979 24.8191H168.724L168.694 19.2504H169.208L166.393 23.886H164.819L161.882 19.2504H162.518V24.8191H159.263Z" fill="white"/>
<path d="M176.431 24.8191V20.2723L177.248 22.3605L172.434 14.4518H176.204L179.458 19.8576H177.263L180.548 14.4518H184L179.216 22.3605L180.003 20.2723V24.8191H176.431Z" fill="white"/>
<path d="M92.7587 34.3542C92.9947 34.3907 93.209 34.4849 93.4015 34.6368C93.6002 34.7887 93.7555 34.977 93.8673 35.2018C93.9853 35.4267 94.0443 35.6667 94.0443 35.9219C94.0443 36.2439 93.9604 36.5355 93.7927 36.7968C93.6251 37.052 93.3797 37.2556 93.0568 37.4075C92.7401 37.5533 92.3644 37.6262 91.9296 37.6262H89.5076V31.2737H91.8365C92.2774 31.2737 92.6531 31.3466 92.9637 31.4924C93.2742 31.6322 93.5071 31.8236 93.6623 32.0666C93.8176 32.3097 93.8952 32.5831 93.8952 32.8869C93.8952 33.2636 93.7896 33.5765 93.5785 33.8256C93.3735 34.0687 93.1003 34.2449 92.7587 34.3542ZM90.3553 34.017H91.7806C92.178 34.017 92.4855 33.9259 92.7028 33.7436C92.9202 33.5613 93.0289 33.3092 93.0289 32.9871C93.0289 32.6651 92.9202 32.4129 92.7028 32.2307C92.4855 32.0484 92.1718 31.9572 91.7619 31.9572H90.3553V34.017ZM91.8551 36.9426C92.2774 36.9426 92.6066 36.8454 92.8426 36.651C93.0785 36.4566 93.1965 36.1862 93.1965 35.8398C93.1965 35.4874 93.0723 35.211 92.8239 35.0105C92.5755 34.8039 92.2432 34.7006 91.8272 34.7006H90.3553V36.9426H91.8551Z" fill="white"/>
<path d="M98.9096 37.69C98.3072 37.69 97.7576 37.5533 97.2608 37.2799C96.7639 37.0004 96.3696 36.6145 96.0777 36.1224C95.792 35.6241 95.6492 35.0651 95.6492 34.4454C95.6492 33.8256 95.792 33.2697 96.0777 32.7775C96.3696 32.2793 96.7639 31.8934 97.2608 31.62C97.7576 31.3405 98.3072 31.2008 98.9096 31.2008C99.5182 31.2008 100.071 31.3405 100.568 31.62C101.065 31.8934 101.456 32.2762 101.742 32.7684C102.027 33.2606 102.17 33.8196 102.17 34.4454C102.17 35.0712 102.027 35.6302 101.742 36.1224C101.456 36.6145 101.065 37.0004 100.568 37.2799C100.071 37.5533 99.5182 37.69 98.9096 37.69ZM98.9096 36.97C99.363 36.97 99.7697 36.8667 100.13 36.6601C100.496 36.4535 100.782 36.1588 100.987 35.776C101.198 35.3932 101.304 34.9497 101.304 34.4454C101.304 33.935 101.198 33.4914 100.987 33.1147C100.782 32.7319 100.499 32.4373 100.139 32.2307C99.7791 32.0241 99.3692 31.9208 98.9096 31.9208C98.45 31.9208 98.0402 32.0241 97.68 32.2307C97.3198 32.4373 97.0341 32.7319 96.8229 33.1147C96.618 33.4914 96.5155 33.935 96.5155 34.4454C96.5155 34.9497 96.618 35.3932 96.8229 35.776C97.0341 36.1588 97.3198 36.4535 97.68 36.6601C98.0464 36.8667 98.4563 36.97 98.9096 36.97Z" fill="white"/>
<path d="M104.863 31.2737V35.293C104.863 35.8581 105.003 36.2773 105.283 36.5507C105.568 36.8242 105.963 36.9609 106.466 36.9609C106.963 36.9609 107.351 36.8242 107.63 36.5507C107.916 36.2773 108.059 35.8581 108.059 35.293V31.2737H108.906V35.2839C108.906 35.8125 108.798 36.2591 108.58 36.6236C108.363 36.9821 108.068 37.2495 107.695 37.4257C107.329 37.6019 106.916 37.69 106.456 37.69C105.997 37.69 105.581 37.6019 105.208 37.4257C104.842 37.2495 104.55 36.9821 104.333 36.6236C104.121 36.2591 104.016 35.8125 104.016 35.2839V31.2737H104.863Z" fill="white"/>
<path d="M116.171 37.6262H115.323L111.914 32.5679V37.6262H111.066V31.2646H111.914L115.323 36.3138V31.2646H116.171V37.6262Z" fill="white"/>
<path d="M122.357 31.2737V31.9481H120.588V37.6262H119.74V31.9481H117.961V31.2737H122.357Z" fill="white"/>
<path d="M128.692 31.2737L126.578 35.2292V37.6262H125.73V35.2292L123.606 31.2737H124.547L126.149 34.491L127.751 31.2737H128.692Z" fill="white"/>
<path d="M137.901 33.133C137.901 33.6616 137.715 34.1021 137.343 34.4545C136.976 34.8008 136.414 34.974 135.656 34.974H134.408V37.6262H133.56V31.2737H135.656C136.389 31.2737 136.945 31.4469 137.324 31.7932C137.709 32.1395 137.901 32.5861 137.901 33.133ZM135.656 34.2904C136.128 34.2904 136.476 34.1902 136.7 33.9897C136.923 33.7892 137.035 33.5036 137.035 33.133C137.035 32.3491 136.576 31.9572 135.656 31.9572H134.408V34.2904H135.656Z" fill="white"/>
<path d="M143.119 37.6262L141.573 35.0287H140.548V37.6262H139.7V31.2737H141.796C142.287 31.2737 142.7 31.3557 143.035 31.5198C143.377 31.6838 143.631 31.9056 143.799 32.1851C143.967 32.4646 144.051 32.7836 144.051 33.1421C144.051 33.5795 143.92 33.9654 143.659 34.2996C143.405 34.6337 143.02 34.8555 142.504 34.9649L144.135 37.6262H143.119ZM140.548 34.3634H141.796C142.256 34.3634 142.601 34.254 142.83 34.0352C143.06 33.8104 143.175 33.5127 143.175 33.1421C143.175 32.7654 143.06 32.4737 142.83 32.2671C142.607 32.0605 142.262 31.9572 141.796 31.9572H140.548V34.3634Z" fill="white"/>
<path d="M149.057 37.69C148.454 37.69 147.905 37.5533 147.408 37.2799C146.911 37.0004 146.517 36.6145 146.225 36.1224C145.939 35.6241 145.796 35.0651 145.796 34.4454C145.796 33.8256 145.939 33.2697 146.225 32.7775C146.517 32.2793 146.911 31.8934 147.408 31.62C147.905 31.3405 148.454 31.2008 149.057 31.2008C149.665 31.2008 150.218 31.3405 150.715 31.62C151.212 31.8934 151.603 32.2762 151.889 32.7684C152.174 33.2606 152.317 33.8196 152.317 34.4454C152.317 35.0712 152.174 35.6302 151.889 36.1224C151.603 36.6145 151.212 37.0004 150.715 37.2799C150.218 37.5533 149.665 37.69 149.057 37.69ZM149.057 36.97C149.51 36.97 149.917 36.8667 150.277 36.6601C150.644 36.4535 150.929 36.1588 151.134 35.776C151.345 35.3932 151.451 34.9497 151.451 34.4454C151.451 33.935 151.345 33.4914 151.134 33.1147C150.929 32.7319 150.647 32.4373 150.287 32.2307C149.926 32.0241 149.516 31.9208 149.057 31.9208C148.597 31.9208 148.187 32.0241 147.827 32.2307C147.467 32.4373 147.181 32.7319 146.97 33.1147C146.765 33.4914 146.663 33.935 146.663 34.4454C146.663 34.9497 146.765 35.3932 146.97 35.776C147.181 36.1588 147.467 36.4535 147.827 36.6601C148.194 36.8667 148.604 36.97 149.057 36.97Z" fill="white"/>
<path d="M159.1 33.1147C158.92 32.7441 158.659 32.4585 158.318 32.258C157.976 32.0514 157.579 31.9481 157.125 31.9481C156.672 31.9481 156.262 32.0514 155.896 32.258C155.536 32.4585 155.25 32.7502 155.039 33.133C154.834 33.5097 154.731 33.9471 154.731 34.4454C154.731 34.9436 154.834 35.3811 155.039 35.7578C155.25 36.1345 155.536 36.4262 155.896 36.6328C156.262 36.8333 156.672 36.9335 157.125 36.9335C157.759 36.9335 158.281 36.7482 158.69 36.3776C159.1 36.0069 159.339 35.5057 159.408 34.8737H156.818V34.1993H160.311V34.8373C160.262 35.3598 160.094 35.8398 159.808 36.2773C159.523 36.7087 159.147 37.052 158.681 37.3072C158.215 37.5563 157.697 37.6809 157.125 37.6809C156.523 37.6809 155.973 37.5442 155.477 37.2707C154.98 36.9912 154.585 36.6054 154.293 36.1133C154.008 35.6211 153.865 35.0651 153.865 34.4454C153.865 33.8256 154.008 33.2697 154.293 32.7775C154.585 32.2793 154.98 31.8934 155.477 31.62C155.973 31.3405 156.523 31.2008 157.125 31.2008C157.815 31.2008 158.423 31.3679 158.951 31.7021C159.485 32.0362 159.873 32.5071 160.116 33.1147H159.1Z" fill="white"/>
<path d="M165.596 37.6262L164.05 35.0287H163.025V37.6262H162.177V31.2737H164.273C164.764 31.2737 165.177 31.3557 165.512 31.5198C165.854 31.6838 166.109 31.9056 166.276 32.1851C166.444 32.4646 166.528 32.7836 166.528 33.1421C166.528 33.5795 166.397 33.9654 166.137 34.2996C165.882 34.6337 165.497 34.8555 164.981 34.9649L166.612 37.6262H165.596ZM163.025 34.3634H164.273C164.733 34.3634 165.078 34.254 165.307 34.0352C165.537 33.8104 165.652 33.5127 165.652 33.1421C165.652 32.7654 165.537 32.4737 165.307 32.2671C165.084 32.0605 164.739 31.9572 164.273 31.9572H163.025V34.3634Z" fill="white"/>
<path d="M172.428 36.2135H169.596L169.075 37.6262H168.18L170.528 31.3101H171.506L173.844 37.6262H172.95L172.428 36.2135ZM172.186 35.5391L171.012 32.3309L169.839 35.5391H172.186Z" fill="white"/>
<path d="M182.199 31.3193V37.6262H181.351V32.9233L179.208 37.6262H178.612L176.46 32.9142V37.6262H175.613V31.3193H176.526L178.91 36.5325L181.295 31.3193H182.199Z" fill="white"/>
</svg>
