<svg width="24" height="24" viewBox="0 0 24 24" fill="none" xmlns="http://www.w3.org/2000/svg">
<path d="M4.75 10.8752C4.19772 10.8752 3.75 11.323 3.75 11.8752C3.75 12.4275 4.19772 12.8752 4.75 12.8752H18.75C19.3023 12.8752 19.75 12.4275 19.75 11.8752C19.75 11.323 19.3023 10.8752 18.75 10.8752H4.75Z" fill="white"/>
<path d="M4.75 16.8752C4.19772 16.8752 3.75 17.323 3.75 17.8753C3.75 18.4275 4.19772 18.8753 4.75 18.8753H18.75C19.3023 18.8753 19.75 18.4275 19.75 17.8753C19.75 17.323 19.3023 16.8752 18.75 16.8752H4.75Z" fill="white"/>
<path d="M4.75 4.5C4.19772 4.5 3.75 4.94772 3.75 5.5C3.75 6.05228 4.19772 6.5 4.75 6.5H18.75C19.3023 6.5 19.75 6.05228 19.75 5.5C19.75 4.94772 19.3023 4.5 18.75 4.5H4.75Z" fill="white"/>
</svg>
