<svg width="56" height="56" viewBox="0 0 56 56" fill="none" xmlns="http://www.w3.org/2000/svg">
<circle cx="28" cy="28" r="27.5" fill="url(#paint0_linear_189_18294)" stroke="url(#paint1_linear_189_18294)"/>
<path fill-rule="evenodd" clip-rule="evenodd" d="M20.7642 41.4319L25.4076 42.6639V41.0529L25.7866 40.6738H28.4399V42.5691V43.8957H25.5971L22.0908 42.3795L20.7642 41.4319Z" fill="#CDBDB2"/>
<path fill-rule="evenodd" clip-rule="evenodd" d="M35.9263 41.4319L31.3777 42.6639V41.0529L30.9987 40.6738H28.3453V42.5691V43.8957H31.1882L34.6943 42.3795L35.9263 41.4319Z" fill="#CDBDB2"/>
<path fill-rule="evenodd" clip-rule="evenodd" d="M25.7865 37.9348L25.4075 41.0619L25.8812 40.6828H30.8088L31.3774 41.0619L30.9983 37.9348L30.2402 37.4609L26.4498 37.5558L25.7865 37.9348Z" fill="#393939"/>
<path fill-rule="evenodd" clip-rule="evenodd" d="M23.2285 16.8027L25.5028 22.1094L26.5453 37.5556H30.2409L31.378 22.1094L33.4628 16.8027H23.2285Z" fill="#F89C35"/>
<path fill-rule="evenodd" clip-rule="evenodd" d="M13.2781 28.4503L10.6248 36.1259L17.2581 35.7468H21.5223V32.4303L21.3327 25.6074L20.3851 26.3655L13.2781 28.4503Z" fill="#F89D35"/>
<path fill-rule="evenodd" clip-rule="evenodd" d="M18.2998 29.3125L26.0703 29.502L25.2175 33.482L21.5217 32.5344L18.2998 29.3125Z" fill="#D87C30"/>
<path fill-rule="evenodd" clip-rule="evenodd" d="M18.2998 29.4082L21.5217 32.4406V35.4729L18.2998 29.4082Z" fill="#EA8D3A"/>
<path fill-rule="evenodd" clip-rule="evenodd" d="M21.5229 32.5254L25.3134 33.473L26.5454 37.5478L25.6925 38.0216L21.5229 35.5578V32.5254Z" fill="#F89D35"/>
<path fill-rule="evenodd" clip-rule="evenodd" d="M21.5223 35.5605L20.7642 41.4358L25.7866 37.9297L21.5223 35.5605Z" fill="#EB8F35"/>
<path fill-rule="evenodd" clip-rule="evenodd" d="M26.0714 29.4902L26.5453 37.5451L25.1238 33.4229L26.0714 29.4902Z" fill="#EA8E3A"/>
<path fill-rule="evenodd" clip-rule="evenodd" d="M17.1633 35.6554L21.5224 35.5605L20.7643 41.4358L17.1633 35.6554Z" fill="#D87C30"/>
<path fill-rule="evenodd" clip-rule="evenodd" d="M12.7095 43.9953L20.7642 41.4366L17.1632 35.6562L10.6248 36.13L12.7095 43.9953Z" fill="#EB8F35"/>
<path fill-rule="evenodd" clip-rule="evenodd" d="M25.5017 22.1074L21.427 25.5188L18.2998 29.3093L26.0703 29.5937L25.5017 22.1074Z" fill="#E8821E"/>
<path fill-rule="evenodd" clip-rule="evenodd" d="M20.7642 41.4319L25.7866 37.9258L25.4076 40.9582V42.6639L21.9961 42.0005L20.7642 41.4319Z" fill="#DFCEC3"/>
<path fill-rule="evenodd" clip-rule="evenodd" d="M35.9263 41.4319L30.9987 37.9258L31.3777 40.9582V42.6639L34.7891 42.0005L35.9263 41.4319Z" fill="#DFCEC3"/>
<path fill-rule="evenodd" clip-rule="evenodd" d="M23.9856 31.1992L25.0281 33.3788L21.3323 32.4312L23.9856 31.1992Z" fill="#393939"/>
<path fill-rule="evenodd" clip-rule="evenodd" d="M12.614 12.3457L25.5016 22.1061L23.3222 16.7994L12.614 12.3457Z" fill="#E88F35"/>
<path fill-rule="evenodd" clip-rule="evenodd" d="M12.6142 12.3457L10.9084 17.5576L11.8561 23.2433L11.1927 23.6223L12.1403 24.4752L11.3823 25.1385L12.4246 26.0861L11.7613 26.6547L13.2775 28.5499L20.3846 26.3704C23.8592 23.5908 25.5649 22.1693 25.5017 22.1062C25.4386 22.043 21.1427 18.7895 12.6142 12.3457Z" fill="#8E5A30"/>
<path fill-rule="evenodd" clip-rule="evenodd" d="M43.4122 28.4503L46.0655 36.1259L39.4322 35.7468H35.168V32.4303L35.3575 25.6074L36.3051 26.3655L43.4122 28.4503Z" fill="#F89D35"/>
<path fill-rule="evenodd" clip-rule="evenodd" d="M38.3905 29.3125L30.62 29.502L31.4728 33.482L35.1686 32.5344L38.3905 29.3125Z" fill="#D87C30"/>
<path fill-rule="evenodd" clip-rule="evenodd" d="M38.3905 29.4082L35.1686 32.4406V35.473L38.3905 29.4082Z" fill="#EA8D3A"/>
<path fill-rule="evenodd" clip-rule="evenodd" d="M35.1673 32.5254L31.3768 33.473L30.1449 37.5478L30.9978 38.0216L35.1673 35.5578V32.5254Z" fill="#F89D35"/>
<path fill-rule="evenodd" clip-rule="evenodd" d="M35.168 35.5605L35.9261 41.4358L30.9985 38.0244L35.168 35.5605Z" fill="#EB8F35"/>
<path fill-rule="evenodd" clip-rule="evenodd" d="M30.6189 29.4902L30.145 37.5451L31.5665 33.4229L30.6189 29.4902Z" fill="#EA8E3A"/>
<path fill-rule="evenodd" clip-rule="evenodd" d="M39.5269 35.6554L35.1679 35.5605L35.926 41.4358L39.5269 35.6554Z" fill="#D87C30"/>
<path fill-rule="evenodd" clip-rule="evenodd" d="M43.9807 43.9953L35.9261 41.4366L39.527 35.6562L46.0655 36.13L43.9807 43.9953Z" fill="#EB8F35"/>
<path fill-rule="evenodd" clip-rule="evenodd" d="M31.1886 22.1074L35.2632 25.5188L38.3905 29.3093L30.62 29.5937L31.1886 22.1074Z" fill="#E8821E"/>
<path fill-rule="evenodd" clip-rule="evenodd" d="M32.7046 31.1992L31.6622 33.3788L35.358 32.4312L32.7046 31.1992Z" fill="#393939"/>
<path fill-rule="evenodd" clip-rule="evenodd" d="M44.0762 12.3457L31.1886 22.1061L33.3681 16.7994L44.0762 12.3457Z" fill="#E88F35"/>
<path fill-rule="evenodd" clip-rule="evenodd" d="M44.0761 12.3457L45.7818 17.5576L44.8342 23.2433L45.4975 23.6223L44.5499 24.4752L45.308 25.1385L44.2656 26.0861L44.929 26.6547L43.4128 28.5499L36.3056 26.3704C32.831 23.5908 31.1253 22.1693 31.1885 22.1062C31.2517 22.043 35.5476 18.7895 44.0761 12.3457Z" fill="#8E5A30"/>
<defs>
<linearGradient id="paint0_linear_189_18294" x1="28" y1="0" x2="28" y2="56" gradientUnits="userSpaceOnUse">
<stop stop-color="#232631"/>
<stop offset="1" stop-color="#1D202B" stop-opacity="0.4"/>
</linearGradient>
<linearGradient id="paint1_linear_189_18294" x1="28" y1="0" x2="28" y2="56" gradientUnits="userSpaceOnUse">
<stop stop-color="#343742"/>
<stop offset="1" stop-color="#343742" stop-opacity="0"/>
</linearGradient>
</defs>
</svg>
