<svg width="153" height="39" viewBox="0 0 153 39" fill="none" xmlns="http://www.w3.org/2000/svg">
<path d="M33.7526 4.91254L29.7508 4.65275L28.2437 0.914062L26.7366 4.65275L22.7393 4.91254L25.8052 7.4832L24.7991 11.3827L28.2437 9.23275L31.6884 11.3827L30.6823 7.4832L33.7526 4.91254Z" fill="#FF0083"/>
<path fill-rule="evenodd" clip-rule="evenodd" d="M14.7911 25.5894H5.49088L9.96119 33.3626H17.3774C15.7592 31.1833 14.8004 28.4967 14.7911 25.5894ZM39.0056 33.3626H46.5006L50.9709 25.5894H41.5918C41.5825 28.4967 40.6237 31.1833 39.0056 33.3626ZM14.964 23.4151C15.474 20.3056 17.0814 17.5593 19.3811 15.5762H0L4.4025 23.4151H14.964ZM37.0018 15.5762C39.3015 17.5593 40.9089 20.3056 41.4189 23.4151H52.0033L56.3828 15.5762H37.0018Z" fill="#FF0083"/>
<path d="M28.1918 17.9193C32.2462 17.9193 35.5512 21.1375 35.7038 25.1666L39.2605 27.3569C39.3668 26.7344 39.4219 26.0951 39.4219 25.4422C39.4219 19.222 34.3944 14.1794 28.191 14.1794C21.9876 14.1794 16.9609 19.2228 16.9609 25.443C16.9609 26.7897 17.1966 28.082 17.6296 29.2781C18.0578 30.4646 18.6794 31.5574 19.4559 32.5204L22.6491 30.5536L26.3312 28.2855V36.914H29.955V28.2158L33.7409 30.548L36.9333 32.5148C37.7091 31.5518 38.3298 30.4582 38.7572 29.2709L35.4945 27.2608L31.7445 24.9511L28.1998 22.7679L28.1918 22.7727L24.6551 24.9511L20.8915 27.2688C20.7485 26.6888 20.6726 26.0839 20.6726 25.4598C20.6726 21.2954 24.0392 17.9201 28.191 17.9201L28.1918 17.9193ZM28.1918 27.1294L28.199 27.1334L28.1918 27.1382V27.1286V27.1294Z" fill="#FF0083"/>
<path d="M65.9182 21.7756V14.5216H63.0054V11.954H72.1845V14.5216H69.2716V21.7756H65.9182Z" fill="white"/>
<path d="M78.1314 22.0001C77.3262 22.0001 76.5779 21.8738 75.8864 21.6212C75.2043 21.3687 74.6123 21.0132 74.1102 20.5549C73.6082 20.0872 73.2151 19.54 72.9309 18.9133C72.6562 18.2866 72.5188 17.6037 72.5188 16.8648C72.5188 16.1165 72.6562 15.4336 72.9309 14.8163C73.2151 14.1896 73.6082 13.647 74.1102 13.1887C74.6123 12.721 75.2043 12.3609 75.8864 12.1083C76.5779 11.8558 77.3262 11.7295 78.1314 11.7295C78.9461 11.7295 79.6944 11.8558 80.3765 12.1083C81.0585 12.3609 81.6505 12.721 82.1526 13.1887C82.6546 13.647 83.043 14.1896 83.3177 14.8163C83.6019 15.4336 83.744 16.1165 83.744 16.8648C83.744 17.6037 83.6019 18.2866 83.3177 18.9133C83.043 19.54 82.6546 20.0872 82.1526 20.5549C81.6505 21.0132 81.0585 21.3687 80.3765 21.6212C79.6944 21.8738 78.9461 22.0001 78.1314 22.0001ZM78.1314 19.3202C78.444 19.3202 78.7329 19.2641 78.9982 19.1518C79.2729 19.0396 79.5097 18.8806 79.7086 18.6748C79.917 18.4596 80.0781 18.2024 80.1917 17.9031C80.3054 17.5944 80.3622 17.2483 80.3622 16.8648C80.3622 16.4813 80.3054 16.1399 80.1917 15.8405C80.0781 15.5319 79.917 15.2746 79.7086 15.0688C79.5097 14.8537 79.2729 14.69 78.9982 14.5778C78.7329 14.4655 78.444 14.4094 78.1314 14.4094C77.8188 14.4094 77.5252 14.4655 77.2504 14.5778C76.9852 14.69 76.7484 14.8537 76.54 15.0688C76.3411 15.2746 76.1848 15.5319 76.0711 15.8405C75.9574 16.1399 75.9006 16.4813 75.9006 16.8648C75.9006 17.2483 75.9574 17.5944 76.0711 17.9031C76.1848 18.2024 76.3411 18.4596 76.54 18.6748C76.7484 18.8806 76.9852 19.0396 77.2504 19.1518C77.5252 19.2641 77.8188 19.3202 78.1314 19.3202Z" fill="white"/>
<path d="M84.9611 21.7756V11.954H87.7177L91.6962 18.3661H90.2469L94.1118 11.954H96.8683L96.8968 21.7756H93.8418L93.8134 16.5H94.2965L91.6536 20.8916H90.1759L87.4193 16.5H88.0161V21.7756H84.9611Z" fill="white"/>
<path d="M98.518 21.7756V11.954H101.871V21.7756H98.518Z" fill="white"/>
<path d="M106.666 21.7756L111.014 11.954H114.31L118.658 21.7756H115.191L111.98 13.5254H113.287L110.076 21.7756H106.666ZM109.252 20.0638L110.104 17.6786H114.68L115.532 20.0638H109.252Z" fill="white"/>
<path d="M119.193 21.7756V11.954H123.982C124.91 11.954 125.711 12.1036 126.383 12.403C127.065 12.7023 127.591 13.1326 127.96 13.6938C128.33 14.2457 128.515 14.9005 128.515 15.6581C128.515 16.4158 128.33 17.0706 127.96 17.6225C127.591 18.165 127.065 18.5812 126.383 18.8712C125.711 19.1612 124.91 19.3062 123.982 19.3062H121.055L122.547 17.9452V21.7756H119.193ZM125.147 21.7756L122.703 18.1977H126.255L128.728 21.7756H125.147ZM122.547 18.31L121.055 16.8087H123.769C124.233 16.8087 124.574 16.7058 124.792 16.5C125.019 16.2942 125.133 16.0136 125.133 15.6581C125.133 15.3027 125.019 15.0221 124.792 14.8163C124.574 14.6105 124.233 14.5076 123.769 14.5076H121.055L122.547 13.0063V18.31Z" fill="white"/>
<path d="M129.781 21.7756V11.954H132.537L136.516 18.3661H135.067L138.932 11.954H141.688L141.717 21.7756H138.662L138.633 16.5H139.116L136.473 20.8916H134.996L132.239 16.5H132.836V21.7756H129.781Z" fill="white"/>
<path d="M145.895 21.7756V17.4681L146.663 19.4465L142.144 11.954H145.682L148.737 17.0752H146.677L149.76 11.954H153L148.51 19.4465L149.249 17.4681V21.7756H145.895Z" fill="white"/>
<path d="M67.3566 30.8089C67.5782 30.8435 67.7793 30.9327 67.96 31.0766C68.1465 31.2205 68.2923 31.3989 68.3972 31.6119C68.5079 31.8249 68.5633 32.0523 68.5633 32.294C68.5633 32.5991 68.4846 32.8754 68.3272 33.1229C68.1698 33.3647 67.9396 33.5575 67.6364 33.7014C67.3391 33.8396 66.9865 33.9087 66.5784 33.9087H64.305V27.8905H66.491C66.9049 27.8905 67.2575 27.9596 67.549 28.0977C67.8405 28.2301 68.0591 28.4114 68.2048 28.6417C68.3505 28.8719 68.4234 29.131 68.4234 29.4188C68.4234 29.7757 68.3243 30.0721 68.1261 30.3081C67.9337 30.5384 67.6773 30.7053 67.3566 30.8089ZM65.1007 30.4894H66.4385C66.8116 30.4894 67.1001 30.4031 67.3042 30.2304C67.5082 30.0577 67.6102 29.8188 67.6102 29.5138C67.6102 29.2087 67.5082 28.9698 67.3042 28.7971C67.1001 28.6244 66.8058 28.5381 66.421 28.5381H65.1007V30.4894ZM66.5085 33.2611C66.9049 33.2611 67.2138 33.169 67.4353 32.9848C67.6569 32.8006 67.7676 32.5444 67.7676 32.2163C67.7676 31.8825 67.651 31.6206 67.4178 31.4306C67.1847 31.2349 66.8728 31.137 66.4822 31.137H65.1007V33.2611H66.5085Z" fill="white"/>
<path d="M73.1302 33.9691C72.5647 33.9691 72.0488 33.8396 71.5825 33.5806C71.1161 33.3158 70.746 32.9502 70.472 32.484C70.2038 32.012 70.0698 31.4824 70.0698 30.8953C70.0698 30.3081 70.2038 29.7814 70.472 29.3152C70.746 28.8432 71.1161 28.4776 71.5825 28.2186C72.0488 27.9538 72.5647 27.8214 73.1302 27.8214C73.7015 27.8214 74.2203 27.9538 74.6866 28.2186C75.153 28.4776 75.5202 28.8403 75.7884 29.3065C76.0565 29.7728 76.1906 30.3024 76.1906 30.8953C76.1906 31.4882 76.0565 32.0177 75.7884 32.484C75.5202 32.9502 75.153 33.3158 74.6866 33.5806C74.2203 33.8396 73.7015 33.9691 73.1302 33.9691ZM73.1302 33.287C73.5557 33.287 73.9376 33.1891 74.2757 32.9934C74.6196 32.7977 74.8877 32.5185 75.0801 32.1559C75.2783 31.7932 75.3774 31.373 75.3774 30.8953C75.3774 30.4117 75.2783 29.9915 75.0801 29.6346C74.8877 29.272 74.6225 28.9928 74.2844 28.7971C73.9463 28.6014 73.5616 28.5035 73.1302 28.5035C72.6988 28.5035 72.3141 28.6014 71.976 28.7971C71.6379 28.9928 71.3697 29.272 71.1715 29.6346C70.9791 29.9915 70.883 30.4117 70.883 30.8953C70.883 31.373 70.9791 31.7932 71.1715 32.1559C71.3697 32.5185 71.6379 32.7977 71.976 32.9934C72.3199 33.1891 72.7046 33.287 73.1302 33.287Z" fill="white"/>
<path d="M78.7188 27.8905V31.6983C78.7188 32.2336 78.85 32.6308 79.1123 32.8898C79.3804 33.1488 79.7506 33.2784 80.2228 33.2784C80.6891 33.2784 81.0535 33.1488 81.3158 32.8898C81.5839 32.6308 81.718 32.2336 81.718 31.6983V27.8905H82.5137V31.6896C82.5137 32.1904 82.4117 32.6135 82.2077 32.9589C82.0037 33.2985 81.7268 33.5518 81.377 33.7187C81.0331 33.8856 80.6454 33.9691 80.214 33.9691C79.7827 33.9691 79.3921 33.8856 79.0423 33.7187C78.6984 33.5518 78.4244 33.2985 78.2204 32.9589C78.0222 32.6135 77.9231 32.1904 77.9231 31.6896V27.8905H78.7188Z" fill="white"/>
<path d="M89.3324 33.9087H88.5367L85.3364 29.1166V33.9087H84.5406V27.8819H85.3364L88.5367 32.6653V27.8819H89.3324V33.9087Z" fill="white"/>
<path d="M95.1395 27.8905V28.5294H93.4782V33.9087H92.6825V28.5294H91.0123V27.8905H95.1395Z" fill="white"/>
<path d="M101.086 27.8905L99.1007 31.6378V33.9087H98.305V31.6378L96.3114 27.8905H97.1945L98.6985 30.9384L100.202 27.8905H101.086Z" fill="white"/>
<path d="M109.73 29.6519C109.73 30.1527 109.555 30.57 109.205 30.9039C108.861 31.232 108.334 31.3961 107.623 31.3961H106.451V33.9087H105.655V27.8905H107.623C108.31 27.8905 108.832 28.0546 109.188 28.3827C109.549 28.7108 109.73 29.1339 109.73 29.6519ZM107.623 30.7485C108.066 30.7485 108.392 30.6535 108.602 30.4635C108.812 30.2736 108.917 30.003 108.917 29.6519C108.917 28.9094 108.485 28.5381 107.623 28.5381H106.451V30.7485H107.623Z" fill="white"/>
<path d="M114.627 33.9087L113.176 31.4479H112.214V33.9087H111.418V27.8905H113.386C113.846 27.8905 114.234 27.9682 114.549 28.1236C114.869 28.2791 115.108 28.4892 115.266 28.7539C115.423 29.0187 115.502 29.3209 115.502 29.6605C115.502 30.075 115.379 30.4405 115.135 30.7571C114.896 31.0737 114.534 31.2838 114.05 31.3874L115.581 33.9087H114.627ZM112.214 30.8176H113.386C113.817 30.8176 114.141 30.7139 114.356 30.5067C114.572 30.2937 114.68 30.0117 114.68 29.6605C114.68 29.3037 114.572 29.0274 114.356 28.8316C114.147 28.6359 113.823 28.5381 113.386 28.5381H112.214V30.8176Z" fill="white"/>
<path d="M120.201 33.9691C119.635 33.9691 119.12 33.8396 118.653 33.5806C118.187 33.3158 117.817 32.9502 117.543 32.484C117.275 32.012 117.141 31.4824 117.141 30.8953C117.141 30.3081 117.275 29.7814 117.543 29.3152C117.817 28.8432 118.187 28.4776 118.653 28.2186C119.12 27.9538 119.635 27.8214 120.201 27.8214C120.772 27.8214 121.291 27.9538 121.757 28.2186C122.224 28.4776 122.591 28.8403 122.859 29.3065C123.127 29.7728 123.261 30.3024 123.261 30.8953C123.261 31.4882 123.127 32.0177 122.859 32.484C122.591 32.9502 122.224 33.3158 121.757 33.5806C121.291 33.8396 120.772 33.9691 120.201 33.9691ZM120.201 33.287C120.626 33.287 121.008 33.1891 121.346 32.9934C121.69 32.7977 121.958 32.5185 122.151 32.1559C122.349 31.7932 122.448 31.373 122.448 30.8953C122.448 30.4117 122.349 29.9915 122.151 29.6346C121.958 29.272 121.693 28.9928 121.355 28.7971C121.017 28.6014 120.632 28.5035 120.201 28.5035C119.77 28.5035 119.385 28.6014 119.047 28.7971C118.709 28.9928 118.44 29.272 118.242 29.6346C118.05 29.9915 117.954 30.4117 117.954 30.8953C117.954 31.373 118.05 31.7932 118.242 32.1559C118.44 32.5185 118.709 32.7977 119.047 32.9934C119.391 33.1891 119.775 33.287 120.201 33.287Z" fill="white"/>
<path d="M129.628 29.6346C129.459 29.2835 129.214 29.013 128.894 28.823C128.573 28.6273 128.2 28.5294 127.774 28.5294C127.349 28.5294 126.964 28.6273 126.62 28.823C126.282 29.013 126.014 29.2893 125.816 29.6519C125.623 30.0088 125.527 30.4233 125.527 30.8953C125.527 31.3673 125.623 31.7817 125.816 32.1386C126.014 32.4955 126.282 32.7718 126.62 32.9675C126.964 33.1575 127.349 33.2524 127.774 33.2524C128.369 33.2524 128.859 33.0769 129.243 32.7258C129.628 32.3746 129.853 31.8997 129.917 31.3011H127.486V30.6621H130.765V31.2665C130.718 31.7616 130.561 32.2163 130.293 32.6308C130.025 33.0395 129.672 33.3647 129.235 33.6065C128.798 33.8425 128.311 33.9605 127.774 33.9605C127.209 33.9605 126.693 33.831 126.227 33.5719C125.76 33.3071 125.39 32.9416 125.116 32.4754C124.848 32.0091 124.714 31.4824 124.714 30.8953C124.714 30.3081 124.848 29.7814 125.116 29.3152C125.39 28.8432 125.76 28.4776 126.227 28.2186C126.693 27.9538 127.209 27.8214 127.774 27.8214C128.422 27.8214 128.993 27.9797 129.488 28.2963C129.99 28.6129 130.354 29.059 130.581 29.6346H129.628Z" fill="white"/>
<path d="M135.726 33.9087L134.274 31.4479H133.312V33.9087H132.517V27.8905H134.484C134.944 27.8905 135.332 27.9682 135.647 28.1236C135.968 28.2791 136.207 28.4892 136.364 28.7539C136.521 29.0187 136.6 29.3209 136.6 29.6605C136.6 30.075 136.478 30.4405 136.233 30.7571C135.994 31.0737 135.632 31.2838 135.149 31.3874L136.679 33.9087H135.726ZM133.312 30.8176H134.484C134.915 30.8176 135.239 30.7139 135.455 30.5067C135.67 30.2937 135.778 30.0117 135.778 29.6605C135.778 29.3037 135.67 29.0274 135.455 28.8316C135.245 28.6359 134.921 28.5381 134.484 28.5381H133.312V30.8176Z" fill="white"/>
<path d="M142.138 32.5703H139.48L138.991 33.9087H138.151L140.355 27.925H141.273L143.468 33.9087H142.628L142.138 32.5703ZM141.911 31.9314L140.809 28.8921L139.708 31.9314H141.911Z" fill="white"/>
<path d="M151.31 27.9337V33.9087H150.514V29.4533L148.503 33.9087H147.943L145.923 29.4447V33.9087H145.127V27.9337H145.984L148.223 32.8725L150.461 27.9337H151.31Z" fill="white"/>
</svg>
