<svg width="49" height="48" viewBox="0 0 49 48" fill="none" xmlns="http://www.w3.org/2000/svg">
<g filter="url(#filter0_d_56_2772)">
<rect x="4.44666" y="2" width="40" height="40" rx="20" fill="url(#paint0_linear_56_2772)" fill-opacity="0.2" shape-rendering="crispEdges"/>
<path d="M24.7768 12C22.799 12 20.8656 12.5865 19.2211 13.6853C17.5766 14.7841 16.2948 16.3459 15.5379 18.1732C14.7811 20.0005 14.583 22.0112 14.9689 23.951C15.3547 25.8908 16.3072 27.6727 17.7057 29.0712C19.1042 30.4697 20.8861 31.4222 22.8259 31.808C24.7657 32.1939 26.7764 31.9958 28.6037 31.2389C30.431 30.4821 31.9928 29.2003 33.0916 27.5558C34.1904 25.9113 34.7769 23.9779 34.7769 22.0001C34.7769 20.6868 34.5182 19.3865 34.0157 18.1732C33.5131 16.9599 32.7765 15.8575 31.8479 14.929C30.9193 14.0004 29.8169 13.2638 28.6037 12.7612C27.3904 12.2587 26.09 12 24.7768 12ZM30.4569 21.5401L28.3268 23.7201L28.8268 26.8201C28.8615 27.0086 28.8413 27.203 28.7686 27.3803C28.6959 27.5576 28.5738 27.7102 28.4168 27.8201C28.2626 27.9271 28.0815 27.9885 27.894 27.9973C27.7066 28.0062 27.5204 27.9621 27.3568 27.8701L24.7768 26.4201L22.1768 27.8501C22.0314 27.9358 21.8656 27.9807 21.6968 27.9801C21.4895 27.9817 21.2868 27.9188 21.1168 27.8001C20.9598 27.6902 20.8377 27.5376 20.7651 27.3603C20.6924 27.183 20.6721 26.9886 20.7068 26.8001L21.2168 23.7001L19.0768 21.5401C18.9474 21.4082 18.8571 21.2431 18.8158 21.0631C18.7745 20.8831 18.7839 20.6951 18.843 20.5201C18.902 20.3451 19.0084 20.1898 19.1502 20.0715C19.2921 19.9533 19.464 19.8766 19.6468 19.8501L22.5568 19.4001L23.8668 16.62C23.9412 16.439 24.067 16.2837 24.2288 16.1735C24.3906 16.0633 24.5811 16.003 24.7768 16C24.967 15.9987 25.1536 16.0516 25.3148 16.1525C25.476 16.2535 25.605 16.3983 25.6868 16.57L26.9868 19.4001L29.8969 19.8501C30.079 19.8773 30.25 19.9542 30.3912 20.0724C30.5323 20.1907 30.6381 20.3456 30.6969 20.5201C30.7551 20.6956 30.7635 20.8839 30.7212 21.064C30.6788 21.2441 30.5873 21.4089 30.4569 21.5401Z" fill="#04C453"/>
<rect x="4.94666" y="2.5" width="39" height="39" rx="19.5" stroke="url(#paint1_linear_56_2772)" shape-rendering="crispEdges"/>
</g>
<defs>
<filter id="filter0_d_56_2772" x="0.446655" y="0" width="48" height="48" filterUnits="userSpaceOnUse" color-interpolation-filters="sRGB">
<feFlood flood-opacity="0" result="BackgroundImageFix"/>
<feColorMatrix in="SourceAlpha" type="matrix" values="0 0 0 0 0 0 0 0 0 0 0 0 0 0 0 0 0 0 127 0" result="hardAlpha"/>
<feOffset dy="2"/>
<feGaussianBlur stdDeviation="2"/>
<feComposite in2="hardAlpha" operator="out"/>
<feColorMatrix type="matrix" values="0 0 0 0 0.0156863 0 0 0 0 0.768627 0 0 0 0 0.32549 0 0 0 1 0"/>
<feBlend mode="normal" in2="BackgroundImageFix" result="effect1_dropShadow_56_2772"/>
<feBlend mode="normal" in="SourceGraphic" in2="effect1_dropShadow_56_2772" result="shape"/>
</filter>
<linearGradient id="paint0_linear_56_2772" x1="24.4467" y1="2" x2="24.4467" y2="42" gradientUnits="userSpaceOnUse">
<stop stop-color="#282630"/>
<stop offset="1" stop-color="#0F0E13"/>
</linearGradient>
<linearGradient id="paint1_linear_56_2772" x1="24.4467" y1="2" x2="24.4467" y2="42" gradientUnits="userSpaceOnUse">
<stop stop-color="#393D45"/>
<stop offset="1" stop-color="#393D45" stop-opacity="0"/>
</linearGradient>
</defs>
</svg>
