<svg width="49" height="48" viewBox="0 0 49 48" fill="none" xmlns="http://www.w3.org/2000/svg">
<g filter="url(#filter0_d_56_2781)">
<rect x="4.89331" y="2" width="40" height="40" rx="20" fill="url(#paint0_linear_56_2781)" fill-opacity="0.2" shape-rendering="crispEdges"/>
<path d="M26.2471 17.9519H16.7737H15.8451C15.4883 17.9519 15.1981 18.2421 15.1981 18.599V21.1905C15.1981 21.5474 15.4883 21.8376 15.8451 21.8376H16.7737H22.894C23.4506 20.1399 24.671 18.7448 26.2471 17.9519Z" fill="#FF0083"/>
<path d="M16.7737 22.1611C16.4168 22.1611 16.1266 22.4513 16.1266 22.8082V25.3996C16.1266 25.7564 16.4168 26.0466 16.7737 26.0466H22.9178C22.6897 25.3748 22.5604 24.6577 22.5604 23.9097C22.5604 23.3039 22.6487 22.7195 22.8008 22.1611H16.7737Z" fill="#FF0083"/>
<path d="M16.7737 13.7429C16.4168 13.7429 16.1266 14.0331 16.1266 14.39V16.9813C16.1266 17.3382 16.4168 17.6284 16.7737 17.6284H27.0063C27.4849 17.4583 27.9857 17.3364 28.507 17.2798C28.555 17.1903 28.5858 17.0905 28.5858 16.9813V14.39C28.5858 14.0331 28.2957 13.7429 27.9388 13.7429H16.7737Z" fill="#FF0083"/>
<path d="M35.5788 23.9097C35.5788 20.4097 32.7313 17.5622 29.2313 17.5622C25.7314 17.5622 22.8839 20.4097 22.8839 23.9097C22.8839 27.4096 25.7314 30.2571 29.2313 30.2571C32.7313 30.2571 35.5788 27.4096 35.5788 23.9097ZM24.2392 23.9097C24.2392 21.1571 26.4786 18.9176 29.2313 18.9176C31.984 18.9176 34.2234 21.1571 34.2234 23.9097C34.2234 26.6623 31.984 28.9017 29.2313 28.9017C26.4786 28.9017 24.2392 26.6623 24.2392 23.9097Z" fill="#FF0083"/>
<path d="M33.8999 23.9097C33.8999 21.3354 31.8057 19.2412 29.2313 19.2412C26.657 19.2412 24.5627 21.3354 24.5627 23.9097C24.5627 26.4839 26.657 28.5782 29.2313 28.5782C31.8057 28.5782 33.8999 26.4839 33.8999 23.9097ZM27.808 26.9166C27.6353 27.0079 27.4292 26.9931 27.2706 26.8777C27.1123 26.7627 27.0344 26.5714 27.0676 26.3785L27.3227 24.8908C27.3331 24.8299 27.3131 24.7682 27.269 24.7252L26.1878 23.6714C26.0477 23.5349 25.9982 23.3344 26.0588 23.1483C26.1193 22.9621 26.2772 22.829 26.4709 22.8009L27.9649 22.5839C28.0257 22.5749 28.0783 22.5366 28.1056 22.4815L28.7737 21.1278C28.8603 20.9523 29.0356 20.8432 29.2313 20.8432C29.4271 20.8432 29.6024 20.9522 29.689 21.1278L30.3572 22.4815C30.3844 22.5368 30.437 22.5749 30.498 22.5839L31.9918 22.8009C32.1856 22.829 32.3436 22.9622 32.4041 23.1483C32.4644 23.3346 32.415 23.5349 32.2747 23.6715L31.1937 24.7252C31.1496 24.7682 31.1295 24.8299 31.14 24.8908L31.3951 26.3785C31.4283 26.5714 31.3504 26.7627 31.1921 26.8777C31.1025 26.9428 30.9979 26.9758 30.8926 26.9758C30.8114 26.9758 30.7299 26.9563 30.6547 26.9166L29.3182 26.2141C29.2639 26.1857 29.1989 26.1857 29.1443 26.2141L27.808 26.9166Z" fill="#FF0083"/>
<path d="M27.0102 30.2557C27.0559 30.2557 27.1002 30.2502 27.1434 30.2412C25.2692 29.6215 23.7632 28.1934 23.0364 26.3702H16.7737H15.8451C15.4883 26.3702 15.1981 26.6604 15.1981 27.0172V29.6086C15.1981 29.9655 15.4883 30.2557 15.8451 30.2557H27.0102Z" fill="#FF0083"/>
<path d="M30.805 26.6304C30.8693 26.664 30.9429 26.6586 31.0018 26.6161C31.0608 26.5733 31.0886 26.5049 31.0763 26.4332L30.8211 24.9454C30.7927 24.7799 30.8475 24.6108 30.9677 24.4936L32.0489 23.4398C32.101 23.3891 32.1187 23.3175 32.0963 23.2483C32.0737 23.1791 32.0173 23.1316 31.9453 23.121L30.4513 22.9039C30.2848 22.8796 30.1412 22.7752 30.067 22.6245L29.3989 21.271C29.3344 21.1405 29.1281 21.1405 29.0637 21.271L28.3956 22.6246C28.3212 22.7753 28.1776 22.8798 28.0114 22.9039L26.5173 23.121C26.4453 23.1316 26.3889 23.1791 26.3664 23.2483C26.344 23.3173 26.3615 23.3891 26.4137 23.4398L27.4948 24.4936C27.6151 24.6108 27.6699 24.7799 27.6414 24.9454L27.3863 26.4332C27.374 26.5049 27.4018 26.5733 27.4607 26.6161C27.5195 26.6586 27.5928 26.664 27.6576 26.6304L28.9937 25.9278C29.0681 25.8887 29.1498 25.8691 29.2313 25.8691C29.3128 25.8691 29.3945 25.8887 29.4687 25.9278L30.805 26.6304Z" fill="#FF0083"/>
<rect x="5.39331" y="2.5" width="39" height="39" rx="19.5" stroke="url(#paint1_linear_56_2781)" shape-rendering="crispEdges"/>
</g>
<defs>
<filter id="filter0_d_56_2781" x="0.893311" y="0" width="48" height="48" filterUnits="userSpaceOnUse" color-interpolation-filters="sRGB">
<feFlood flood-opacity="0" result="BackgroundImageFix"/>
<feColorMatrix in="SourceAlpha" type="matrix" values="0 0 0 0 0 0 0 0 0 0 0 0 0 0 0 0 0 0 127 0" result="hardAlpha"/>
<feOffset dy="2"/>
<feGaussianBlur stdDeviation="2"/>
<feComposite in2="hardAlpha" operator="out"/>
<feColorMatrix type="matrix" values="0 0 0 0 0.996078 0 0 0 0 0 0 0 0 0 0.513726 0 0 0 1 0"/>
<feBlend mode="normal" in2="BackgroundImageFix" result="effect1_dropShadow_56_2781"/>
<feBlend mode="normal" in="SourceGraphic" in2="effect1_dropShadow_56_2781" result="shape"/>
</filter>
<linearGradient id="paint0_linear_56_2781" x1="24.8933" y1="2" x2="24.8933" y2="42" gradientUnits="userSpaceOnUse">
<stop stop-color="#282630"/>
<stop offset="1" stop-color="#0F0E13"/>
</linearGradient>
<linearGradient id="paint1_linear_56_2781" x1="24.8933" y1="2" x2="24.8933" y2="42" gradientUnits="userSpaceOnUse">
<stop stop-color="#393D45"/>
<stop offset="1" stop-color="#393D45" stop-opacity="0"/>
</linearGradient>
</defs>
</svg>
