<svg width="18" height="18" viewBox="0 0 18 18" fill="none" xmlns="http://www.w3.org/2000/svg">
<path d="M12.7774 0H5.23161C1.95397 0 0 1.953 0 5.229V12.762C0 16.047 1.95397 18 5.23161 18H12.7684C16.046 18 18 16.047 18 12.771V5.229C18.009 1.953 16.055 0 12.7774 0ZM5.8259 6.282L8.52725 3.582C8.59028 3.519 8.66232 3.474 8.74336 3.438C8.90544 3.366 9.09453 3.366 9.25661 3.438C9.33765 3.474 9.40969 3.519 9.47272 3.582L12.1741 6.282C12.4352 6.543 12.4352 6.975 12.1741 7.236C12.039 7.371 11.8679 7.434 11.6968 7.434C11.5257 7.434 11.3547 7.371 11.2196 7.236L9.67082 5.688V11.259C9.67082 11.628 9.36467 11.934 8.99548 11.934C8.6263 11.934 8.32015 11.628 8.32015 11.259V5.688L6.77137 7.236C6.51024 7.497 6.07803 7.497 5.8169 7.236C5.55577 6.975 5.56477 6.552 5.8259 6.282ZM14.6233 13.698C12.8134 14.301 10.9134 14.607 9.00449 14.607C7.09554 14.607 5.19559 14.301 3.38569 13.698C3.03451 13.581 2.84542 13.194 2.96248 12.843C3.07953 12.492 3.46673 12.294 3.8179 12.42C7.16757 13.536 10.8504 13.536 14.2001 12.42C14.5513 12.303 14.9384 12.492 15.0555 12.843C15.1636 13.203 14.9745 13.581 14.6233 13.698Z" fill="#81828A"/>
</svg>
