<svg width="147" height="146" viewBox="0 0 147 146" fill="none" xmlns="http://www.w3.org/2000/svg">
<g filter="url(#filter0_i_56_2805)">
<circle cx="73.34" cy="73" r="73" fill="#1A1C29"/>
</g>
<circle cx="73.34" cy="73" r="72.5" stroke="url(#paint0_linear_56_2805)"/>
<circle cx="73.3403" cy="73" r="48.3235" stroke="white" stroke-opacity="0.04" stroke-width="15"/>
<g filter="url(#filter1_d_56_2805)">
<path d="M90.4536 22.8376C101.219 26.5103 110.518 33.5492 116.975 42.9138C123.432 52.2784 126.705 63.472 126.31 74.84L119.416 74.6006C119.759 64.712 116.912 54.9753 111.296 46.8294C105.679 38.6836 97.5909 32.5608 88.2263 29.3661L90.4536 22.8376Z" fill="#FF8936"/>
</g>
<g filter="url(#filter2_d_56_2805)">
<path d="M122.893 73.0001C124.798 73.0001 126.353 74.546 126.23 76.4468C125.568 86.6031 121.993 96.3813 115.897 104.592C109.114 113.729 99.5715 120.44 88.6796 123.733C77.7877 127.026 66.125 126.727 55.4165 122.879C44.7081 119.031 35.5223 111.838 29.2178 102.366C22.9133 92.8929 19.8247 81.6427 20.409 70.2788C20.9932 58.9149 25.2192 48.0407 32.4619 39.2645C39.7046 30.4883 49.5795 24.276 60.6262 21.5463C70.5539 19.0932 80.9543 19.57 90.5787 22.8804C92.3799 23.4999 93.2054 25.532 92.47 27.2891C91.7347 29.0463 89.7172 29.8614 87.91 29.2594C79.6576 26.5105 70.7706 26.1451 62.2809 28.2429C52.6719 30.6172 44.0822 36.021 37.7821 43.6551C31.482 51.2891 27.806 60.7481 27.2978 70.633C26.7896 80.5179 29.4762 90.304 34.9602 98.5438C40.4442 106.784 48.4345 113.04 57.7493 116.387C67.0641 119.734 77.2089 119.995 86.6833 117.13C96.1576 114.266 104.459 108.428 110.358 100.481C115.571 93.459 118.665 85.1199 119.315 76.446C119.457 74.5465 120.988 73.0001 122.893 73.0001Z" fill="#04C453"/>
</g>
<path d="M57.4015 69.82H58.7615C59.1882 69.82 59.4882 69.7333 59.6615 69.56C59.8348 69.3867 59.9215 69.0933 59.9215 68.68V67.76C59.9215 67.3333 59.8348 67.02 59.6615 66.82C59.4882 66.62 59.1882 66.52 58.7615 66.52H57.4015C56.9748 66.52 56.6748 66.62 56.5015 66.82C56.3282 67.02 56.2415 67.3333 56.2415 67.76V68.68C56.2415 69.0933 56.3282 69.3867 56.5015 69.56C56.6748 69.7333 56.9748 69.82 57.4015 69.82ZM57.4015 64.54H58.7615C59.1882 64.54 59.4882 64.44 59.6615 64.24C59.8348 64.04 59.9215 63.7267 59.9215 63.3V62.46C59.9215 62.0467 59.8348 61.7533 59.6615 61.58C59.4882 61.4067 59.1882 61.32 58.7615 61.32H57.4015C56.9748 61.32 56.6748 61.4067 56.5015 61.58C56.3282 61.7533 56.2415 62.0467 56.2415 62.46V63.3C56.2415 63.7267 56.3282 64.04 56.5015 64.24C56.6748 64.44 56.9748 64.54 57.4015 64.54ZM59.1415 72H57.0215C55.9548 72 55.1348 71.74 54.5615 71.22C54.0015 70.6867 53.7215 69.9067 53.7215 68.88V67.96C53.7215 66.7333 54.1615 65.9267 55.0415 65.54C54.1615 65.18 53.7215 64.3667 53.7215 63.1V62.24C53.7215 61.2133 54.0015 60.44 54.5615 59.92C55.1348 59.4 55.9548 59.14 57.0215 59.14H59.1415C60.1948 59.14 61.0015 59.4 61.5615 59.92C62.1348 60.44 62.4215 61.2133 62.4215 62.24V63.1C62.4215 63.7267 62.3015 64.26 62.0615 64.7C61.8215 65.14 61.5082 65.42 61.1215 65.54C61.9882 65.8867 62.4215 66.7 62.4215 67.98V68.88C62.4215 69.9067 62.1348 70.6867 61.5615 71.22C61.0015 71.74 60.1948 72 59.1415 72ZM67.0814 72H65.2014C65.0814 72 64.9947 71.9667 64.9414 71.9C64.9014 71.82 64.9147 71.7133 64.9814 71.58L69.2014 61.46H64.5014C64.2214 61.46 64.0814 61.32 64.0814 61.04V59.56C64.0814 59.28 64.2214 59.14 64.5014 59.14H71.5014C71.7814 59.14 71.9214 59.28 71.9214 59.56V61.24C71.9214 61.5067 71.828 61.8667 71.6414 62.32L67.7614 71.62C67.6547 71.8733 67.428 72 67.0814 72ZM83.8546 67.3H83.3946C83.1013 67.3 82.9013 67.36 82.7946 67.48C82.688 67.5867 82.6346 67.78 82.6346 68.06V69.8C82.6346 70.0933 82.688 70.3 82.7946 70.42C82.9013 70.5267 83.1013 70.58 83.3946 70.58H83.8546C84.1346 70.58 84.328 70.52 84.4346 70.4C84.5546 70.28 84.6146 70.08 84.6146 69.8V68.06C84.6146 67.78 84.5613 67.5867 84.4546 67.48C84.348 67.36 84.148 67.3 83.8546 67.3ZM83.0146 65.88H84.1946C84.888 65.88 85.4146 66.06 85.7746 66.42C86.1346 66.78 86.3146 67.3 86.3146 67.98V69.9C86.3146 70.58 86.1346 71.1 85.7746 71.46C85.4146 71.82 84.888 72 84.1946 72H83.0146C82.3346 72 81.808 71.82 81.4346 71.46C81.0746 71.1 80.8946 70.58 80.8946 69.9V67.98C80.8946 67.3 81.0746 66.78 81.4346 66.42C81.808 66.06 82.3346 65.88 83.0146 65.88ZM76.4546 60.54H75.9946C75.7013 60.54 75.5013 60.6 75.3946 60.72C75.288 60.8267 75.2346 61.0267 75.2346 61.32V63.06C75.2346 63.34 75.288 63.54 75.3946 63.66C75.5013 63.7667 75.7013 63.82 75.9946 63.82H76.4546C76.748 63.82 76.948 63.7667 77.0546 63.66C77.1613 63.54 77.2146 63.34 77.2146 63.06V61.32C77.2146 61.04 77.1546 60.84 77.0346 60.72C76.928 60.6 76.7346 60.54 76.4546 60.54ZM75.6346 59.12H76.8146C77.508 59.12 78.0346 59.3 78.3946 59.66C78.7546 60.02 78.9346 60.54 78.9346 61.22V63.14C78.9346 63.82 78.7546 64.34 78.3946 64.7C78.0346 65.06 77.508 65.24 76.8146 65.24H75.6346C74.9546 65.24 74.428 65.06 74.0546 64.7C73.6946 64.34 73.5146 63.82 73.5146 63.14V61.22C73.5146 60.54 73.6946 60.02 74.0546 59.66C74.428 59.3 74.9546 59.12 75.6346 59.12ZM77.9346 72H76.8946C76.588 72 76.488 71.86 76.5946 71.58C77.0213 70.4867 77.8146 68.4867 78.9746 65.58C80.1346 62.66 80.928 60.6533 81.3546 59.56C81.4746 59.28 81.648 59.14 81.8746 59.14H82.9346C83.2413 59.14 83.3413 59.28 83.2346 59.56L78.4746 71.58C78.368 71.86 78.188 72 77.9346 72Z" fill="white"/>
<path d="M47.9594 90H46.4474C45.9274 90 45.5154 89.848 45.2114 89.544C44.9154 89.24 44.7674 88.824 44.7674 88.296V83.988C44.7674 83.46 44.9154 83.044 45.2114 82.74C45.5154 82.436 45.9274 82.284 46.4474 82.284H47.9594C48.4794 82.284 48.8874 82.436 49.1834 82.74C49.4874 83.044 49.6394 83.46 49.6394 83.988V84.576C49.6394 84.672 49.5954 84.72 49.5074 84.72H49.1714C49.0834 84.72 49.0394 84.672 49.0394 84.576V84.012C49.0394 83.628 48.9394 83.336 48.7394 83.136C48.5474 82.928 48.2674 82.824 47.8994 82.824H46.4954C46.1274 82.824 45.8474 82.928 45.6554 83.136C45.4634 83.344 45.3674 83.636 45.3674 84.012V88.272C45.3674 88.648 45.4634 88.94 45.6554 89.148C45.8474 89.356 46.1274 89.46 46.4954 89.46H47.8994C48.2674 89.46 48.5474 89.36 48.7394 89.16C48.9394 88.952 49.0394 88.656 49.0394 88.272V87.708C49.0394 87.612 49.0834 87.564 49.1714 87.564H49.5074C49.5954 87.564 49.6394 87.612 49.6394 87.708V88.296C49.6394 88.824 49.4874 89.24 49.1834 89.544C48.8874 89.848 48.4794 90 47.9594 90ZM53.8633 90H52.8313C52.3113 90 51.8993 89.848 51.5953 89.544C51.2993 89.24 51.1513 88.824 51.1513 88.296V85.584C51.1513 85.056 51.2993 84.64 51.5953 84.336C51.8993 84.032 52.3113 83.88 52.8313 83.88H53.8633C54.3833 83.88 54.7953 84.032 55.0993 84.336C55.4033 84.64 55.5553 85.056 55.5553 85.584V88.296C55.5553 88.824 55.4033 89.24 55.0993 89.544C54.7953 89.848 54.3833 90 53.8633 90ZM52.8793 89.46H53.8153C54.1833 89.46 54.4633 89.36 54.6553 89.16C54.8553 88.952 54.9553 88.66 54.9553 88.284V85.596C54.9553 85.22 54.8553 84.932 54.6553 84.732C54.4633 84.524 54.1833 84.42 53.8153 84.42H52.8793C52.5113 84.42 52.2313 84.524 52.0393 84.732C51.8473 84.932 51.7513 85.22 51.7513 85.596V88.284C51.7513 88.66 51.8473 88.952 52.0393 89.16C52.2313 89.36 52.5113 89.46 52.8793 89.46ZM57.6924 90H57.3444C57.2644 90 57.2244 89.952 57.2244 89.856V84.024C57.2244 83.928 57.2644 83.88 57.3444 83.88H57.6924C57.7804 83.88 57.8244 83.928 57.8244 84.024V84.504H57.8724C58.1044 84.088 58.5284 83.88 59.1444 83.88H59.6364C60.3404 83.88 60.8284 84.16 61.1004 84.72C61.2204 84.44 61.4244 84.232 61.7124 84.096C62.0004 83.952 62.2964 83.88 62.6004 83.88H63.0444C63.5644 83.88 63.9724 84.032 64.2684 84.336C64.5644 84.64 64.7124 85.056 64.7124 85.584V89.856C64.7124 89.952 64.6684 90 64.5804 90H64.2324C64.1444 90 64.1004 89.952 64.1004 89.856V85.608C64.1004 85.224 64.0044 84.932 63.8124 84.732C63.6204 84.524 63.3404 84.42 62.9724 84.42H62.5284C62.1444 84.42 61.8404 84.532 61.6164 84.756C61.3924 84.972 61.2804 85.268 61.2804 85.644V89.856C61.2804 89.952 61.2364 90 61.1484 90H60.8004C60.7124 90 60.6684 89.952 60.6684 89.856V85.608C60.6684 85.224 60.5724 84.932 60.3804 84.732C60.1884 84.524 59.9084 84.42 59.5404 84.42H59.0604C58.6764 84.42 58.3724 84.524 58.1484 84.732C57.9324 84.932 57.8244 85.22 57.8244 85.596V89.856C57.8244 89.952 57.7804 90 57.6924 90ZM66.9151 91.788H66.5671C66.4871 91.788 66.4471 91.744 66.4471 91.656V84.024C66.4471 83.928 66.4871 83.88 66.5671 83.88H66.9151C67.0031 83.88 67.0471 83.928 67.0471 84.024V84.504H67.0951C67.3191 84.088 67.7351 83.88 68.3431 83.88H69.1591C69.6711 83.88 70.0751 84.032 70.3711 84.336C70.6671 84.64 70.8151 85.056 70.8151 85.584V88.296C70.8151 88.824 70.6671 89.24 70.3711 89.544C70.0751 89.848 69.6711 90 69.1591 90H68.3431C67.7351 90 67.3191 89.792 67.0951 89.376H67.0471V91.656C67.0471 91.744 67.0031 91.788 66.9151 91.788ZM68.2831 89.46H69.0751C69.4431 89.46 69.7231 89.36 69.9151 89.16C70.1151 88.952 70.2151 88.656 70.2151 88.272V85.608C70.2151 85.224 70.1151 84.932 69.9151 84.732C69.7231 84.524 69.4431 84.42 69.0751 84.42H68.2831C67.8991 84.42 67.5951 84.524 67.3711 84.732C67.1551 84.932 67.0471 85.22 67.0471 85.596V88.284C67.0471 88.66 67.1551 88.952 67.3711 89.16C67.5951 89.36 67.8991 89.46 68.2831 89.46ZM73.0219 90H72.6739C72.5939 90 72.5539 89.952 72.5539 89.856V81.708C72.5539 81.612 72.5939 81.564 72.6739 81.564H73.0219C73.1099 81.564 73.1539 81.612 73.1539 81.708V89.856C73.1539 89.952 73.1099 90 73.0219 90ZM79.0815 90H76.5735C76.0535 90 75.6415 89.848 75.3375 89.544C75.0415 89.24 74.8935 88.824 74.8935 88.296V85.584C74.8935 85.056 75.0415 84.64 75.3375 84.336C75.6415 84.032 76.0535 83.88 76.5735 83.88H77.6055C78.1255 83.88 78.5375 84.032 78.8415 84.336C79.1455 84.64 79.2975 85.056 79.2975 85.584V87.108C79.2975 87.204 79.2495 87.252 79.1535 87.252H75.6015C75.5295 87.252 75.4935 87.288 75.4935 87.36V88.284C75.4935 88.66 75.5895 88.952 75.7815 89.16C75.9735 89.36 76.2535 89.46 76.6215 89.46H79.0815C79.1695 89.46 79.2135 89.504 79.2135 89.592V89.868C79.2135 89.956 79.1695 90 79.0815 90ZM75.6015 86.772H78.5895C78.6615 86.772 78.6975 86.736 78.6975 86.664V85.596C78.6975 85.22 78.6015 84.932 78.4095 84.732C78.2175 84.524 77.9375 84.42 77.5695 84.42H76.6215C76.2535 84.42 75.9735 84.524 75.7815 84.732C75.5895 84.932 75.4935 85.22 75.4935 85.596V86.664C75.4935 86.736 75.5295 86.772 75.6015 86.772ZM81.1837 84.42H80.4517C80.3637 84.42 80.3197 84.38 80.3197 84.3V84.012C80.3197 83.924 80.3637 83.88 80.4517 83.88H81.1837C81.2557 83.88 81.2917 83.844 81.2917 83.772V82.8C81.2917 82.704 81.3357 82.656 81.4237 82.656H81.7717C81.8597 82.656 81.9037 82.704 81.9037 82.8V83.772C81.9037 83.844 81.9397 83.88 82.0117 83.88H83.4397C83.5277 83.88 83.5717 83.924 83.5717 84.012V84.3C83.5717 84.38 83.5277 84.42 83.4397 84.42H82.0117C81.9397 84.42 81.9037 84.456 81.9037 84.528V88.308C81.9037 88.676 82.0077 88.96 82.2157 89.16C82.4237 89.36 82.7157 89.46 83.0917 89.46H83.5597C83.6477 89.46 83.6917 89.504 83.6917 89.592V89.868C83.6917 89.956 83.6477 90 83.5597 90H83.0437C82.5157 90 82.0917 89.852 81.7717 89.556C81.4517 89.26 81.2917 88.852 81.2917 88.332V84.528C81.2917 84.456 81.2557 84.42 81.1837 84.42ZM89.1479 90H86.6399C86.1199 90 85.7079 89.848 85.4039 89.544C85.1079 89.24 84.9599 88.824 84.9599 88.296V85.584C84.9599 85.056 85.1079 84.64 85.4039 84.336C85.7079 84.032 86.1199 83.88 86.6399 83.88H87.6719C88.1919 83.88 88.6039 84.032 88.9079 84.336C89.2119 84.64 89.3639 85.056 89.3639 85.584V87.108C89.3639 87.204 89.3159 87.252 89.2199 87.252H85.6679C85.5959 87.252 85.5599 87.288 85.5599 87.36V88.284C85.5599 88.66 85.6559 88.952 85.8479 89.16C86.0399 89.36 86.3199 89.46 86.6879 89.46H89.1479C89.2359 89.46 89.2799 89.504 89.2799 89.592V89.868C89.2799 89.956 89.2359 90 89.1479 90ZM85.6679 86.772H88.6559C88.7279 86.772 88.7639 86.736 88.7639 86.664V85.596C88.7639 85.22 88.6679 84.932 88.4759 84.732C88.2839 84.524 88.0039 84.42 87.6359 84.42H86.6879C86.3199 84.42 86.0399 84.524 85.8479 84.732C85.6559 84.932 85.5599 85.22 85.5599 85.596V86.664C85.5599 86.736 85.5959 86.772 85.6679 86.772ZM93.3261 90H92.5221C92.0101 90 91.6061 89.848 91.3101 89.544C91.0141 89.24 90.8661 88.824 90.8661 88.296V85.584C90.8661 85.056 91.0141 84.64 91.3101 84.336C91.6061 84.032 92.0101 83.88 92.5221 83.88H93.3261C93.9421 83.88 94.3621 84.088 94.5861 84.504H94.6341V81.708C94.6341 81.612 94.6741 81.564 94.7541 81.564H95.1021C95.1901 81.564 95.2341 81.612 95.2341 81.708V89.856C95.2341 89.952 95.1901 90 95.1021 90H94.7541C94.6741 90 94.6341 89.952 94.6341 89.856V89.376H94.5861C94.3621 89.792 93.9421 90 93.3261 90ZM94.6341 88.284V85.596C94.6341 85.22 94.5221 84.932 94.2981 84.732C94.0821 84.524 93.7821 84.42 93.3981 84.42H92.5941C92.2261 84.42 91.9461 84.524 91.7541 84.732C91.5621 84.94 91.4661 85.232 91.4661 85.608V88.272C91.4661 88.648 91.5621 88.94 91.7541 89.148C91.9461 89.356 92.2261 89.46 92.5941 89.46H93.3981C93.7821 89.46 94.0821 89.36 94.2981 89.16C94.5221 88.952 94.6341 88.66 94.6341 88.284Z" fill="#81828A"/>
<defs>
<filter id="filter0_i_56_2805" x="0.340027" y="0" width="146" height="150" filterUnits="userSpaceOnUse" color-interpolation-filters="sRGB">
<feFlood flood-opacity="0" result="BackgroundImageFix"/>
<feBlend mode="normal" in="SourceGraphic" in2="BackgroundImageFix" result="shape"/>
<feColorMatrix in="SourceAlpha" type="matrix" values="0 0 0 0 0 0 0 0 0 0 0 0 0 0 0 0 0 0 127 0" result="hardAlpha"/>
<feMorphology radius="6" operator="erode" in="SourceAlpha" result="effect1_innerShadow_56_2805"/>
<feOffset dy="4"/>
<feGaussianBlur stdDeviation="20"/>
<feComposite in2="hardAlpha" operator="arithmetic" k2="-1" k3="1"/>
<feColorMatrix type="matrix" values="0 0 0 0 0 0 0 0 0 0 0 0 0 0 0 0 0 0 0.3 0"/>
<feBlend mode="normal" in2="shape" result="effect1_innerShadow_56_2805"/>
</filter>
<filter id="filter1_d_56_2805" x="78.2263" y="12.8376" width="58.1154" height="72.0025" filterUnits="userSpaceOnUse" color-interpolation-filters="sRGB">
<feFlood flood-opacity="0" result="BackgroundImageFix"/>
<feColorMatrix in="SourceAlpha" type="matrix" values="0 0 0 0 0 0 0 0 0 0 0 0 0 0 0 0 0 0 127 0" result="hardAlpha"/>
<feOffset/>
<feGaussianBlur stdDeviation="5"/>
<feComposite in2="hardAlpha" operator="out"/>
<feColorMatrix type="matrix" values="0 0 0 0 1 0 0 0 0 0.537255 0 0 0 0 0.211765 0 0 0 1 0"/>
<feBlend mode="normal" in2="BackgroundImageFix" result="effect1_dropShadow_56_2805"/>
<feBlend mode="normal" in="SourceGraphic" in2="effect1_dropShadow_56_2805" result="shape"/>
</filter>
<filter id="filter2_d_56_2805" x="10.339" y="9.99876" width="125.897" height="126.003" filterUnits="userSpaceOnUse" color-interpolation-filters="sRGB">
<feFlood flood-opacity="0" result="BackgroundImageFix"/>
<feColorMatrix in="SourceAlpha" type="matrix" values="0 0 0 0 0 0 0 0 0 0 0 0 0 0 0 0 0 0 127 0" result="hardAlpha"/>
<feOffset/>
<feGaussianBlur stdDeviation="5"/>
<feComposite in2="hardAlpha" operator="out"/>
<feColorMatrix type="matrix" values="0 0 0 0 0.0156863 0 0 0 0 0.768627 0 0 0 0 0.32549 0 0 0 1 0"/>
<feBlend mode="normal" in2="BackgroundImageFix" result="effect1_dropShadow_56_2805"/>
<feBlend mode="normal" in="SourceGraphic" in2="effect1_dropShadow_56_2805" result="shape"/>
</filter>
<linearGradient id="paint0_linear_56_2805" x1="73.34" y1="0" x2="73.34" y2="146" gradientUnits="userSpaceOnUse">
<stop stop-color="#393D45"/>
<stop offset="1" stop-color="#393D45" stop-opacity="0"/>
</linearGradient>
</defs>
</svg>
