<svg width="57" height="56" viewBox="0 0 57 56" fill="none" xmlns="http://www.w3.org/2000/svg">
<path d="M28.5 0.5C43.6895 0.5 56 12.8105 56 28C56 43.1895 43.6895 55.5 28.5 55.5C13.3105 55.5 1 43.1895 1 28C1 12.8105 13.3105 0.5 28.5 0.5Z" fill="url(#paint0_linear_189_18335)" stroke="url(#paint1_linear_189_18335)"/>
<path d="M18.2957 21.6262C23.9285 16.1246 33.0722 16.1246 38.705 21.6262L39.3831 22.2933C39.6675 22.5668 39.6675 23.0152 39.3831 23.2887L37.0644 25.5527C36.9222 25.6949 36.6925 25.6949 36.5503 25.5527L35.6206 24.6449C31.6831 20.8059 25.3175 20.8059 21.38 24.6449L20.3847 25.6183C20.2425 25.7605 20.0128 25.7605 19.8707 25.6183L17.5519 23.3543C17.2675 23.0808 17.2675 22.6324 17.5519 22.359L18.2957 21.6262ZM43.5066 26.3074L45.5738 28.3199C45.8581 28.5933 45.8581 29.0418 45.5738 29.3152L36.266 38.4042C35.9816 38.6777 35.5222 38.6777 35.2488 38.4042L28.6425 31.9511C28.5769 31.8855 28.4566 31.8855 28.391 31.9511L21.7847 38.4042C21.5003 38.6777 21.041 38.6777 20.7675 38.4042L11.4269 29.3152C11.1425 29.0418 11.1425 28.5933 11.4269 28.3199L13.4941 26.3074C13.7785 26.034 14.2378 26.034 14.5113 26.3074L21.1175 32.7605C21.1831 32.8261 21.3035 32.8261 21.3691 32.7605L27.9753 26.3074C28.2597 26.034 28.7191 26.034 28.9925 26.3074L35.5988 32.7605C35.6644 32.8261 35.7847 32.8261 35.8503 32.7605L42.4566 26.3074C42.7628 26.034 43.2222 26.034 43.5066 26.3074Z" fill="#0270FF"/>
<defs>
<linearGradient id="paint0_linear_189_18335" x1="28.5" y1="0" x2="28.5" y2="56" gradientUnits="userSpaceOnUse">
<stop stop-color="#232631"/>
<stop offset="1" stop-color="#1D202B" stop-opacity="0.4"/>
</linearGradient>
<linearGradient id="paint1_linear_189_18335" x1="28.5" y1="0" x2="28.5" y2="56" gradientUnits="userSpaceOnUse">
<stop stop-color="#343742"/>
<stop offset="1" stop-color="#343742" stop-opacity="0"/>
</linearGradient>
</defs>
</svg>
