<svg width="18" height="18" viewBox="0 0 18 18" fill="none" xmlns="http://www.w3.org/2000/svg">
<g clip-path="url(#clip0_63_13875)">
<path d="M9 0.75C7.36831 0.75 5.77325 1.23385 4.41655 2.14038C3.05984 3.0469 2.00242 4.33537 1.378 5.84286C0.753575 7.35035 0.590197 9.00915 0.908525 10.6095C1.22685 12.2098 2.01259 13.6798 3.16637 14.8336C4.32016 15.9874 5.79017 16.7732 7.39051 17.0915C8.99085 17.4098 10.6497 17.2464 12.1571 16.622C13.6646 15.9976 14.9531 14.9402 15.8596 13.5835C16.7661 12.2268 17.25 10.6317 17.25 9C17.2474 6.81276 16.3774 4.71584 14.8308 3.16922C13.2842 1.6226 11.1872 0.75258 9 0.75ZM12.75 9.75H9.75V12.75C9.75 12.9489 9.67099 13.1397 9.53033 13.2803C9.38968 13.421 9.19892 13.5 9 13.5C8.80109 13.5 8.61033 13.421 8.46967 13.2803C8.32902 13.1397 8.25 12.9489 8.25 12.75V9.75H5.25C5.05109 9.75 4.86033 9.67098 4.71967 9.53033C4.57902 9.38968 4.5 9.19891 4.5 9C4.5 8.80109 4.57902 8.61032 4.71967 8.46967C4.86033 8.32902 5.05109 8.25 5.25 8.25H8.25V5.25C8.25 5.05109 8.32902 4.86032 8.46967 4.71967C8.61033 4.57902 8.80109 4.5 9 4.5C9.19892 4.5 9.38968 4.57902 9.53033 4.71967C9.67099 4.86032 9.75 5.05109 9.75 5.25V8.25H12.75C12.9489 8.25 13.1397 8.32902 13.2803 8.46967C13.421 8.61032 13.5 8.80109 13.5 9C13.5 9.19891 13.421 9.38968 13.2803 9.53033C13.1397 9.67098 12.9489 9.75 12.75 9.75Z" fill="white"/>
</g>
<defs>
<clipPath id="clip0_63_13875">
<rect width="18" height="18" fill="white"/>
</clipPath>
</defs>
</svg>
