<svg width="19" height="18" viewBox="0 0 19 18" fill="none" xmlns="http://www.w3.org/2000/svg">
<g clip-path="url(#clip0_463_44194)">
<path d="M9.5 0C4.52574 0 0.5 4.02539 0.5 9C0.5 13.9743 4.52539 18 9.5 18C14.4743 18 18.5 13.9746 18.5 9C18.5 4.02574 14.4746 0 9.5 0ZM7.35849 12.7965C7.35849 12.7965 4.24991 9.68667 4.02645 9.46364C3.52938 8.96657 3.52938 8.15769 4.02645 7.66104C4.52479 7.1627 5.33071 7.1627 5.82905 7.66104L7.84154 9.67352C8.09178 9.92377 8.49791 9.92204 8.74604 9.67054L13.1648 5.18804C13.6615 4.68418 14.4729 4.68077 14.9738 5.18168C15.467 5.67492 15.47 6.48042 14.9802 6.9775C10.1816 11.8461 9.27029 12.7961 9.27029 12.7961C8.74347 13.3229 7.88573 13.3233 7.35849 12.7965Z" fill="#FF0083"/>
</g>
<defs>
<clipPath id="clip0_463_44194">
<rect width="18" height="18" fill="white" transform="translate(0.5)"/>
</clipPath>
</defs>
</svg>
