<svg width="49" height="48" viewBox="0 0 49 48" fill="none" xmlns="http://www.w3.org/2000/svg">
<g filter="url(#filter0_d_75_6156)">
<rect x="4.6665" y="2" width="40" height="40" rx="20" fill="url(#paint0_linear_75_6156)" fill-opacity="0.2" shape-rendering="crispEdges"/>
<rect x="14" y="11" width="22" height="22" rx="11" fill="#FF0083"/>
<path fill-rule="evenodd" clip-rule="evenodd" d="M23.7569 15.0909C21.1569 15.5533 18.9898 17.5252 18.1896 20.1565C18.0437 20.6364 17.992 21.1535 18.001 22.0423C18.0156 23.476 18.3302 24.6365 18.9866 25.6788L19.3839 26.3094L21.5895 25.0046L23.7952 23.6999L23.8251 26.35L23.8551 29H24.9712H26.0874V26.3839C26.0874 24.5588 26.1245 23.7678 26.2102 23.7678C26.2776 23.7678 27.2664 24.3263 28.4075 25.0091C30.0108 25.9684 30.5226 26.2254 30.6608 26.1408C30.8461 26.0275 31.7551 24.3581 31.6702 24.287C31.6439 24.265 30.131 23.359 28.3084 22.2737L24.9945 20.3005L22.7602 21.6446C21.5313 22.3838 20.4632 22.9886 20.3865 22.9886C20.2815 22.9886 20.258 22.7197 20.2914 21.9032C20.3297 20.9702 20.3858 20.7119 20.6912 20.0637C22.1796 16.9041 26.3064 16.3498 28.6386 18.996C29.0867 19.5045 29.518 20.4331 29.6654 21.2071C29.7279 21.5347 29.7911 21.8112 29.8061 21.8217C29.821 21.8322 30.3112 22.1238 30.8955 22.4697L31.9577 23.0987L31.9926 22.1809C32.0404 20.9259 31.8626 20.1053 31.2868 18.9253C30.6884 17.6984 30.0301 16.939 28.9309 16.207C27.4745 15.2372 25.4228 14.7946 23.7569 15.0909Z" fill="#1F222D"/>
<rect x="5.1665" y="2.5" width="39" height="39" rx="19.5" stroke="url(#paint1_linear_75_6156)" shape-rendering="crispEdges"/>
</g>
<defs>
<filter id="filter0_d_75_6156" x="0.666504" y="0" width="48" height="48" filterUnits="userSpaceOnUse" color-interpolation-filters="sRGB">
<feFlood flood-opacity="0" result="BackgroundImageFix"/>
<feColorMatrix in="SourceAlpha" type="matrix" values="0 0 0 0 0 0 0 0 0 0 0 0 0 0 0 0 0 0 127 0" result="hardAlpha"/>
<feOffset dy="2"/>
<feGaussianBlur stdDeviation="2"/>
<feComposite in2="hardAlpha" operator="out"/>
<feColorMatrix type="matrix" values="0 0 0 0 1 0 0 0 0 0 0 0 0 0 0.513726 0 0 0 1 0"/>
<feBlend mode="normal" in2="BackgroundImageFix" result="effect1_dropShadow_75_6156"/>
<feBlend mode="normal" in="SourceGraphic" in2="effect1_dropShadow_75_6156" result="shape"/>
</filter>
<linearGradient id="paint0_linear_75_6156" x1="24.6665" y1="2" x2="24.6665" y2="42" gradientUnits="userSpaceOnUse">
<stop stop-color="#282630"/>
<stop offset="1" stop-color="#0F0E13"/>
</linearGradient>
<linearGradient id="paint1_linear_75_6156" x1="24.6665" y1="2" x2="24.6665" y2="42" gradientUnits="userSpaceOnUse">
<stop stop-color="#393D45"/>
<stop offset="1" stop-color="#393D45" stop-opacity="0"/>
</linearGradient>
</defs>
</svg>
