<svg width="50" height="44" viewBox="0 0 50 44" fill="none" xmlns="http://www.w3.org/2000/svg">
<g filter="url(#filter0_d_463_49849)">
<path d="M21.5 6.80198C23.6658 5.55155 26.3342 5.55155 28.5 6.80198L36.2224 11.2605C38.3882 12.511 39.7224 14.8218 39.7224 17.3227V26.2398C39.7224 28.7407 38.3882 31.0515 36.2224 32.302L28.5 36.7605C26.3342 38.011 23.6658 38.011 21.5 36.7605L13.7776 32.302C11.6118 31.0515 10.2776 28.7407 10.2776 26.2398V17.3227C10.2776 14.8218 11.6118 12.511 13.7776 11.2605L21.5 6.80198Z" fill="#181A25"/>
</g>
<path d="M21.7503 10.0638C23.7614 8.90273 26.2392 8.90273 28.2503 10.0638L33.523 13.108C35.5341 14.2691 36.773 16.4149 36.773 18.7372V24.8255C36.773 27.1477 35.5341 29.2935 33.523 30.4547L28.2503 33.4988C26.2392 34.6599 23.7614 34.6599 21.7503 33.4988L16.4777 30.4546C14.4666 29.2935 13.2277 27.1477 13.2277 24.8255V18.7372C13.2277 16.4149 14.4666 14.2691 16.4777 13.108L21.7503 10.0638Z" fill="url(#paint0_linear_463_49849)" stroke="url(#paint1_linear_463_49849)"/>
<path d="M26.3304 20.8645L27.6573 19.6877L31.2252 23.2688L31.1603 24.0773L30.3514 24.8859L26.3304 20.8645ZM27.4913 19.2372V19.5367L26.3304 20.5879L25.8876 20.6314L25.8599 20.1006L24.2919 18.5697L24.575 18.2737L21.748 15.4715L22.0485 15.1708L22.2067 15.2751L23.101 14.3164L23.4612 14.6764L22.7033 15.7639L23.549 16.6096L24.3828 16.4152L25.3622 17.3941L25.5927 17.3415L27.4913 19.2372ZM22.5388 15.6173L22.8753 14.9657L22.3577 15.4363L22.5388 15.6173ZM25.1147 17.6829L24.2472 16.8017L23.7728 16.9104L24.7885 17.9513L25.1147 17.6829ZM24.5651 22.4081V23.9694C24.5651 23.9694 26.451 24.4132 27.8862 22.7602L26.833 21.6288C26.833 21.6288 26.0738 22.6827 24.5651 22.4081ZM28.8948 24.1907C28.7316 24.3287 28.5683 24.1655 28.5683 24.1655L28.0511 23.5948C28.0141 23.504 27.9971 23.4063 28.0013 23.3083C28.0053 23.1821 28.0342 23.0578 28.0863 22.9428L27.9515 22.8088C27.8048 22.9835 27.8182 23.336 27.8135 23.5178C27.8088 23.6995 28.2152 24.1062 28.4497 24.3354C28.6841 24.5646 28.8822 24.4614 28.8822 24.4614L28.7762 25.8967L28.5354 26.0311C28.6632 26.1924 28.8295 26.3189 29.019 26.399C29.3475 26.5464 29.5116 26.32 29.5116 26.32L29.7552 25.0408L30.1604 24.9756L29.1325 23.9481C29.0629 24.0379 28.9832 24.1193 28.8948 24.1907ZM28.4378 23.8786C28.828 24.0426 28.985 23.8019 28.985 23.8019L28.7248 23.5213C28.7917 23.7952 28.4259 23.8778 28.4378 23.8786Z" fill="#0084FE"/>
<path d="M23.103 14.428L23.3584 14.6833L22.6392 15.7171L22.5997 15.7716L22.6463 15.8183L23.4924 16.6635L23.5233 16.6948L23.566 16.6845L24.3567 16.5003L25.3056 17.4488L25.3365 17.4796L25.3792 17.4697L25.5674 17.427L27.4114 19.2702V19.5017L26.296 20.5122L25.9616 20.545L25.9378 20.0965V20.0656L25.9157 20.0443L24.4042 18.5663L24.6335 18.3269L24.6869 18.2707L24.6315 18.2138L21.8607 15.4673L22.0584 15.2698L22.1612 15.3381L22.217 15.3753L22.2628 15.3263L23.1014 14.4276M22.559 15.7491L22.6088 15.6531L22.9452 15.001L23.1465 14.611L22.8215 14.9066L22.3039 15.3772L22.2427 15.433L22.3012 15.4914L22.4827 15.6728L22.559 15.7491ZM24.7833 18.0581L24.8391 18.0119L25.1645 17.7432L25.2309 17.6882L25.1704 17.627L24.3034 16.7457L24.2721 16.7145L24.2294 16.724L23.753 16.8327L23.6154 16.8639L23.7142 16.9647L24.7323 18.006L24.7833 18.0581ZM27.653 19.7969L31.1429 23.2994L31.0829 24.0427L30.3522 24.7738L26.4463 20.8679L27.6546 19.7946M26.8397 21.7475L27.7819 22.7596C27.4547 23.1333 27.0511 23.4324 26.5983 23.6367C26.1456 23.8411 25.6542 23.9458 25.1574 23.9439C24.9852 23.9452 24.8133 23.9319 24.6434 23.9044V22.5015C24.78 22.5223 24.918 22.5329 25.0561 22.5331C25.3918 22.537 25.7245 22.4691 26.0317 22.334C26.339 22.1988 26.6138 21.9995 26.8377 21.7495M27.9661 22.935L27.9922 22.9611C27.9482 23.0718 27.9242 23.1894 27.9214 23.3085C27.9214 23.51 27.974 23.6191 27.9799 23.6306L27.9847 23.64L27.9918 23.6479L28.5086 24.2186C28.5736 24.2816 28.6596 24.3186 28.7501 24.3225C28.821 24.3219 28.8893 24.2956 28.9423 24.2486C29.0107 24.1915 29.0749 24.1296 29.1344 24.0633L29.9908 24.9192L29.7386 24.9588L29.6836 24.9678L29.6733 25.022L29.4337 26.281C29.4068 26.3085 29.3745 26.3303 29.3389 26.3449C29.3033 26.3596 29.2651 26.3669 29.2266 26.3664C29.1644 26.3648 29.1033 26.3502 29.0471 26.3237C28.9001 26.2586 28.7671 26.1656 28.6556 26.0498L28.8138 25.9625L28.851 25.942L28.8541 25.8993L28.9601 24.464L28.9715 24.3221L28.8458 24.3873C28.8208 24.3977 28.7939 24.4028 28.7667 24.4023C28.6806 24.4023 28.5904 24.3585 28.5054 24.2755C27.9954 23.7772 27.891 23.5879 27.893 23.5167C27.893 23.4954 27.893 23.4721 27.893 23.4468C27.8949 23.3034 27.8981 23.0789 27.9649 22.9331M28.7897 23.7068L28.8767 23.8009C28.8231 23.8393 28.7584 23.8592 28.6924 23.8574H28.6655C28.7197 23.8198 28.7627 23.7682 28.7897 23.708M23.101 14.3142L22.2067 15.2729L22.0485 15.1686L21.748 15.4693L24.575 18.2715L24.2931 18.5695L25.8607 20.1024L25.8884 20.6331L26.3312 20.5897L27.4921 19.5385V19.2389L25.5943 17.3421L25.3638 17.3946L24.3844 16.4158L23.5506 16.6102L22.7045 15.7637L23.4612 14.6758L23.101 14.3158V14.3142ZM22.8764 14.9655L22.54 15.6171L22.3589 15.4361L22.8764 14.9655ZM24.7897 17.951L23.7724 16.9097L24.2468 16.8011L25.1143 17.6823L24.7897 17.951ZM27.6573 19.6875L26.3316 20.8643L30.3526 24.8856L31.1615 24.0771L31.2264 23.2686L27.6585 19.6875H27.6573ZM26.8345 21.6286C26.8345 21.6286 26.2395 22.4537 25.0554 22.4537C24.8904 22.4532 24.7258 22.4379 24.5635 22.4079V23.9692C24.7588 24.008 24.9575 24.0262 25.1566 24.0234C25.8287 24.0234 26.9532 23.8357 27.8878 22.7588L26.8345 21.6274V21.6286ZM27.9527 22.8086C27.806 22.9833 27.8194 23.3358 27.8147 23.5175C27.8099 23.6993 28.2164 24.106 28.4508 24.3352C28.5742 24.4557 28.6881 24.4845 28.7671 24.4845C28.807 24.4855 28.8466 24.4775 28.883 24.4612L28.777 25.8965L28.5362 26.0309C28.6641 26.1922 28.8305 26.3187 29.0202 26.3988C29.0865 26.4301 29.1587 26.4471 29.2321 26.4486C29.2856 26.4495 29.3386 26.4384 29.3872 26.416C29.4358 26.3936 29.4788 26.3606 29.5128 26.3194L29.7564 25.0402L30.1616 24.975L29.1337 23.9475C29.0642 24.0371 28.9846 24.1184 28.8964 24.1897C28.8577 24.2248 28.8075 24.2445 28.7553 24.2451C28.6861 24.2413 28.6205 24.2133 28.5698 24.166L28.0527 23.5954C28.0157 23.5046 27.9987 23.4069 28.0029 23.3089C28.0069 23.1826 28.0358 23.0584 28.0879 22.9433L27.9527 22.8086ZM28.7248 23.5199C28.7917 23.7938 28.4271 23.8756 28.4378 23.8756C28.5176 23.9113 28.6038 23.9307 28.6912 23.9329C28.7473 23.9356 28.8033 23.9249 28.8544 23.9016C28.9055 23.8782 28.9503 23.8431 28.985 23.7989L28.7248 23.5183V23.5199Z" fill="#0084FE"/>
<path d="M23.9719 19.9844C23.9719 19.9844 24.0044 20.4325 23.2891 21.1474L22.12 22.3159L21.9713 22.1658L23.284 20.8534C23.284 20.8534 23.3038 20.7285 23.1832 20.7526L21.8709 22.0638L21.6661 21.8599L22.9578 20.5689C23.3507 20.4901 23.7069 20.2848 23.9719 19.9844ZM24.1447 19.8228L24.0356 19.9314C24.0356 19.9314 24.07 20.4614 23.5062 21.0249L22.1694 22.3634L22.2619 22.4558L23.6537 21.0435C23.6537 21.0435 24.2756 20.5123 24.1447 19.8228ZM22.2778 22.7119C22.2997 22.6897 22.312 22.6597 22.312 22.6285C22.312 22.5973 22.2997 22.5673 22.2778 22.5451L21.5807 21.8496C21.5585 21.8277 21.5285 21.8153 21.4973 21.8153C21.466 21.8153 21.4361 21.8277 21.4139 21.8496C21.3919 21.8718 21.3796 21.9018 21.3796 21.933C21.3796 21.9642 21.3919 21.9942 21.4139 22.0164L22.1109 22.7131C22.1333 22.7349 22.1633 22.747 22.1946 22.7468C22.2258 22.7466 22.2557 22.734 22.2778 22.7119ZM19.5789 23.865L20.2641 24.5606L20.3578 24.4689C20.3578 24.4689 20.259 24.3088 20.4136 24.1365C20.5682 23.9642 20.7299 24.0089 20.7299 24.0089C20.7299 24.0089 20.665 23.8974 20.818 23.7263C20.971 23.5552 21.1343 23.5987 21.1343 23.5987C21.1343 23.5987 21.0786 23.4912 21.2189 23.3221C21.2556 23.2743 21.304 23.2368 21.3594 23.2132C21.4148 23.1896 21.4754 23.1807 21.5352 23.1873C21.5352 23.1873 21.4811 23.0707 21.6594 22.8818C21.8377 22.6929 21.9919 22.8135 21.9919 22.8135L22.0631 22.7423L21.3751 22.0547L19.5789 23.865ZM20.2368 24.7767C20.2474 24.7662 20.2557 24.7537 20.2614 24.74C20.2671 24.7263 20.2701 24.7116 20.2701 24.6967C20.2701 24.6818 20.2671 24.6671 20.2614 24.6534C20.2557 24.6396 20.2474 24.6272 20.2368 24.6167L19.5252 23.9054C19.504 23.8847 19.4756 23.8731 19.4461 23.8731C19.4165 23.8731 19.3881 23.8847 19.367 23.9054C19.3565 23.9158 19.3481 23.9283 19.3424 23.9421C19.3367 23.9558 19.3338 23.9705 19.3338 23.9854C19.3338 24.0002 19.3367 24.015 19.3424 24.0287C19.3481 24.0424 19.3565 24.0549 19.367 24.0654L20.0787 24.7767C20.0997 24.7975 20.1279 24.8093 20.1575 24.8095C20.1871 24.8098 20.2155 24.7984 20.2368 24.7779V24.7767ZM19.3729 24.5862L19.5584 24.7716L19.8588 24.6384L19.4979 24.2776L19.3729 24.5862ZM19.5425 24.8396C19.5282 24.8615 19.5091 24.88 19.4866 24.8935C19.4642 24.907 19.4389 24.9153 19.4128 24.9176C19.3866 24.92 19.3603 24.9164 19.3358 24.9072C19.3112 24.8979 19.2891 24.8832 19.2711 24.8641C19.253 24.8451 19.2396 24.8222 19.2316 24.7972C19.2237 24.7722 19.2216 24.7457 19.2254 24.7198C19.2292 24.6938 19.2388 24.6691 19.2535 24.6474C19.2683 24.6257 19.2877 24.6076 19.3105 24.5945L19.3646 24.461C19.3113 24.4671 19.2608 24.4881 19.2188 24.5215C19.1769 24.555 19.1452 24.5996 19.1275 24.6502C19.1097 24.7008 19.1065 24.7554 19.1183 24.8078C19.1302 24.8601 19.1565 24.908 19.1943 24.9461C19.2321 24.9842 19.2799 25.0108 19.3321 25.023C19.3844 25.0353 19.439 25.0325 19.4898 25.0151C19.5406 24.9977 19.5854 24.9664 19.6192 24.9247C19.653 24.8831 19.6744 24.8327 19.6809 24.7795L19.5425 24.8396Z" fill="#0084FE"/>
<path d="M23.8415 20.2239C23.7723 20.4147 23.6106 20.7143 23.233 21.0913L22.1208 22.2053L22.0836 22.1681L23.3409 20.9119L23.3591 20.8937L23.3631 20.868C23.3672 20.8426 23.3661 20.8166 23.3598 20.7916C23.3536 20.7666 23.3423 20.7431 23.3267 20.7226C23.3125 20.7062 23.2949 20.6932 23.275 20.6846C23.2552 20.676 23.2337 20.6719 23.212 20.6728C23.1974 20.6729 23.1829 20.6744 23.1685 20.6771L23.1448 20.6819L23.1278 20.6989L21.8717 21.9547L21.778 21.8611L22.9961 20.6435C23.3087 20.5767 23.5994 20.4324 23.8415 20.2239ZM21.4969 21.8931C21.5071 21.8932 21.5169 21.8974 21.5242 21.9046L22.2224 22.6005C22.2275 22.606 22.231 22.6129 22.2323 22.6203C22.2337 22.6277 22.2329 22.6354 22.23 22.6424C22.2271 22.6494 22.2223 22.6554 22.2161 22.6597C22.21 22.6641 22.2027 22.6665 22.1951 22.6669C22.1847 22.6668 22.1748 22.6627 22.1674 22.6554L21.4692 21.9595C21.4621 21.9521 21.4581 21.9423 21.4581 21.932C21.4581 21.9218 21.4621 21.9119 21.4692 21.9046C21.4766 21.8973 21.4865 21.8931 21.4969 21.8931ZM21.3719 22.1697L21.9041 22.702C21.891 22.7002 21.8778 22.6993 21.8646 22.6993C21.799 22.6993 21.6989 22.7222 21.5969 22.8305C21.4886 22.9455 21.4534 23.0427 21.4455 23.1114C21.3312 23.126 21.227 23.1844 21.1549 23.2742C21.0923 23.3417 21.0527 23.4272 21.0418 23.5185C20.9299 23.5333 20.8277 23.5897 20.7556 23.6765C20.6654 23.7773 20.6369 23.8646 20.6338 23.9299C20.5237 23.9457 20.4234 24.0021 20.3527 24.0879C20.3068 24.135 20.2741 24.1933 20.2579 24.257C20.2417 24.3206 20.2427 24.3875 20.2605 24.4507L19.69 23.865L21.3723 22.1685M19.4473 23.954C19.4518 23.9539 19.4563 23.9547 19.4605 23.9564C19.4647 23.9581 19.4686 23.9606 19.4718 23.9638L20.1835 24.6752C20.1866 24.6783 20.1891 24.6821 20.1908 24.6862C20.1925 24.6904 20.1934 24.6948 20.1933 24.6993C20.1934 24.7037 20.1926 24.7082 20.1909 24.7123C20.1892 24.7165 20.1866 24.7202 20.1835 24.7234C20.1803 24.7266 20.1765 24.7292 20.1723 24.7309C20.1682 24.7327 20.1637 24.7336 20.1591 24.7336C20.1546 24.7336 20.1501 24.7327 20.1459 24.7309C20.1418 24.7292 20.138 24.7266 20.1348 24.7234L19.4231 24.012C19.42 24.0089 19.4174 24.0051 19.4157 24.001C19.414 23.9969 19.4132 23.9924 19.4133 23.9879C19.4132 23.9835 19.4141 23.979 19.4157 23.9749C19.4174 23.9707 19.4199 23.967 19.4231 23.9638C19.4263 23.9606 19.43 23.9581 19.4342 23.9564C19.4383 23.9547 19.4428 23.9539 19.4473 23.954ZM19.5263 24.4179L19.7213 24.6131L19.5758 24.6775L19.4658 24.5673L19.5263 24.4179ZM24.1455 19.8228L24.0364 19.9314C24.0364 19.9314 24.0708 20.4614 23.507 21.0249L22.1702 22.3634L22.2627 22.4558L23.6544 21.0435C23.6544 21.0435 24.2756 20.5143 24.1455 19.8247V19.8228ZM23.9727 19.9844C23.7076 20.2849 23.3512 20.4902 22.9582 20.5689L21.6669 21.8599L21.8721 22.065L23.1843 20.7538C23.1936 20.7517 23.203 20.7506 23.2124 20.7506C23.3014 20.7506 23.2852 20.8546 23.2852 20.8546L21.9721 22.1658L22.1208 22.3148L23.2899 21.1462C24.0051 20.4313 23.9727 19.9832 23.9727 19.9832V19.9844ZM21.4981 21.8141C21.4668 21.8141 21.4368 21.8264 21.4146 21.8484C21.3927 21.8706 21.3804 21.9006 21.3804 21.9318C21.3804 21.963 21.3927 21.993 21.4146 22.0152L22.1117 22.7119C22.1338 22.7341 22.1638 22.7466 22.1951 22.7467C22.2184 22.7464 22.241 22.7394 22.2603 22.7263C22.2796 22.7133 22.2946 22.6949 22.3034 22.6735C22.3123 22.652 22.3147 22.6284 22.3103 22.6056C22.3059 22.5827 22.2948 22.5617 22.2785 22.5451L21.5815 21.8496C21.5593 21.8276 21.5293 21.8153 21.4981 21.8152V21.8141ZM21.3731 22.0575L19.5797 23.865L20.2649 24.5606L20.3586 24.4689C20.3586 24.4689 20.2598 24.3088 20.4144 24.1365C20.4464 24.0965 20.4867 24.064 20.5324 24.041C20.5782 24.018 20.6284 24.0052 20.6796 24.0034C20.6963 24.003 20.7129 24.0049 20.7291 24.0089C20.7291 24.0089 20.6642 23.8974 20.8172 23.7263C20.8496 23.6861 20.8904 23.6535 20.9367 23.6306C20.983 23.6078 21.0337 23.5953 21.0853 23.5939C21.1016 23.5937 21.118 23.5953 21.1339 23.5987C21.1339 23.5987 21.0782 23.4912 21.2185 23.3221C21.2516 23.2801 21.2936 23.246 21.3415 23.2223C21.3893 23.1986 21.4419 23.1858 21.4953 23.1849C21.5075 23.1848 21.5196 23.1856 21.5317 23.1873C21.5317 23.1873 21.4775 23.0707 21.6558 22.8818C21.6814 22.8503 21.7133 22.8246 21.7494 22.8063C21.7856 22.7879 21.8253 22.7775 21.8658 22.7755C21.9097 22.7758 21.9525 22.7896 21.9883 22.8151L22.0595 22.7439L21.3716 22.0563L21.3731 22.0575ZM19.4473 23.8753C19.4176 23.8755 19.3891 23.8875 19.3682 23.9085C19.3577 23.919 19.3493 23.9315 19.3436 23.9452C19.3379 23.9589 19.335 23.9737 19.335 23.9885C19.335 24.0034 19.3379 24.0181 19.3436 24.0319C19.3493 24.0456 19.3577 24.0581 19.3682 24.0686L20.0799 24.7799C20.09 24.792 20.1025 24.8019 20.1166 24.8089C20.1308 24.8159 20.1462 24.8199 20.162 24.8206C20.1778 24.8213 20.1935 24.8186 20.2082 24.8129C20.2229 24.8071 20.2362 24.7983 20.2473 24.7871C20.2584 24.7759 20.267 24.7624 20.2726 24.7477C20.2782 24.7329 20.2806 24.7172 20.2797 24.7014C20.2789 24.6856 20.2747 24.6702 20.2675 24.6562C20.2603 24.6422 20.2503 24.6298 20.238 24.6198L19.5263 23.9085C19.5054 23.8875 19.477 23.8755 19.4473 23.8753ZM19.4987 24.278L19.3737 24.5862L19.5592 24.7716L19.8596 24.6384L19.4987 24.2776V24.278ZM19.3646 24.4606C19.3113 24.4667 19.2608 24.4877 19.2188 24.5211C19.1769 24.5546 19.1452 24.5992 19.1275 24.6498C19.1097 24.7004 19.1065 24.755 19.1183 24.8074C19.1302 24.8597 19.1565 24.9076 19.1943 24.9457C19.2321 24.9838 19.2799 25.0104 19.3321 25.0227C19.3844 25.0349 19.439 25.0321 19.4898 25.0147C19.5406 24.9973 19.5854 24.966 19.6192 24.9244C19.653 24.8827 19.6744 24.8323 19.6809 24.7791L19.5433 24.8399C19.529 24.8619 19.5099 24.8804 19.4874 24.8939C19.4649 24.9074 19.4397 24.9157 19.4136 24.918C19.3874 24.9204 19.3611 24.9168 19.3366 24.9075C19.312 24.8983 19.2899 24.8836 19.2719 24.8645C19.2538 24.8455 19.2403 24.8226 19.2324 24.7976C19.2245 24.7726 19.2224 24.7461 19.2262 24.7202C19.2299 24.6942 19.2396 24.6695 19.2543 24.6478C19.2691 24.6261 19.2885 24.608 19.3113 24.5949L19.3654 24.4614L19.3646 24.4606Z" fill="#0084FE"/>
<path d="M25.8379 26.4485L26.2933 27.4467L27.3486 27.5455L26.5136 28.322L26.7714 29.3203L25.8379 28.7409L24.9044 29.3203L25.1622 28.322L24.3271 27.5455L25.3824 27.4467L25.8379 26.4485Z" fill="#0084FE"/>
<path d="M25.8379 26.4488L26.2918 27.447L27.3471 27.5458L26.512 28.3223L26.7698 29.3205L25.8363 28.7412L24.9029 29.3205L25.1606 28.3223L24.3256 27.5458L25.3809 27.447L25.8363 26.4488M25.8363 26.2583L25.7644 26.4164L25.3295 27.3731L24.3201 27.4675L24.1445 27.4838L24.2734 27.6023L25.0741 28.3468L24.8289 29.3008L24.7795 29.4917L24.9471 29.3877L25.8391 28.8345L26.7311 29.3877L26.8987 29.4917L26.8493 29.3008L26.603 28.348L27.4036 27.6035L27.5325 27.4849L27.357 27.4687L26.3476 27.3743L25.9126 26.4176L25.8407 26.2595L25.8363 26.2583Z" fill="#0084FE"/>
<defs>
<filter id="filter0_d_463_49849" x="0.277344" y="-4.13574" width="49.4453" height="51.834" filterUnits="userSpaceOnUse" color-interpolation-filters="sRGB">
<feFlood flood-opacity="0" result="BackgroundImageFix"/>
<feColorMatrix in="SourceAlpha" type="matrix" values="0 0 0 0 0 0 0 0 0 0 0 0 0 0 0 0 0 0 127 0" result="hardAlpha"/>
<feOffset/>
<feGaussianBlur stdDeviation="5"/>
<feComposite in2="hardAlpha" operator="out"/>
<feColorMatrix type="matrix" values="0 0 0 0 0 0 0 0 0 0.517961 0 0 0 0 0.996078 0 0 0 1 0"/>
<feBlend mode="normal" in2="BackgroundImageFix" result="effect1_dropShadow_463_49849"/>
<feBlend mode="normal" in="SourceGraphic" in2="effect1_dropShadow_463_49849" result="shape"/>
</filter>
<linearGradient id="paint0_linear_463_49849" x1="25.0003" y1="7.61011" x2="25.0003" y2="35.9525" gradientUnits="userSpaceOnUse">
<stop stop-color="#232631"/>
<stop offset="1" stop-color="#1D202B" stop-opacity="0.4"/>
</linearGradient>
<linearGradient id="paint1_linear_463_49849" x1="25.0003" y1="7.61011" x2="25.0003" y2="35.9525" gradientUnits="userSpaceOnUse">
<stop stop-color="#343742"/>
<stop offset="1" stop-color="#343742" stop-opacity="0"/>
</linearGradient>
</defs>
</svg>
