<svg width="50" height="52" viewBox="0 0 50 52" fill="none" xmlns="http://www.w3.org/2000/svg">
<g filter="url(#filter0_d_63_11342)">
<path d="M21.5 11.0207C23.6658 9.7703 26.3342 9.7703 28.5 11.0207L36.2224 15.4793C38.3882 16.7297 39.7224 19.0406 39.7224 21.5415V30.4585C39.7224 32.9594 38.3882 35.2703 36.2224 36.5207L28.5 40.9793C26.3342 42.2297 23.6658 42.2297 21.5 40.9793L13.7776 36.5207C11.6118 35.2703 10.2776 32.9594 10.2776 30.4585V21.5415C10.2776 19.0406 11.6118 16.7297 13.7776 15.4793L21.5 11.0207Z" fill="#181A25"/>
</g>
<path d="M21.7479 14.2831C23.759 13.122 26.2368 13.122 28.2479 14.2831L33.5205 17.3273C35.5316 18.4884 36.7705 20.6342 36.7705 22.9564V29.0448C36.7705 31.367 35.5316 33.5128 33.5205 34.6739L28.2479 37.7181C26.2368 38.8792 23.759 38.8792 21.7479 37.7181L16.4752 34.6739C14.4641 33.5128 13.2252 31.367 13.2252 29.0448V22.9564C13.2252 20.6342 14.4641 18.4884 16.4752 17.3273L21.7479 14.2831Z" fill="url(#paint0_linear_63_11342)" stroke="url(#paint1_linear_63_11342)"/>
<path d="M24.9977 31.5538L25.4816 32.6149L26.6028 32.7199L25.7156 33.5454L25.9895 34.6065L24.9977 33.9911L24.0059 34.6065L24.2798 33.5454L23.3926 32.7199L24.5138 32.6149L24.9977 31.5538Z" fill="#FF0083"/>
<path d="M27.5581 29.2082L24.9998 27.3964L22.4419 29.2082V20.0462H27.5581V29.2082Z" fill="#FF0083"/>
<path d="M22.4419 30.5236V31.1659L24.9998 29.3541L27.5581 31.1659V30.5236L24.9998 28.7118L22.4419 30.5236Z" fill="#FF0083"/>
<defs>
<filter id="filter0_d_63_11342" x="0.277344" y="0.082901" width="49.4453" height="51.8342" filterUnits="userSpaceOnUse" color-interpolation-filters="sRGB">
<feFlood flood-opacity="0" result="BackgroundImageFix"/>
<feColorMatrix in="SourceAlpha" type="matrix" values="0 0 0 0 0 0 0 0 0 0 0 0 0 0 0 0 0 0 127 0" result="hardAlpha"/>
<feOffset/>
<feGaussianBlur stdDeviation="5"/>
<feComposite in2="hardAlpha" operator="out"/>
<feColorMatrix type="matrix" values="0 0 0 0 0.996078 0 0 0 0 0 0 0 0 0 0.513726 0 0 0 1 0"/>
<feBlend mode="normal" in2="BackgroundImageFix" result="effect1_dropShadow_63_11342"/>
<feBlend mode="normal" in="SourceGraphic" in2="effect1_dropShadow_63_11342" result="shape"/>
</filter>
<linearGradient id="paint0_linear_63_11342" x1="24.9979" y1="11.8294" x2="24.9979" y2="40.1718" gradientUnits="userSpaceOnUse">
<stop stop-color="#232631"/>
<stop offset="1" stop-color="#1D202B" stop-opacity="0.4"/>
</linearGradient>
<linearGradient id="paint1_linear_63_11342" x1="24.9979" y1="11.8294" x2="24.9979" y2="40.1718" gradientUnits="userSpaceOnUse">
<stop stop-color="#343742"/>
<stop offset="1" stop-color="#343742" stop-opacity="0"/>
</linearGradient>
</defs>
</svg>
