<svg width="50" height="52" viewBox="0 0 50 52" fill="none" xmlns="http://www.w3.org/2000/svg">
<g filter="url(#filter0_d_63_11378)">
<path d="M21.5 11.0207C23.6658 9.7703 26.3342 9.7703 28.5 11.0207L36.2224 15.4793C38.3882 16.7297 39.7224 19.0406 39.7224 21.5415V30.4585C39.7224 32.9594 38.3882 35.2703 36.2224 36.5207L28.5 40.9793C26.3342 42.2297 23.6658 42.2297 21.5 40.9793L13.7776 36.5207C11.6118 35.2703 10.2776 32.9594 10.2776 30.4585V21.5415C10.2776 19.0406 11.6118 16.7297 13.7776 15.4793L21.5 11.0207Z" fill="#181A25"/>
</g>
<path d="M21.7484 14.2831C23.7595 13.122 26.2373 13.122 28.2484 14.2831L33.521 17.3273C35.5321 18.4884 36.771 20.6342 36.771 22.9564V29.0448C36.771 31.367 35.5321 33.5128 33.521 34.6739L28.2484 37.7181C26.2373 38.8792 23.7595 38.8792 21.7484 37.7181L16.4757 34.6739C14.4646 33.5128 13.2257 31.367 13.2257 29.0448V22.9564C13.2257 20.6342 14.4646 18.4884 16.4757 17.3273L21.7484 14.2831Z" fill="url(#paint0_linear_63_11378)" stroke="url(#paint1_linear_63_11378)"/>
<path d="M22.9257 21.4486L22.1763 20.6408L22.7605 20.0563L25.8817 23.1784V23.4726L26.6755 24.2668H27.019L28.914 26.1626C28.914 26.1626 29.1551 26.44 29.0013 26.6945C28.8474 26.949 28.4984 27.4349 28.4984 27.4349L28.4022 27.3289L28.4898 27.4415C28.4898 27.4415 23.4044 22.3313 23.1224 22.0526C22.8007 21.7354 22.9257 21.4486 22.9257 21.4486ZM28.4446 28.427L28.3278 28.6367C28.3278 28.6367 27.7544 28.291 27.5153 28.2957C27.2761 28.3004 26.9926 28.588 26.9439 28.9691C26.8952 29.3502 26.3156 31.3831 26.1166 31.7806C25.9175 32.1781 25.551 31.9688 25.551 31.9688C25.551 31.9688 23.9201 30.6642 23.8149 30.5586C23.7098 30.453 23.7631 30.2079 23.7631 30.2079C23.7631 30.2079 24.6115 28.489 24.8896 28.072C25.1677 27.6551 24.9741 27.4661 24.9741 27.4661C24.7704 27.1578 25.0956 26.9318 25.0956 26.9318L25.4108 26.6166C25.471 26.5593 25.5144 26.4865 25.5361 26.4063C25.5578 26.326 25.557 26.2413 25.5338 26.1614L25.1003 26.5951C24.9835 26.712 24.8561 26.7724 24.7244 26.7724C24.7163 26.7724 24.7081 26.7724 24.6995 26.7724C24.5641 26.7602 24.4389 26.6953 24.3509 26.5916L23.901 26.1415C23.5793 25.8197 23.7569 25.4378 23.896 25.2807L23.901 25.2753L24.319 24.8576L24.1449 24.6904V24.3825L21.2598 21.5273L21.9032 20.8957L22.6118 21.6509C22.5027 21.8936 22.854 22.2486 22.916 22.3106L28.2935 27.7038C28.2074 28.1063 28.4446 28.427 28.4446 28.427ZM25.4201 25.9214L25.4088 25.9062L24.4962 25.0278L24.0786 25.4467C24.0467 25.4857 23.8484 25.7378 24.0755 25.9646L24.5383 26.4307C24.5832 26.4824 24.6456 26.5159 24.7135 26.5246C24.7782 26.5273 24.8503 26.4926 24.9227 26.4202L25.4201 25.9214ZM29.774 27.558L29.0542 27.1235L28.8073 27.5791L29.6439 27.7599C29.6439 27.7599 29.8391 27.7209 29.774 27.558Z" fill="#FEC600"/>
<path d="M22.7603 20.0535L25.8814 23.1756V23.4698L26.6753 24.264H27.0188L28.9138 26.1598C28.9138 26.1598 29.1549 26.4372 29.001 26.6917C28.8472 26.9461 28.4982 27.4321 28.4982 27.4321L28.4004 27.3276L28.488 27.4402C28.488 27.4402 23.4026 22.33 23.1206 22.0514C22.7985 21.7342 22.9259 21.4474 22.9259 21.4474L22.1764 20.6395L22.7607 20.055M21.8999 20.8948L22.6084 21.65C22.4993 21.8928 22.8507 22.2478 22.9126 22.3097L28.2902 27.7029C28.2049 28.1074 28.4432 28.4273 28.4432 28.4273L28.3264 28.637C28.3264 28.637 27.76 28.296 27.5186 28.296H27.5139C27.2747 28.3003 26.9912 28.5882 26.9425 28.9693C26.8938 29.3505 26.3142 31.3834 26.1152 31.7809C26.0186 31.9757 25.8815 32.0244 25.7673 32.0244C25.6914 32.0233 25.6168 32.0043 25.5496 31.9691C25.5496 31.9691 23.9187 30.6645 23.8135 30.5589C23.7084 30.4532 23.7617 30.2081 23.7617 30.2081C23.7617 30.2081 24.6101 28.4893 24.8882 28.0723C25.1663 27.6553 24.9727 27.4664 24.9727 27.4664C24.769 27.1581 25.0943 26.9321 25.0943 26.9321L25.4094 26.6169C25.4696 26.5596 25.513 26.4868 25.5347 26.4065C25.5564 26.3263 25.5556 26.2416 25.5325 26.1617L25.0989 26.5954C24.9821 26.7123 24.8547 26.7727 24.7231 26.7727C24.7153 26.7727 24.7071 26.7727 24.6993 26.7727C24.5639 26.7605 24.4387 26.6955 24.3507 26.5919L23.9008 26.1418C23.5791 25.82 23.7567 25.4381 23.8957 25.281L23.9008 25.2756L24.3187 24.8578L24.1446 24.6907V24.3828L21.2595 21.5276L21.903 20.896M24.7223 26.5249C24.7854 26.5249 24.8547 26.4902 24.9244 26.4205L25.4218 25.9228L25.4105 25.9076L24.4944 25.0266L24.0769 25.4455C24.0449 25.4844 23.8467 25.7366 24.0737 25.9634L24.5365 26.4294C24.5814 26.4812 24.6438 26.5146 24.7118 26.5233H24.7188M29.0524 27.1234L29.7723 27.5579C29.8373 27.7208 29.6422 27.7598 29.6422 27.7598L28.8055 27.579L29.0524 27.1234ZM22.7603 19.9432L22.7054 19.9997L22.1211 20.5842L22.0682 20.6372L22.1192 20.6922L22.8382 21.4672C22.8121 21.5744 22.7903 21.8328 23.068 22.1067C23.3457 22.3806 28.3848 27.4453 28.4358 27.4952L28.4456 27.4866L28.5079 27.5536L28.5632 27.4757C28.5776 27.4558 28.9161 26.9851 29.0696 26.7306C29.2507 26.431 28.9858 26.1204 28.9745 26.1072H28.9726L28.9706 26.1052L27.0761 24.2082L27.0531 24.1852H26.7095L25.9613 23.4367V23.1425L25.9383 23.1195L22.8156 19.9997L22.7603 19.9447V19.9432ZM21.9034 20.7818L21.8469 20.8375L21.2035 21.4692L21.147 21.5245L21.2031 21.5802L24.0652 24.4124V24.7211L24.0893 24.744L24.2062 24.8563L23.8432 25.2179L23.8381 25.2234C23.6823 25.3991 23.4836 25.8277 23.8467 26.1909L24.2942 26.6387C24.3958 26.7574 24.5401 26.8313 24.6958 26.8444C24.7051 26.8444 24.7145 26.8444 24.7238 26.8444C24.8796 26.8444 25.0234 26.777 25.1562 26.6441L25.4709 26.3293C25.46 26.4157 25.4195 26.4957 25.3564 26.5557L25.0448 26.8674C24.9108 26.9641 24.7172 27.2146 24.9088 27.5042L24.9135 27.5112L24.9194 27.517C24.924 27.5221 25.0584 27.6729 24.8247 28.0236C24.5443 28.4437 23.7263 30.1014 23.6897 30.1703L23.6854 30.1789V30.1883C23.6792 30.2179 23.6262 30.4797 23.7578 30.6115C23.865 30.7186 25.4327 31.9753 25.5005 32.0272L25.5052 32.0311L25.5106 32.0342C25.5898 32.0758 25.6776 32.0982 25.7669 32.0996C25.892 32.0996 26.0665 32.0498 26.1845 31.8132C26.3843 31.4134 26.9666 29.3894 27.0196 28.9764C27.0632 28.6346 27.3172 28.3747 27.5147 28.3712H27.5182C27.6985 28.3712 28.1336 28.6093 28.2859 28.7012L28.3544 28.7426L28.3934 28.6728L28.5122 28.4628L28.5371 28.4187L28.5067 28.3778C28.5048 28.3751 28.291 28.0797 28.3677 27.7154L28.3763 27.6741L28.3467 27.6444L22.9675 22.2528C22.7852 22.0708 22.6143 21.8242 22.6793 21.6804L22.7003 21.6328L22.6649 21.5939L21.956 20.8387L21.9015 20.7806L21.9034 20.7818ZM24.1357 25.4969L24.4975 25.1349L25.3112 25.9174L24.8679 26.3608C24.8307 26.4055 24.7783 26.4346 24.7207 26.4427H24.7168C24.6714 26.4355 24.63 26.4124 24.6 26.3776H24.598L24.5941 26.3733L24.131 25.9088C23.9616 25.7393 24.0893 25.555 24.1365 25.4989L24.1357 25.4969ZM29.0236 27.0139L28.9847 27.086L28.7381 27.5416L28.6886 27.6327L28.7899 27.6546L29.6266 27.8358L29.6425 27.8389L29.6581 27.8358C29.6718 27.833 29.7898 27.8069 29.8412 27.7119C29.8557 27.6836 29.8636 27.6525 29.8644 27.6208C29.8651 27.589 29.8587 27.5576 29.8455 27.5287L29.8357 27.5045L29.8135 27.4909L29.0933 27.0564L29.0236 27.0139Z" fill="#FEC600"/>
<path d="M21.8286 29.2194H22.8869V29.3792H21.8286V29.2194ZM21.8286 26.7095H22.8869C22.887 26.6696 22.8791 26.6301 22.8639 26.5933C22.8487 26.5564 22.8263 26.5229 22.7982 26.4947C22.77 26.4665 22.7365 26.4442 22.6997 26.4289C22.6628 26.4137 22.6233 26.4059 22.5835 26.4059H22.132C22.0516 26.4059 21.9744 26.4379 21.9175 26.4948C21.8606 26.5518 21.8286 26.629 21.8286 26.7095ZM21.8286 28.8664H22.8869V27.0625H21.8286V28.8664Z" fill="#FEC600"/>
<path d="M22.5808 26.407C22.6207 26.407 22.6602 26.4148 22.697 26.43C22.7338 26.4453 22.7673 26.4676 22.7955 26.4958C22.8237 26.524 22.846 26.5575 22.8613 26.5944C22.8765 26.6312 22.8843 26.6707 22.8842 26.7106H21.8259C21.8259 26.6301 21.8579 26.5529 21.9148 26.4959C21.9717 26.439 22.0489 26.407 22.1294 26.407H22.5808ZM22.8842 27.0636V28.8675H21.8259V27.0636H22.8842ZM22.8842 29.2205V29.3803H21.8259V29.2205H22.8842ZM22.5808 26.3291H22.1294C22.0283 26.3292 21.9313 26.3694 21.8598 26.441C21.7884 26.5125 21.7481 26.6095 21.748 26.7106V26.7885H22.9621V26.7106C22.962 26.6095 22.9218 26.5125 22.8503 26.441C22.7789 26.3694 22.6819 26.3292 22.5808 26.3291ZM22.9621 26.9857H21.748V28.9454H22.9621V26.9857ZM22.9621 29.1426H21.748V29.4582H22.9621V29.1426Z" fill="#FEC600"/>
<path d="M20.1406 28.9322V26.7528C20.1406 26.7018 20.1609 26.6529 20.1969 26.6169C20.2329 26.5809 20.2817 26.5606 20.3327 26.5606H20.7549C20.7801 26.5606 20.8051 26.5656 20.8284 26.5753C20.8517 26.5849 20.8728 26.5991 20.8907 26.6169C20.9085 26.6348 20.9226 26.6559 20.9323 26.6792C20.9419 26.7025 20.9469 26.7275 20.9469 26.7528V28.9322H20.1406ZM20.1406 29.3788H20.9469V29.219H20.1406V29.3788ZM20.2734 26.3257H20.8141V25.7353H20.2715L20.2734 26.3257ZM20.2734 25.4707H20.8141V24.8184C20.8141 24.6691 20.6929 24.0827 20.5438 24.0827C20.3946 24.0827 20.2734 24.6691 20.2734 24.8184V25.4707Z" fill="#FEC600"/>
<path d="M20.5465 24.0835C20.6957 24.0835 20.8168 24.67 20.8168 24.8192V25.4716H20.2762V24.8192C20.2762 24.67 20.3973 24.0835 20.5465 24.0835ZM20.8168 25.7362V26.3265H20.2762V25.7362H20.8168ZM20.7576 26.5615C20.8085 26.5615 20.8574 26.5817 20.8934 26.6178C20.9294 26.6538 20.9496 26.7027 20.9496 26.7536V28.9331H20.1453V26.7536C20.1453 26.7027 20.1655 26.6538 20.2015 26.6178C20.2375 26.5817 20.2864 26.5615 20.3373 26.5615H20.7595M20.9516 29.2199V29.3797H20.1453V29.2199H20.9516ZM20.5465 24.0056C20.4394 24.0056 20.3548 24.1225 20.2804 24.3734C20.236 24.5184 20.2084 24.668 20.1983 24.8192V25.5495H20.8947V24.8192C20.8845 24.6679 20.8568 24.5183 20.8121 24.3734C20.7381 24.1225 20.6536 24.0056 20.5465 24.0056ZM20.8947 25.6582H20.1983V26.4045H20.8947V25.6582ZM20.7576 26.4836H20.3354C20.2638 26.4837 20.1952 26.5121 20.1446 26.5628C20.094 26.6134 20.0655 26.682 20.0654 26.7536V29.011H21.0275V26.7536C21.0274 26.682 20.9989 26.6134 20.9483 26.5628C20.8977 26.5121 20.8291 26.4837 20.7576 26.4836ZM21.0275 29.142H20.0674V29.4576H21.0295V29.142H21.0275Z" fill="#FEC600"/>
<defs>
<filter id="filter0_d_63_11378" x="0.277344" y="0.082901" width="49.4453" height="51.8342" filterUnits="userSpaceOnUse" color-interpolation-filters="sRGB">
<feFlood flood-opacity="0" result="BackgroundImageFix"/>
<feColorMatrix in="SourceAlpha" type="matrix" values="0 0 0 0 0 0 0 0 0 0 0 0 0 0 0 0 0 0 127 0" result="hardAlpha"/>
<feOffset/>
<feGaussianBlur stdDeviation="5"/>
<feComposite in2="hardAlpha" operator="out"/>
<feColorMatrix type="matrix" values="0 0 0 0 0.996078 0 0 0 0 0.776941 0 0 0 0 0 0 0 0 1 0"/>
<feBlend mode="normal" in2="BackgroundImageFix" result="effect1_dropShadow_63_11378"/>
<feBlend mode="normal" in="SourceGraphic" in2="effect1_dropShadow_63_11378" result="shape"/>
</filter>
<linearGradient id="paint0_linear_63_11378" x1="24.9984" y1="11.8294" x2="24.9984" y2="40.1718" gradientUnits="userSpaceOnUse">
<stop stop-color="#232631"/>
<stop offset="1" stop-color="#1D202B" stop-opacity="0.4"/>
</linearGradient>
<linearGradient id="paint1_linear_63_11378" x1="24.9984" y1="11.8294" x2="24.9984" y2="40.1718" gradientUnits="userSpaceOnUse">
<stop stop-color="#343742"/>
<stop offset="1" stop-color="#343742" stop-opacity="0"/>
</linearGradient>
</defs>
</svg>
