<svg width="50" height="52" viewBox="0 0 50 52" fill="none" xmlns="http://www.w3.org/2000/svg">
<g filter="url(#filter0_d_63_11396)">
<path d="M21.5 11.0207C23.6658 9.7703 26.3342 9.7703 28.5 11.0207L36.2224 15.4793C38.3882 16.7297 39.7224 19.0406 39.7224 21.5415V30.4585C39.7224 32.9594 38.3882 35.2703 36.2224 36.5207L28.5 40.9793C26.3342 42.2297 23.6658 42.2297 21.5 40.9793L13.7776 36.5207C11.6118 35.2703 10.2776 32.9594 10.2776 30.4585V21.5415C10.2776 19.0406 11.6118 16.7297 13.7776 15.4793L21.5 11.0207Z" fill="#181A25"/>
</g>
<path d="M21.7503 14.2826C23.7614 13.1215 26.2392 13.1215 28.2503 14.2826L33.523 17.3267C35.5341 18.4878 36.773 20.6337 36.773 22.9559V29.0442C36.773 31.3664 35.5341 33.5123 33.523 34.6734L28.2503 37.7175C26.2392 38.8786 23.7614 38.8786 21.7503 37.7175L16.4777 34.6734C14.4666 33.5123 13.2277 31.3664 13.2277 29.0442V22.9559C13.2277 20.6337 14.4666 18.4878 16.4777 17.3267L21.7503 14.2826Z" fill="url(#paint0_linear_63_11396)" stroke="url(#paint1_linear_63_11396)"/>
<path d="M24.8396 19.5479L25.4201 20.8219L26.7653 20.9475L25.7008 21.9387L26.0297 23.2128L24.8396 22.4736L23.6491 23.2128L23.9781 21.9387L22.9136 20.9475L24.2591 20.8219L24.8396 19.5479Z" fill="#FE8900"/>
<path d="M24.8401 19.5479L25.4206 20.8219L26.7658 20.9475L25.7013 21.9387L26.0302 23.2128L24.8401 22.4736L23.6497 23.2128L23.9786 21.9387L22.9141 20.9475L24.2592 20.8219L24.8401 19.5479ZM24.8401 19.3556L24.7676 19.5152L24.2062 20.7469L22.9065 20.8686L22.7295 20.8853L22.8599 21.005L23.8893 21.9623L23.5727 23.1904L23.5225 23.3855L23.6915 23.2806L24.8397 22.5674L25.9879 23.2806L26.1566 23.3855L26.1071 23.1928L25.7902 21.9647L26.8196 21.0074L26.95 20.8877L26.7729 20.871L25.476 20.7465L24.9147 19.5148L24.8421 19.3552L24.8401 19.3556Z" fill="#FE8900"/>
<path d="M24.8398 30.7145L25.1312 31.3539L25.8066 31.4173L25.2719 31.9151L25.4374 32.5545L24.8398 32.1836L24.2421 32.5545L24.4072 31.9151L23.8726 31.4173L24.5483 31.3539L24.8398 30.7145Z" fill="#FE8900"/>
<path d="M24.8403 30.7142L25.1317 31.3524L25.8071 31.4159L25.2729 31.9137L25.4379 32.5519L24.8399 32.1809L24.2419 32.5519L24.4069 31.9137L23.8723 31.4159L24.5477 31.3524L24.8395 30.7142M24.8395 30.6177L24.8028 30.6975L24.5209 31.3161L23.8687 31.3772L23.7798 31.3855L23.8452 31.4466L24.3635 31.9276L24.204 32.5443L24.1793 32.6412L24.2642 32.5882L24.8407 32.2292L25.4172 32.5882L25.5017 32.6412L25.477 32.5443L25.3175 31.9276L25.8358 31.4466L25.9012 31.3855L25.8123 31.3772L25.1572 31.3161L24.8782 30.6971L24.8419 30.6173L24.8395 30.6177Z" fill="#FE8900"/>
<path d="M19.4574 22.6053L18.9032 22.007L19.3378 21.5746L21.6446 23.8829V24.1003L22.2314 24.6875H22.4854L23.8864 26.0891C23.8864 26.0891 24.0646 26.2941 23.9505 26.482C23.8365 26.6699 23.5778 27.0277 23.5778 27.0277L23.5064 26.9511L23.571 27.0345C23.571 27.0345 19.811 23.2567 19.6025 23.0509C19.3645 22.8171 19.4574 22.6053 19.4574 22.6053ZM23.5367 27.764L23.4494 27.9192C23.4494 27.9192 23.0252 27.6659 22.8486 27.6659C22.672 27.6659 22.4623 27.8821 22.426 28.1637C22.3897 28.4453 21.9615 29.9483 21.8148 30.2422C21.6681 30.5362 21.3966 30.3814 21.3966 30.3814C21.3966 30.3814 20.191 29.4177 20.1132 29.3412C20.0355 29.2646 20.0733 29.0815 20.0733 29.0815C20.0733 29.0815 20.7005 27.8111 20.9058 27.5027C21.1111 27.1944 20.9684 27.0544 20.9684 27.0544C20.8177 26.827 21.0581 26.6599 21.0581 26.6599L21.2913 26.4254C21.3359 26.3831 21.3679 26.3293 21.384 26.27C21.4 26.2107 21.3994 26.1481 21.3822 26.0891L21.0633 26.4082C21.0281 26.4479 20.9852 26.48 20.9372 26.5026C20.8892 26.5251 20.8372 26.5377 20.7842 26.5395H20.7659C20.6658 26.5304 20.5734 26.4824 20.5083 26.4058L20.175 26.074C19.9358 25.8346 20.0686 25.5554 20.1714 25.4358L20.175 25.4318L20.484 25.123L20.3556 24.9994V24.7716L18.2227 22.6608L18.6999 22.1957L19.2238 22.7541C19.144 22.9336 19.4028 23.1961 19.4486 23.2415L23.4239 27.2303C23.3902 27.4161 23.4307 27.6078 23.5367 27.764ZM21.3013 25.9108L21.2929 25.8997L20.6179 25.2511L20.309 25.5602C20.2854 25.5881 20.1387 25.7752 20.3066 25.9431L20.649 26.2866C20.6823 26.3248 20.7284 26.3494 20.7786 26.356C20.8084 26.3545 20.8375 26.3469 20.8642 26.3337C20.8909 26.3204 20.9145 26.3018 20.9337 26.279L21.3013 25.9108ZM24.5207 27.1218L23.9884 26.8007L23.8058 27.1374L24.4242 27.271C24.4242 27.271 24.5677 27.2423 24.5207 27.1218Z" fill="#FE8900"/>
<path d="M19.3359 21.5744L21.6427 23.8827V24.1001L22.2295 24.6872H22.4835L23.8845 26.0889C23.8845 26.0889 24.0627 26.2939 23.9487 26.4818C23.8346 26.6696 23.5759 27.0274 23.5759 27.0274L23.5045 26.9508L23.5691 27.0342C23.5691 27.0342 19.8091 23.2564 19.6006 23.0506C19.3614 22.8157 19.4555 22.6039 19.4555 22.6039L18.9013 22.0056L19.3359 21.5744ZM18.698 22.1954L19.2219 22.7539C19.1421 22.9334 19.4009 23.1958 19.4467 23.2413L23.422 27.23C23.3879 27.4164 23.4284 27.6087 23.5348 27.7653L23.4475 27.9205C23.4475 27.9205 23.0285 27.6684 22.8495 27.6684H22.8463C22.6693 27.6716 22.46 27.8846 22.4237 28.1662C22.3874 28.4478 21.9592 29.9508 21.8125 30.2448C21.7407 30.388 21.6399 30.4246 21.555 30.4246C21.4994 30.4239 21.4448 30.4102 21.3955 30.3848C21.3955 30.3848 20.1891 29.4175 20.1113 29.3409C20.0336 29.2643 20.0715 29.0812 20.0715 29.0812C20.0715 29.0812 20.6986 27.8108 20.9039 27.5025C21.1092 27.1941 20.9665 27.0541 20.9665 27.0541C20.8158 26.8268 21.0562 26.6597 21.0562 26.6597L21.2894 26.4251C21.3339 26.3828 21.3659 26.329 21.3819 26.2697C21.398 26.2104 21.3974 26.1479 21.3803 26.0889L21.0614 26.408C21.0262 26.4476 20.9833 26.4797 20.9353 26.5023C20.8874 26.5249 20.8353 26.5374 20.7823 26.5392H20.764C20.6639 26.5301 20.5715 26.4821 20.5064 26.4056L20.1731 26.0737C19.9339 25.8344 20.0667 25.5552 20.1695 25.4355L20.1731 25.4315L20.4821 25.1228L20.3537 24.9991V24.7714L18.2208 22.6605L18.698 22.1954ZM20.7823 26.3569C20.8403 26.3516 20.8939 26.3238 20.9318 26.2795L21.2994 25.9114L21.291 25.9002L20.6161 25.2516L20.3071 25.5608C20.2836 25.5887 20.1368 25.7757 20.3047 25.9437L20.6472 26.2871C20.6804 26.3253 20.7265 26.35 20.7767 26.3565H20.7823M23.9857 26.8001L24.5188 27.1216C24.5666 27.2412 24.4223 27.2707 24.4223 27.2707L23.8039 27.1371L23.9865 26.8005M19.3359 21.493L19.296 21.5329L18.863 21.9665L18.8232 22.0064L18.863 22.0463L19.3945 22.6194C19.3753 22.6992 19.359 22.8895 19.5643 23.0921C19.7696 23.2947 23.4949 27.0378 23.5324 27.0753L23.5396 27.0689L23.5859 27.1188L23.6257 27.0617C23.6365 27.047 23.8865 26.6987 24.0001 26.5109C24.134 26.2895 23.9383 26.0597 23.9299 26.0502L22.5289 24.6485L22.5122 24.6318H22.2582L21.6993 24.0757V23.8583L21.6821 23.8416L19.3757 21.5337L19.3359 21.4938V21.493ZM18.698 22.1129L18.6561 22.1528L18.1805 22.6194L18.1406 22.6593L18.1805 22.6992L20.2963 24.7929V25.0211L20.3139 25.0382L20.4004 25.1212L20.1332 25.392L20.1285 25.3972C20.0132 25.5272 19.8661 25.844 20.1344 26.1124L20.4654 26.4435C20.5405 26.5313 20.6472 26.5859 20.7624 26.5954H20.7831C20.8435 26.5936 20.9029 26.5795 20.9577 26.554C21.0125 26.5286 21.0616 26.4924 21.102 26.4475L21.3349 26.2145C21.3268 26.2783 21.2969 26.3373 21.2504 26.3816L21.0207 26.6114C20.9214 26.6828 20.7787 26.8683 20.9199 27.0821L20.9234 27.0873L20.9278 27.0916C20.9314 27.0952 21.0307 27.2069 20.8577 27.4662C20.6523 27.7745 20.0471 28.9999 20.0204 29.0517L20.0172 29.0581V29.0649C20.0124 29.0868 19.9734 29.2803 20.0707 29.3776C20.1504 29.4574 21.3098 30.3848 21.3588 30.4242L21.3624 30.427L21.3664 30.4294C21.4248 30.4602 21.4897 30.4767 21.5558 30.4777C21.6486 30.4777 21.777 30.441 21.8647 30.2663C22.0122 29.9707 22.4428 28.4745 22.4819 28.169C22.5142 27.9161 22.702 27.7243 22.8479 27.7215H22.8503C22.9838 27.7215 23.3052 27.8978 23.418 27.9656L23.4686 27.9959L23.4977 27.9444L23.5855 27.7893L23.6038 27.757L23.5815 27.7266C23.4852 27.583 23.4483 27.4075 23.4786 27.2372L23.485 27.2069L23.4631 27.185L19.4878 23.1962C19.3534 23.0618 19.2266 22.8799 19.2749 22.773L19.2904 22.7379L19.2641 22.71L18.7402 22.1516L18.7004 22.1085L18.698 22.1129ZM20.3481 25.5998L20.6153 25.3322L21.2173 25.9106L20.8907 26.2388C20.8633 26.2717 20.8247 26.2932 20.7823 26.2991H20.7791C20.7465 26.294 20.7165 26.2779 20.6942 26.2536L20.689 26.248L20.3461 25.9046C20.221 25.7793 20.3158 25.6429 20.3505 25.6014L20.3481 25.5998ZM23.9622 26.7199L23.9335 26.7729L23.7509 27.1096L23.7146 27.177L23.7896 27.1934L24.4079 27.327L24.4195 27.3298L24.4315 27.3274C24.4589 27.3218 24.485 27.3108 24.5082 27.2951C24.5314 27.2793 24.5513 27.2591 24.5666 27.2356C24.5775 27.2148 24.5834 27.1918 24.5839 27.1684C24.5845 27.1449 24.5797 27.1217 24.5698 27.1004L24.5626 27.0825L24.5459 27.0725L24.0136 26.751L23.9622 26.7199Z" fill="#FE8900"/>
<path d="M30.0787 23.0519C29.8702 23.2577 26.1102 27.0355 26.1102 27.0355L26.1748 26.9521L26.1034 27.0275C26.1034 27.0275 25.8455 26.6685 25.7319 26.4806C25.6183 26.2928 25.7961 26.0878 25.7961 26.0878L27.197 24.6861H27.451L28.0379 24.099V23.8816L30.345 21.5733L30.7784 22.008L30.2242 22.6064C30.2242 22.6064 30.3167 22.817 30.0787 23.0519ZM26.2573 27.2269L30.2326 23.2382C30.2785 23.1927 30.5384 22.9302 30.4575 22.7508L30.9813 22.1923L31.4562 22.6622L29.3236 24.7731V25.0008L29.1948 25.1245L29.5038 25.4332L29.5074 25.4372C29.6103 25.5533 29.7418 25.8361 29.5038 26.0754L29.1713 26.4081C29.1061 26.4846 29.0135 26.5326 28.9134 26.5417H28.895C28.8421 26.5398 28.79 26.5273 28.742 26.5047C28.6941 26.4821 28.6512 26.4501 28.616 26.4104L28.297 26.0913C28.2799 26.1503 28.2794 26.2129 28.2954 26.2722C28.3114 26.3315 28.3434 26.3852 28.3879 26.4276L28.6211 26.6609C28.6211 26.6609 28.8603 26.8281 28.7108 27.0554C28.7108 27.0554 28.5677 27.195 28.7734 27.5038C28.9792 27.8125 29.6059 29.0825 29.6059 29.0825C29.6059 29.0825 29.6458 29.2644 29.566 29.3422C29.4863 29.42 28.2827 30.3848 28.2827 30.3848C28.2827 30.3848 28.0135 30.5376 27.868 30.2432C27.7225 29.9489 27.2923 28.4463 27.2564 28.1647C27.2206 27.8831 27.0097 27.6701 26.8314 27.6657C26.6532 27.6613 26.2334 27.919 26.2334 27.919L26.1457 27.7638C26.2521 27.6066 26.2922 27.4136 26.2573 27.2269ZM28.7479 26.278C28.767 26.3008 28.7906 26.3195 28.8172 26.3327C28.8438 26.346 28.8729 26.3536 28.9026 26.355C28.9529 26.3486 28.999 26.3239 29.0322 26.2856L29.3747 25.9422C29.5425 25.7742 29.3958 25.5872 29.3723 25.5592L29.0641 25.2517L28.3891 25.9003L28.3807 25.9114L28.7479 26.278ZM25.2578 27.2708L25.8746 27.1372L25.6924 26.8005L25.1602 27.1216C25.1135 27.2421 25.2578 27.2708 25.2578 27.2708Z" fill="#FE8900"/>
<path d="M30.3447 21.5747L30.7781 22.0082L30.2239 22.6066C30.2239 22.6066 30.3168 22.8184 30.0788 23.0533C29.8703 23.2591 26.1103 27.0369 26.1103 27.0369L26.1749 26.9535L26.1031 27.0277C26.1031 27.0277 25.8452 26.6687 25.7316 26.4808C25.6179 26.293 25.7957 26.088 25.7957 26.088L27.1967 24.6863H27.4507L28.0375 24.0992V23.8818L30.3447 21.5735M30.9826 22.1945L31.4559 22.6624L29.3233 24.7733V25.001L29.1945 25.1247L29.5035 25.4334L29.5071 25.4374C29.6099 25.5535 29.7415 25.8363 29.5035 26.0756L29.171 26.4082C29.1058 26.4848 29.0132 26.5328 28.913 26.5419H28.8947C28.8417 26.54 28.7897 26.5275 28.7417 26.5049C28.6937 26.4823 28.6508 26.4503 28.6156 26.4106L28.2967 26.0915C28.2796 26.1505 28.2791 26.2131 28.2951 26.2724C28.3111 26.3317 28.3431 26.3854 28.3876 26.4278L28.6208 26.6611C28.6208 26.6611 28.86 26.8283 28.7105 27.0556C28.7105 27.0556 28.5674 27.1952 28.7731 27.504C28.9788 27.8127 29.6056 29.0827 29.6056 29.0827C29.6056 29.0827 29.6454 29.2646 29.5657 29.3424C29.486 29.4202 28.2823 30.385 28.2823 30.385C28.2329 30.4104 28.1784 30.424 28.1229 30.4249C28.0379 30.4249 27.9371 30.3882 27.8657 30.245C27.7186 29.9511 27.29 28.4481 27.2541 28.1665C27.2182 27.8849 27.0093 27.6703 26.8311 27.6659C26.6525 27.6659 26.2331 27.918 26.2331 27.918L26.1454 27.7628C26.2515 27.6059 26.2916 27.4134 26.257 27.2271L30.2323 23.2384C30.2781 23.1929 30.5381 22.9304 30.4572 22.751L30.981 22.1925M28.8967 26.3572H28.9043C28.9545 26.3508 29.0007 26.3261 29.0338 26.2878L29.3763 25.9444C29.5442 25.7764 29.3974 25.5894 29.3739 25.5614L29.0637 25.2519L28.3888 25.9005L28.3804 25.9116L28.7484 26.2798C28.7861 26.3241 28.8396 26.3519 28.8975 26.3572M25.6945 26.8007L25.8767 27.1374L25.2583 27.271C25.2583 27.271 25.114 27.2423 25.1622 27.1218L25.6945 26.8007ZM30.3447 21.4933L30.3049 21.5332L27.9977 23.8415L27.9809 23.8582V24.076L27.4276 24.6297H27.1736L27.1568 24.6464L25.7547 26.0485C25.7463 26.058 25.5505 26.2878 25.6845 26.5092C25.7981 26.697 26.0481 27.0453 26.0589 27.06L26.0987 27.1171L26.1446 27.0672L26.1518 27.0736C26.1892 27.0361 29.9141 23.2934 30.1199 23.0904C30.3256 22.8874 30.3088 22.6967 30.2897 22.6177L30.8211 22.0445L30.859 22.0047L30.8192 21.9648L30.3858 21.5312L30.3459 21.4913L30.3447 21.4933ZM30.9794 22.1132L30.9396 22.1562L30.4157 22.7147L30.3894 22.7426L30.4049 22.7777C30.4532 22.8846 30.3252 23.0665 30.192 23.2009L26.2163 27.1873L26.1944 27.2092L26.2008 27.2395C26.2311 27.4098 26.1942 27.5852 26.0979 27.7289L26.0756 27.7592L26.094 27.7916L26.1817 27.9467L26.2108 27.9982L26.2614 27.9679C26.3742 27.9 26.696 27.7237 26.8291 27.7237H26.8311C26.9774 27.7265 27.1648 27.9184 27.1971 28.1713C27.237 28.4768 27.6668 29.973 27.8143 30.2686C27.902 30.4433 28.0308 30.48 28.1233 30.48C28.1893 30.479 28.2542 30.4625 28.3126 30.4317L28.3166 30.4293L28.3202 30.4265C28.3692 30.3866 29.529 29.4593 29.6084 29.3799C29.7056 29.2826 29.6666 29.0891 29.6618 29.0672V29.0604L29.659 29.054C29.6331 29.0021 29.0279 27.7776 28.8217 27.4685C28.6487 27.2092 28.7484 27.0975 28.7524 27.0931L28.7572 27.0887L28.7596 27.0843C28.9011 26.8705 28.7596 26.6855 28.6587 26.6137L28.429 26.3839C28.3825 26.3396 28.3526 26.2806 28.3445 26.2168L28.5774 26.4497C28.6178 26.4947 28.6669 26.5309 28.7217 26.5564C28.7765 26.5818 28.8359 26.5959 28.8963 26.5977H28.9178C29.033 26.5882 29.1397 26.5336 29.2149 26.4457L29.5458 26.1147C29.8141 25.8462 29.6654 25.5295 29.5517 25.3995L29.5478 25.3955L29.2794 25.1271L29.366 25.0441L29.3835 25.0269V24.7988L31.4957 22.7035L31.5356 22.6636L31.4937 22.6237L31.0181 22.157L30.9762 22.1171L30.9794 22.1132ZM28.4601 25.9109L29.0637 25.3325L29.3313 25.6001C29.366 25.64 29.4604 25.778 29.3353 25.9033L28.9928 26.2467L28.9872 26.2523C28.9648 26.2767 28.9347 26.2927 28.9019 26.2978H28.8991C28.8567 26.2918 28.8181 26.2703 28.7907 26.2375L28.4601 25.9109ZM25.7148 26.7202L25.663 26.7513L25.1307 27.0728L25.114 27.0827L25.1068 27.1007C25.097 27.122 25.0923 27.1452 25.0928 27.1687C25.0934 27.1921 25.0992 27.2151 25.11 27.2359C25.1253 27.2594 25.1452 27.2796 25.1684 27.2954C25.1916 27.3111 25.2177 27.3221 25.2452 27.3277L25.2571 27.3301L25.2687 27.3273L25.887 27.1936L25.9624 27.1773L25.9257 27.1099L25.7435 26.7732L25.7148 26.7202Z" fill="#FE8900"/>
<defs>
<filter id="filter0_d_63_11396" x="0.277344" y="0.0829163" width="49.4453" height="51.8342" filterUnits="userSpaceOnUse" color-interpolation-filters="sRGB">
<feFlood flood-opacity="0" result="BackgroundImageFix"/>
<feColorMatrix in="SourceAlpha" type="matrix" values="0 0 0 0 0 0 0 0 0 0 0 0 0 0 0 0 0 0 127 0" result="hardAlpha"/>
<feOffset/>
<feGaussianBlur stdDeviation="5"/>
<feComposite in2="hardAlpha" operator="out"/>
<feColorMatrix type="matrix" values="0 0 0 0 0.996078 0 0 0 0 0.537882 0 0 0 0 0 0 0 0 1 0"/>
<feBlend mode="normal" in2="BackgroundImageFix" result="effect1_dropShadow_63_11396"/>
<feBlend mode="normal" in="SourceGraphic" in2="effect1_dropShadow_63_11396" result="shape"/>
</filter>
<linearGradient id="paint0_linear_63_11396" x1="25.0003" y1="11.8288" x2="25.0003" y2="40.1713" gradientUnits="userSpaceOnUse">
<stop stop-color="#232631"/>
<stop offset="1" stop-color="#1D202B" stop-opacity="0.4"/>
</linearGradient>
<linearGradient id="paint1_linear_63_11396" x1="25.0003" y1="11.8288" x2="25.0003" y2="40.1713" gradientUnits="userSpaceOnUse">
<stop stop-color="#343742"/>
<stop offset="1" stop-color="#343742" stop-opacity="0"/>
</linearGradient>
</defs>
</svg>
