<svg width="18" height="18" viewBox="0 0 18 18" fill="none" xmlns="http://www.w3.org/2000/svg">
<path d="M9 5.97656C10.6504 5.97656 11.9883 4.63866 11.9883 2.98828C11.9883 1.3379 10.6504 0 9 0C7.34962 0 6.01172 1.3379 6.01172 2.98828C6.01172 4.63866 7.34962 5.97656 9 5.97656Z" fill="#81828A"/>
<path d="M11.196 6.38138C10.5633 6.79225 9.80918 7.03124 9.0002 7.03124C8.19122 7.03124 7.43708 6.79225 6.80438 6.38138C6.10494 6.64867 5.45645 7.04302 4.89258 7.54913L9.0002 9.0895L13.1078 7.54913C12.5439 7.04302 11.8955 6.64864 11.196 6.38138Z" fill="#81828A"/>
<path d="M15.3281 10.8984H14.9766C14.6853 10.8984 14.4492 11.1345 14.4492 11.4258V12.832C14.4492 13.1233 14.6853 13.3594 14.9766 13.3594H15.3281C16.0077 13.3594 16.5586 12.8085 16.5586 12.1289C16.5586 11.4493 16.0077 10.8984 15.3281 10.8984Z" fill="#81828A"/>
<path d="M3.07463 8.23625C2.93245 8.3348 2.84766 8.49672 2.84766 8.66969V9.84374H3.02344C3.89577 9.84374 4.60547 10.5534 4.60547 11.4258V12.832C4.60547 13.7043 3.89577 14.414 3.02344 14.414H2.84766V15.5252C2.84766 15.745 2.98403 15.9418 3.18983 16.0189L8.47266 18V10.0181L3.56017 8.17592C3.3982 8.11514 3.21676 8.13767 3.07463 8.23625Z" fill="#81828A"/>
<path d="M13.3945 12.832V11.4258C13.3945 10.5534 14.1042 9.84374 14.9766 9.84374H15.1523V8.66969C15.1523 8.49672 15.0675 8.3348 14.9254 8.23625C14.7832 8.13767 14.6017 8.11514 14.4398 8.17592L9.52734 10.0181V18L14.8102 16.0189C15.016 15.9418 15.1523 15.745 15.1523 15.5252V14.414H14.9766C14.1042 14.414 13.3945 13.7043 13.3945 12.832Z" fill="#81828A"/>
<path d="M3.55078 12.832V11.4258C3.55078 11.1345 3.31467 10.8984 3.02344 10.8984H2.67188C1.9923 10.8984 1.44141 11.4493 1.44141 12.1289C1.44141 12.8085 1.9923 13.3594 2.67188 13.3594H3.02344C3.31467 13.3594 3.55078 13.1233 3.55078 12.832Z" fill="#81828A"/>
</svg>
