<svg width="18" height="18" viewBox="0 0 18 18" fill="none" xmlns="http://www.w3.org/2000/svg">
<g clip-path="url(#clip0_2064_13056)">
<path d="M12.3739 0.562729C11.9997 0.562718 11.9971 1.11339 12.376 1.12576C14.5616 1.12576 16.4271 2.69385 16.8066 4.84627C17.1861 6.9987 15.9694 9.11003 13.9157 9.85755C11.9007 10.591 9.65469 9.79781 8.53873 7.98004L9.0331 8.11242C9.39964 8.21649 9.54816 7.66159 9.17866 7.56861L8.02624 7.25936C7.8469 7.21833 7.71682 7.33079 7.68184 7.45875L7.37259 8.61064C7.26854 8.9772 7.82342 9.12574 7.91639 8.7562L8.04986 8.25689C9.29875 10.3149 11.8351 11.2112 14.1068 10.3843C16.4136 9.54473 17.7865 7.16716 17.3603 4.74959C16.9258 2.24088 14.7078 0.542264 12.3739 0.562729ZM12.4316 2.7463C10.7231 2.7463 9.33806 4.13137 9.33806 5.83996C9.33806 7.54854 10.7231 8.93362 12.4316 8.93362C14.1402 8.93362 15.5252 7.54854 15.5252 5.83996C15.5252 4.13137 14.1402 2.7463 12.4316 2.7463ZM12.7139 3.74328V3.98716C13.1882 4.0984 13.501 4.46206 13.64 4.90175C13.7522 5.26017 13.2144 5.42825 13.1023 5.06984C12.9898 4.71398 12.7576 4.52973 12.4212 4.51669C12.038 4.51988 11.7423 4.81017 11.7423 5.17585C11.7423 5.31908 11.7767 5.38913 11.8889 5.44391C12.0011 5.49866 12.2182 5.52906 12.4607 5.55432C12.7032 5.57962 12.9732 5.60013 13.2248 5.72296C13.4764 5.8458 13.6834 6.09159 13.6834 6.49637C13.6834 7.07878 13.2638 7.57263 12.7139 7.69276V7.9295C12.7224 8.31288 12.143 8.31288 12.1515 7.9295V7.68726C11.6023 7.54862 11.3592 7.15593 11.2276 6.78256C11.0924 6.41459 11.661 6.23377 11.7631 6.61228C11.8725 6.9495 12.1008 7.14121 12.442 7.15444C12.8241 7.15125 13.1232 6.85987 13.1232 6.49857C13.1232 6.34859 13.0854 6.2842 12.9732 6.22941C12.861 6.17467 12.645 6.1432 12.4025 6.11791C12.16 6.09261 11.8936 6.07368 11.6417 5.95147C11.3886 5.82862 11.1798 5.58486 11.1798 5.17585C11.1798 4.59269 11.5994 4.10332 12.1515 3.98003V3.74328C12.163 3.55623 12.2968 3.46258 12.4311 3.46258C12.5654 3.46258 12.7002 3.55623 12.7139 3.74328ZM6.72993 10.688C6.29368 10.688 5.51698 10.9821 4.90026 11.2774C4.77958 11.3351 4.70878 11.3746 4.60419 11.4268C4.71336 11.6268 4.78106 11.8525 4.78106 12.0953V15.8866C5.13922 15.8242 5.50254 15.7669 5.9071 15.7515C6.25477 15.7515 6.90464 16.2442 7.327 16.5425C7.92887 16.9673 8.57717 17.4373 9.28026 17.4373C9.4919 17.4373 9.70448 17.3677 9.98444 17.2632C11.523 16.688 14.7683 14.8519 16.6588 13.746C17.1372 13.4814 17.2943 12.8688 17.0241 12.4007C16.7648 11.9516 16.2384 11.8422 15.7267 12.0168L12.1953 13.2046C12.2206 13.4344 12.1795 13.6726 12.0558 13.8869C11.7466 14.4224 11.0549 14.6424 10.5194 14.3332L8.81281 13.3488C8.46001 13.1687 8.76413 12.6457 9.09515 12.8633L10.7996 13.847C11.0737 14.0053 11.4098 13.9157 11.568 13.6416C11.7263 13.3675 11.6362 13.0319 11.3621 12.8737C10.107 12.1491 7.87895 10.688 6.72993 10.688ZM1.40785 11.2505C0.934429 11.2505 0.5625 11.6333 0.5625 12.0959V16.0316C0.5625 16.4923 0.934682 16.8764 1.40236 16.8764H3.37599C3.88952 16.8764 4.21859 16.4401 4.21859 16.0311V12.0953C4.21859 11.6227 3.83629 11.2505 3.37654 11.2505H1.40785ZM1.96977 15.1884C2.12509 15.1884 2.251 15.3144 2.251 15.4697C2.251 15.625 2.12509 15.7509 1.96977 15.7509C1.81445 15.7509 1.68853 15.625 1.68853 15.4697C1.68853 15.3144 1.81445 15.1884 1.96977 15.1884Z" fill="#8147FF"/>
<rect x="6.32812" y="0.210938" width="11.1094" height="11.1094" rx="5.55469" fill="#8147FF"/>
<path fill-rule="evenodd" clip-rule="evenodd" d="M11.2547 2.27673C9.94179 2.51025 8.84746 3.50598 8.4434 4.83472C8.36972 5.07707 8.34363 5.33818 8.34815 5.787C8.35555 6.51093 8.51438 7.09697 8.84588 7.62331L9.04649 7.94177L10.1602 7.28288L11.274 6.62404L11.2892 7.96223L11.3043 9.30042H11.8679H12.4316V7.97938C12.4316 7.05774 12.4503 6.65833 12.4936 6.65833C12.5276 6.65833 13.0269 6.94036 13.6031 7.28512C14.4128 7.76953 14.6712 7.89933 14.741 7.8566C14.8345 7.79938 15.2936 6.95638 15.2507 6.92052C15.2374 6.90938 14.4735 6.45185 13.5531 5.90382L11.8797 4.90741L10.7514 5.58615C10.1309 5.95941 9.59148 6.26483 9.55275 6.26483C9.49973 6.26483 9.48787 6.12907 9.50476 5.71673C9.52407 5.2456 9.55241 5.11518 9.70661 4.78784C10.4583 3.19235 12.5422 2.91241 13.7198 4.24869C13.9461 4.50547 14.1639 4.97436 14.2383 5.36522C14.2699 5.53066 14.3018 5.6703 14.3094 5.67558C14.3169 5.68087 14.5645 5.82815 14.8595 6.00281L15.3959 6.32042L15.4135 5.85699C15.4376 5.22322 15.3479 4.80887 15.0571 4.21299C14.7549 3.59345 14.4225 3.20995 13.8674 2.84034C13.132 2.3506 12.0959 2.12709 11.2547 2.27673Z" fill="#1F222D"/>
</g>
<defs>
<clipPath id="clip0_2064_13056">
<rect width="18" height="18" fill="white"/>
</clipPath>
</defs>
</svg>
