<svg width="19" height="18" viewBox="0 0 19 18" fill="none" xmlns="http://www.w3.org/2000/svg">
<path d="M12.6478 1H6.35967C3.62831 1 2 2.736 2 5.648V12.344C2 15.264 3.62831 17 6.35967 17H12.6403C15.3717 17 17 15.264 17 12.352V5.648C17.0075 2.736 15.3792 1 12.6478 1ZM6.85492 6.584L9.10604 4.184C9.15857 4.128 9.2186 4.088 9.28613 4.056C9.4212 3.992 9.57878 3.992 9.71384 4.056C9.78138 4.088 9.84141 4.128 9.89393 4.184L12.1451 6.584C12.3627 6.816 12.3627 7.2 12.1451 7.432C12.0325 7.552 11.8899 7.608 11.7474 7.608C11.6048 7.608 11.4622 7.552 11.3497 7.432L10.059 6.056V11.008C10.059 11.336 9.80389 11.608 9.49623 11.608C9.18858 11.608 8.93345 11.336 8.93345 11.008V6.056L7.64281 7.432C7.4252 7.664 7.06502 7.664 6.84742 7.432C6.62981 7.2 6.63731 6.824 6.85492 6.584ZM14.1861 13.176C12.6778 13.712 11.0945 13.984 9.50374 13.984C7.91295 13.984 6.32966 13.712 4.82141 13.176C4.52876 13.072 4.37118 12.728 4.46873 12.416C4.56628 12.104 4.88894 11.928 5.18159 12.04C7.97298 13.032 11.042 13.032 13.8334 12.04C14.126 11.936 14.4487 12.104 14.5463 12.416C14.6363 12.736 14.4787 13.072 14.1861 13.176Z" fill="white"/>
</svg>
