<svg width="18" height="18" viewBox="0 0 18 18" fill="none" xmlns="http://www.w3.org/2000/svg">
<path d="M14.6965 4.7493C13.6855 4.64882 12.6745 4.57347 11.6572 4.51695V4.51067L11.519 3.69432C11.4248 3.11659 11.2867 2.25 9.81722 2.25H8.17196C6.7088 2.25 6.57065 3.07891 6.47017 3.68804L6.3383 4.49183C5.7543 4.52951 5.17029 4.56719 4.58628 4.6237L3.30524 4.7493C3.04149 4.77441 2.8531 5.00676 2.87822 5.26423C2.90334 5.52169 3.12941 5.71008 3.39315 5.68496L4.6742 5.55937C7.96473 5.23283 11.2804 5.35842 14.6086 5.69124C14.6274 5.69124 14.64 5.69124 14.6588 5.69124C14.8975 5.69124 15.1047 5.50913 15.1298 5.26423C15.1486 5.00676 14.9602 4.77441 14.6965 4.7493Z" fill="#81828A"/>
<path d="M13.5412 6.57666C13.3905 6.41967 13.1833 6.33176 12.9698 6.33176H5.03231C4.81881 6.33176 4.6053 6.41967 4.46087 6.57666C4.31644 6.73365 4.2348 6.94716 4.24736 7.16695L4.6367 13.6099C4.70577 14.5644 4.79369 15.7575 6.98528 15.7575H11.0168C13.2084 15.7575 13.2963 14.5706 13.3654 13.6099L13.7547 7.17323C13.7673 6.94716 13.6857 6.73365 13.5412 6.57666ZM10.0435 12.6114H7.95235C7.69488 12.6114 7.48137 12.3979 7.48137 12.1404C7.48137 11.883 7.69488 11.6694 7.95235 11.6694H10.0435C10.3009 11.6694 10.5144 11.883 10.5144 12.1404C10.5144 12.3979 10.3009 12.6114 10.0435 12.6114ZM10.571 10.0995H7.43114C7.17367 10.0995 6.96016 9.88603 6.96016 9.62857C6.96016 9.3711 7.17367 9.15759 7.43114 9.15759H10.571C10.8284 9.15759 11.0419 9.3711 11.0419 9.62857C11.0419 9.88603 10.8284 10.0995 10.571 10.0995Z" fill="#81828A"/>
</svg>
