<svg width="19" height="20" viewBox="0 0 19 20" fill="none" xmlns="http://www.w3.org/2000/svg">
<rect y="0.5" width="19" height="19" rx="9.5" fill="#8147FF"/>
<path d="M6.728 14.262V12.974C6.728 12.3953 6.97533 11.91 7.47 11.518L10.116 9.362C10.564 9.00733 10.788 8.59667 10.788 8.13V7.668C10.788 6.996 10.438 6.66 9.738 6.66H9.052C8.69733 6.66 8.44067 6.73933 8.282 6.898C8.12333 7.05667 8.044 7.31333 8.044 7.668V8.186C8.044 8.354 7.96467 8.438 7.806 8.438H6.91C6.75133 8.438 6.672 8.354 6.672 8.186V7.64C6.672 6.95867 6.86333 6.43133 7.246 6.058C7.62867 5.68467 8.16533 5.498 8.856 5.498H9.948C10.6293 5.498 11.1613 5.68467 11.544 6.058C11.9267 6.43133 12.118 6.95867 12.118 7.64V8.214C12.118 8.942 11.8333 9.53933 11.264 10.006L8.576 12.204C8.36133 12.3813 8.254 12.5913 8.254 12.834V13.282H11.894C12.062 13.282 12.146 13.3613 12.146 13.52V14.262C12.146 14.4207 12.062 14.5 11.894 14.5H6.98C6.812 14.5 6.728 14.4207 6.728 14.262Z" fill="white"/>
</svg>
