<svg width="19" height="18" viewBox="0 0 19 18" fill="none" xmlns="http://www.w3.org/2000/svg">
<g clip-path="url(#clip0_137_6844)">
<path d="M9.5 0C4.52581 0 0.5 4.02528 0.5 9C0.5 13.9742 4.52528 18 9.5 18C14.4742 18 18.5 13.9747 18.5 9C18.5 4.02581 14.4747 0 9.5 0ZM12.8495 9.65928H11.165V13.2343C11.165 13.5656 10.8963 13.8343 10.565 13.8343H8.43505C8.1037 13.8343 7.83504 13.5656 7.83504 13.2343V9.65928H6.15042C5.65071 9.65928 5.37118 9.08272 5.67736 8.6902L9.0269 4.39664C9.26723 4.08864 9.7333 4.0893 9.97306 4.39664L13.3226 8.6902C13.6289 9.08279 13.3493 9.65928 12.8495 9.65928Z" fill="white"/>
</g>
<defs>
<clipPath id="clip0_137_6844">
<rect width="18" height="18" fill="white" transform="translate(0.5)"/>
</clipPath>
</defs>
</svg>
