<svg width="80" height="80" viewBox="0 0 80 80" fill="none" xmlns="http://www.w3.org/2000/svg">
<path d="M45 29.5C43.8065 29.5 42.6619 29.0259 41.818 28.182C40.9741 27.3381 40.5 26.1935 40.5 25C40.5 23.8065 40.9741 22.6619 41.818 21.818C42.6619 20.9741 43.8065 20.5 45 20.5C46.1935 20.5 47.3381 20.9741 48.182 21.818C49.0259 22.6619 49.5 23.8065 49.5 25C49.5 26.1935 49.0259 27.3381 48.182 28.182C47.3381 29.0259 46.1935 29.5 45 29.5Z" fill="#FF0083"/>
<path d="M45 29.5C43.8065 29.5 42.6619 29.0259 41.818 28.182C40.9741 27.3381 40.5 26.1935 40.5 25C40.5 23.8065 40.9741 22.6619 41.818 21.818C42.6619 20.9741 43.8065 20.5 45 20.5C46.1935 20.5 47.3381 20.9741 48.182 21.818C49.0259 22.6619 49.5 23.8065 49.5 25C49.5 26.1935 49.0259 27.3381 48.182 28.182C47.3381 29.0259 46.1935 29.5 45 29.5Z" fill="url(#paint0_linear_63_7567)"/>
<path d="M45 29.5C43.8065 29.5 42.6619 29.0259 41.818 28.182C40.9741 27.3381 40.5 26.1935 40.5 25C40.5 23.8065 40.9741 22.6619 41.818 21.818C42.6619 20.9741 43.8065 20.5 45 20.5C46.1935 20.5 47.3381 20.9741 48.182 21.818C49.0259 22.6619 49.5 23.8065 49.5 25C49.5 26.1935 49.0259 27.3381 48.182 28.182C47.3381 29.0259 46.1935 29.5 45 29.5Z" stroke="#F058A6"/>
<path d="M63.3332 6.66626H16.6665C14.0168 6.67417 11.4778 7.73028 9.60418 9.60393C7.73053 11.4776 6.67442 14.0165 6.6665 16.6663V46.1996L19.5998 33.2663C21.5055 31.4525 24.0356 30.4409 26.6665 30.4409C29.2974 30.4409 31.8275 31.4525 33.7332 33.2663L43.3032 42.8896L46.2632 39.9296C48.1419 38.0614 50.6837 37.0127 53.3332 37.0127C55.9827 37.0127 58.5244 38.0614 60.4032 39.9296L73.3332 52.8663V16.6663C73.3253 14.0165 72.2691 11.4776 70.3955 9.60393C68.5218 7.73028 65.9829 6.67417 63.3332 6.66626ZM44.9998 29.9996C43.6738 29.9996 42.402 29.4728 41.4643 28.5351C40.5266 27.5974 39.9998 26.3257 39.9998 24.9996C39.9998 23.6735 40.5266 22.4017 41.4643 21.4641C42.402 20.5264 43.6738 19.9996 44.9998 19.9996C46.3259 19.9996 47.5977 20.5264 48.5354 21.4641C49.4731 22.4017 49.9998 23.6735 49.9998 24.9996C49.9998 26.3257 49.4731 27.5974 48.5354 28.5351C47.5977 29.4728 46.3259 29.9996 44.9998 29.9996Z" fill="#232833"/>
<path d="M26.6665 30.9417C29.1668 30.9417 31.5714 31.9022 33.3836 33.6246L69.8248 70.2639C68.0701 71.9087 65.75 72.8337 63.3332 72.8337L16.668 72.8337C16.6676 72.8337 16.6672 72.8337 16.6667 72.8337C14.1496 72.8259 11.7377 71.8224 9.95773 70.0425C8.17766 68.2624 7.17422 65.8503 7.1665 63.333V46.4075L19.949 33.625C21.7612 31.9023 24.166 30.9417 26.6665 30.9417Z" fill="#FF0083"/>
<path d="M26.6665 30.9417C29.1668 30.9417 31.5714 31.9022 33.3836 33.6246L69.8248 70.2639C68.0701 71.9087 65.75 72.8337 63.3332 72.8337L16.668 72.8337C16.6676 72.8337 16.6672 72.8337 16.6667 72.8337C14.1496 72.8259 11.7377 71.8224 9.95773 70.0425C8.17766 68.2624 7.17422 65.8503 7.1665 63.333V46.4075L19.949 33.625C21.7612 31.9023 24.166 30.9417 26.6665 30.9417Z" fill="url(#paint1_linear_63_7567)"/>
<path d="M26.6665 30.9417C29.1668 30.9417 31.5714 31.9022 33.3836 33.6246L69.8248 70.2639C68.0701 71.9087 65.75 72.8337 63.3332 72.8337L16.668 72.8337C16.6676 72.8337 16.6672 72.8337 16.6667 72.8337C14.1496 72.8259 11.7377 71.8224 9.95773 70.0425C8.17766 68.2624 7.17422 65.8503 7.1665 63.333V46.4075L19.949 33.625C21.7612 31.9023 24.166 30.9417 26.6665 30.9417Z" stroke="#F058A6"/>
<path d="M72.8333 63.3334V63.334C72.8363 65.6201 72.0056 67.8212 70.5071 69.5314L44.0095 42.891L46.6159 40.2846C46.6161 40.2844 46.6162 40.2843 46.6164 40.2841C48.4014 38.5094 50.8162 37.5132 53.3333 37.5132C55.8505 37.5132 58.2653 38.5094 60.0503 40.2841C60.0504 40.2843 60.0506 40.2844 60.0508 40.2846L72.8333 53.0672V63.3334Z" fill="#FF0083"/>
<path d="M72.8333 63.3334V63.334C72.8363 65.6201 72.0056 67.8212 70.5071 69.5314L44.0095 42.891L46.6159 40.2846C46.6161 40.2844 46.6162 40.2843 46.6164 40.2841C48.4014 38.5094 50.8162 37.5132 53.3333 37.5132C55.8505 37.5132 58.2653 38.5094 60.0503 40.2841C60.0504 40.2843 60.0506 40.2844 60.0508 40.2846L72.8333 53.0672V63.3334Z" fill="url(#paint2_linear_63_7567)"/>
<path d="M72.8333 63.3334V63.334C72.8363 65.6201 72.0056 67.8212 70.5071 69.5314L44.0095 42.891L46.6159 40.2846C46.6161 40.2844 46.6162 40.2843 46.6164 40.2841C48.4014 38.5094 50.8162 37.5132 53.3333 37.5132C55.8505 37.5132 58.2653 38.5094 60.0503 40.2841C60.0504 40.2843 60.0506 40.2844 60.0508 40.2846L72.8333 53.0672V63.3334Z" stroke="#F058A6"/>
<defs>
<linearGradient id="paint0_linear_63_7567" x1="45" y1="20" x2="45" y2="23.4216" gradientUnits="userSpaceOnUse">
<stop stop-color="white" stop-opacity="0.5"/>
<stop offset="1" stop-color="white" stop-opacity="0"/>
</linearGradient>
<linearGradient id="paint1_linear_63_7567" x1="38.5998" y1="30.4417" x2="38.5998" y2="45.1176" gradientUnits="userSpaceOnUse">
<stop stop-color="white" stop-opacity="0.5"/>
<stop offset="1" stop-color="white" stop-opacity="0"/>
</linearGradient>
<linearGradient id="paint2_linear_63_7567" x1="58.3183" y1="37.0132" x2="58.3184" y2="48.3866" gradientUnits="userSpaceOnUse">
<stop stop-color="white" stop-opacity="0.5"/>
<stop offset="1" stop-color="white" stop-opacity="0"/>
</linearGradient>
</defs>
</svg>
