<svg width="18" height="18" viewBox="0 0 18 18" fill="none" xmlns="http://www.w3.org/2000/svg">
<path d="M9 0C7.21997 0 5.47991 0.527841 3.99987 1.51677C2.51983 2.50571 1.36628 3.91131 0.685088 5.55585C0.00389943 7.20038 -0.17433 9.00998 0.172937 10.7558C0.520203 12.5016 1.37737 14.1053 2.63604 15.364C3.89471 16.6226 5.49836 17.4798 7.24419 17.8271C8.99002 18.1743 10.7996 17.9961 12.4442 17.3149C14.0887 16.6337 15.4943 15.4802 16.4832 14.0001C17.4722 12.5201 18 10.78 18 9C17.9974 6.61386 17.0483 4.3262 15.3611 2.63894C13.6738 0.95168 11.3861 0.00262529 9 0ZM4.49008 13.1172C4.31738 13.1172 4.14856 13.066 4.00497 12.9701C3.86138 12.8741 3.74946 12.7377 3.68337 12.5782C3.61728 12.4186 3.59999 12.2431 3.63368 12.0737C3.66737 11.9043 3.75053 11.7487 3.87265 11.6266C3.99477 11.5045 4.15035 11.4213 4.31973 11.3876C4.48912 11.3539 4.66468 11.3712 4.82424 11.4373C4.98379 11.5034 5.12016 11.6153 5.21611 11.7589C5.31206 11.9025 5.36327 12.0713 5.36327 12.244C5.36307 12.4756 5.27102 12.6975 5.1073 12.8613C4.94359 13.025 4.72161 13.117 4.49008 13.1172ZM4.49008 9.87318C4.31738 9.87318 4.14856 9.82197 4.00497 9.72602C3.86138 9.63008 3.74946 9.4937 3.68337 9.33415C3.61728 9.1746 3.59999 8.99903 3.63368 8.82965C3.66737 8.66027 3.75053 8.50468 3.87265 8.38256C3.99477 8.26045 4.15035 8.17728 4.31973 8.14359C4.48912 8.1099 4.66468 8.12719 4.82424 8.19328C4.98379 8.25937 5.12016 8.37129 5.21611 8.51488C5.31206 8.65848 5.36327 8.8273 5.36327 9C5.36307 9.23152 5.27102 9.4535 5.1073 9.61722C4.94359 9.78093 4.72161 9.87299 4.49008 9.87318ZM4.49008 6.62914C4.31738 6.62914 4.14856 6.57793 4.00497 6.48198C3.86138 6.38604 3.74946 6.24966 3.68337 6.09011C3.61728 5.93056 3.59999 5.75499 3.63368 5.58561C3.66737 5.41623 3.75053 5.26064 3.87265 5.13852C3.99477 5.01641 4.15035 4.93324 4.31973 4.89955C4.48912 4.86586 4.66468 4.88315 4.82424 4.94924C4.98379 5.01533 5.12016 5.12725 5.21611 5.27084C5.31206 5.41444 5.36327 5.58326 5.36327 5.75596C5.36298 5.98745 5.27089 6.20938 5.1072 6.37307C4.94351 6.53676 4.72158 6.62885 4.49008 6.62914ZM13.529 13.0981H7.06372C6.8372 13.0981 6.61996 13.0081 6.45979 12.848C6.29962 12.6878 6.20964 12.4706 6.20964 12.244C6.20964 12.0175 6.29962 11.8003 6.45979 11.6401C6.61996 11.4799 6.8372 11.39 7.06372 11.39H13.529C13.7555 11.39 13.9728 11.4799 14.1329 11.6401C14.2931 11.8003 14.3831 12.0175 14.3831 12.244C14.3831 12.4706 14.2931 12.6878 14.1329 12.848C13.9728 13.0081 13.7555 13.0981 13.529 13.0981ZM13.529 9.85408H7.06372C6.95156 9.85408 6.8405 9.83199 6.73687 9.78907C6.63325 9.74615 6.5391 9.68323 6.45979 9.60392C6.38048 9.52462 6.31757 9.43046 6.27465 9.32684C6.23173 9.22322 6.20964 9.11216 6.20964 9C6.20964 8.88784 6.23173 8.77678 6.27465 8.67316C6.31757 8.56953 6.38048 8.47538 6.45979 8.39607C6.5391 8.31676 6.63325 8.25385 6.73687 8.21093C6.8405 8.16801 6.95156 8.14592 7.06372 8.14592H13.529C13.6412 8.14592 13.7522 8.16801 13.8559 8.21093C13.9595 8.25385 14.0536 8.31676 14.1329 8.39607C14.2123 8.47538 14.2752 8.56953 14.3181 8.67316C14.361 8.77678 14.3831 8.88784 14.3831 9C14.3831 9.11216 14.361 9.22322 14.3181 9.32684C14.2752 9.43046 14.2123 9.52462 14.1329 9.60392C14.0536 9.68323 13.9595 9.74615 13.8559 9.78907C13.7522 9.83199 13.6412 9.85408 13.529 9.85408ZM13.529 6.61004H7.06372C6.8372 6.61004 6.61996 6.52006 6.45979 6.35988C6.29962 6.19971 6.20964 5.98247 6.20964 5.75596C6.20964 5.52944 6.29962 5.3122 6.45979 5.15203C6.61996 4.99186 6.8372 4.90188 7.06372 4.90188H13.529C13.7555 4.90188 13.9728 4.99186 14.1329 5.15203C14.2931 5.3122 14.3831 5.52944 14.3831 5.75596C14.3831 5.98247 14.2931 6.19971 14.1329 6.35988C13.9728 6.52006 13.7555 6.61004 13.529 6.61004Z" fill="#81828A"/>
</svg>
