<svg width="19" height="18" viewBox="0 0 19 18" fill="none" xmlns="http://www.w3.org/2000/svg">
<path d="M9.5 0.75C7.86831 0.75 6.27325 1.23385 4.91655 2.14038C3.55984 3.0469 2.50242 4.33537 1.878 5.84286C1.25357 7.35035 1.0902 9.00915 1.40853 10.6095C1.72685 12.2098 2.51259 13.6798 3.66637 14.8336C4.82016 15.9874 6.29017 16.7732 7.89051 17.0915C9.49085 17.4098 11.1497 17.2464 12.6571 16.622C14.1646 15.9976 15.4531 14.9402 16.3596 13.5835C17.2662 12.2268 17.75 10.6317 17.75 9C17.7474 6.81276 16.8774 4.71584 15.3308 3.16922C13.7842 1.6226 11.6872 0.75258 9.5 0.75ZM13.25 9.75H10.25V12.75C10.25 12.9489 10.171 13.1397 10.0303 13.2803C9.88968 13.421 9.69892 13.5 9.5 13.5C9.30109 13.5 9.11033 13.421 8.96967 13.2803C8.82902 13.1397 8.75 12.9489 8.75 12.75V9.75H5.75C5.55109 9.75 5.36033 9.67098 5.21967 9.53033C5.07902 9.38968 5 9.19891 5 9C5 8.80109 5.07902 8.61032 5.21967 8.46967C5.36033 8.32902 5.55109 8.25 5.75 8.25H8.75V5.25C8.75 5.05109 8.82902 4.86032 8.96967 4.71967C9.11033 4.57902 9.30109 4.5 9.5 4.5C9.69892 4.5 9.88968 4.57902 10.0303 4.71967C10.171 4.86032 10.25 5.05109 10.25 5.25V8.25H13.25C13.4489 8.25 13.6397 8.32902 13.7803 8.46967C13.921 8.61032 14 8.80109 14 9C14 9.19891 13.921 9.38968 13.7803 9.53033C13.6397 9.67098 13.4489 9.75 13.25 9.75Z" fill="white"/>
</svg>
