<svg width="24" height="24" viewBox="0 0 24 24" fill="none" xmlns="http://www.w3.org/2000/svg">
<path d="M19.5952 6.33239C18.2471 6.19843 16.8991 6.09795 15.5427 6.0226V6.01423L15.3585 4.92576C15.2329 4.15545 15.0487 3 13.0895 3H10.8958C8.94491 3 8.7607 4.10522 8.62674 4.91738L8.45091 5.98911C7.67223 6.03934 6.89356 6.08958 6.11488 6.16494L4.40682 6.33239C4.05516 6.36589 3.80397 6.67568 3.83747 7.01897C3.87096 7.36226 4.17238 7.61344 4.52404 7.57995L6.2321 7.41249C10.6195 6.9771 15.0403 7.14456 19.478 7.58832C19.5031 7.58832 19.5198 7.58832 19.5449 7.58832C19.8631 7.58832 20.1394 7.34551 20.1729 7.01897C20.198 6.67568 19.9468 6.36589 19.5952 6.33239Z" fill="white"/>
<path d="M18.0546 8.76892C17.8537 8.5596 17.5774 8.44238 17.2927 8.44238H6.70943C6.42475 8.44238 6.14007 8.5596 5.9475 8.76892C5.75492 8.97825 5.64607 9.26292 5.66282 9.55597L6.18194 18.1465C6.27404 19.4192 6.39126 21.01 9.31338 21.01H14.6888C17.6109 21.01 17.7281 19.4276 17.8202 18.1465L18.3393 9.56434C18.3561 9.26292 18.2472 8.97825 18.0546 8.76892ZM13.391 16.8152H10.6028C10.2595 16.8152 9.97484 16.5306 9.97484 16.1873C9.97484 15.844 10.2595 15.5593 10.6028 15.5593H13.391C13.7342 15.5593 14.0189 15.844 14.0189 16.1873C14.0189 16.5306 13.7342 16.8152 13.391 16.8152ZM14.0943 13.4661H9.90786C9.56457 13.4661 9.27989 13.1814 9.27989 12.8381C9.27989 12.4948 9.56457 12.2102 9.90786 12.2102H14.0943C14.4376 12.2102 14.7222 12.4948 14.7222 12.8381C14.7222 13.1814 14.4376 13.4661 14.0943 13.4661Z" fill="white"/>
</svg>
