<svg width="20" height="20" viewBox="0 0 20 20" fill="none" xmlns="http://www.w3.org/2000/svg">
<path d="M4.01367 20H16.308L9.9852 9.42322L4.01367 20ZM10.5854 18.2031H9.41355V17.0313H10.5854V18.2031ZM10.5854 15.8594H9.41355V13.5156H10.5854V15.8594Z" fill="#81828A"/>
<path d="M16.2216 5.89844L17.3934 3.55469H18.7891V2.38281H16.6691L15.4972 4.72656C15.3175 4.72656 12.6715 4.72656 12.8704 4.72656C12.724 4.00801 12.3079 3.39168 11.7398 2.96875H11.7578C11.7578 1.99945 12.5463 1.17188 13.5156 1.17188H15.2734V0H13.5156C12.0754 0 10.8811 1.08598 10.6377 2.45742C10.4317 2.41141 10.2196 2.38281 10 2.38281C9.78043 2.38281 9.56828 2.41141 9.36234 2.45742C9.11895 1.08598 7.92461 0 6.48438 0H4.72656V1.17188H6.48438C7.45367 1.17188 8.24219 1.99945 8.24219 2.96875H8.26027C7.69215 3.39168 7.27602 4.00801 7.12961 4.72656C6.95215 4.72656 4.34656 4.72656 4.50285 4.72656L3.33098 2.38281H1.21094V3.55469H2.60656L3.77844 5.89844H5.89844V7.07031H3.77844L2.60656 9.41406H1.21094V10.5859H3.33094L4.50281 8.24219H5.89844V9.75738L3.55469 12.1011V14.1016H2.38281V15.2734H4.72656V12.5864L6.0982 11.2147C6.25801 11.7199 6.50332 12.193 6.83793 12.6009L9.41406 8.05449V7.07031H10.5859V8.14621L13.2205 12.537C13.5293 12.146 13.7568 11.6984 13.9066 11.2196L15.2734 12.5864V15.2734H17.6172V14.1016H16.4453V12.1011L14.1016 9.75738V8.24219H15.4972L16.6691 10.5859H18.7891V9.41406H17.3934L16.2216 7.07031H14.1016V5.89844H16.2216Z" fill="#81828A"/>
</svg>
