<svg width="19" height="18" viewBox="0 0 19 18" fill="none" xmlns="http://www.w3.org/2000/svg">
<path d="M12.5 3.1875C12.5 4.1175 11.7425 4.875 10.8125 4.875H8.1875C7.7225 4.875 7.3025 4.6875 6.995 4.38C6.6875 4.0725 6.5 3.6525 6.5 3.1875C6.5 2.2575 7.2575 1.5 8.1875 1.5H10.8125C11.2775 1.5 11.6975 1.6875 12.005 1.995C12.3125 2.3025 12.5 2.7225 12.5 3.1875Z" fill="white"/>
<path d="M14.6225 3.77253C14.45 3.63003 14.255 3.51753 14.045 3.43503C13.8275 3.35253 13.61 3.52503 13.565 3.75003C13.31 5.03253 12.1775 6.00003 10.8125 6.00003H8.1875C7.4375 6.00003 6.7325 5.70753 6.2 5.17503C5.81 4.78503 5.54 4.29003 5.435 3.75753C5.39 3.53253 5.165 3.35253 4.9475 3.44253C4.0775 3.79503 3.5 4.59003 3.5 6.18753V13.5C3.5 15.75 4.8425 16.5 6.5 16.5H12.5C14.1575 16.5 15.5 15.75 15.5 13.5V6.18753C15.5 4.96503 15.1625 4.21503 14.6225 3.77253ZM6.5 9.18753H9.5C9.8075 9.18753 10.0625 9.44253 10.0625 9.75003C10.0625 10.0575 9.8075 10.3125 9.5 10.3125H6.5C6.1925 10.3125 5.9375 10.0575 5.9375 9.75003C5.9375 9.44253 6.1925 9.18753 6.5 9.18753ZM12.5 13.3125H6.5C6.1925 13.3125 5.9375 13.0575 5.9375 12.75C5.9375 12.4425 6.1925 12.1875 6.5 12.1875H12.5C12.8075 12.1875 13.0625 12.4425 13.0625 12.75C13.0625 13.0575 12.8075 13.3125 12.5 13.3125Z" fill="white"/>
</svg>
