<svg width="18" height="18" viewBox="0 0 18 18" fill="none" xmlns="http://www.w3.org/2000/svg">
<path d="M12.3577 1H5.65032C2.73687 1 1 2.736 1 5.648V12.344C1 15.264 2.73687 17 5.65032 17H12.3497C15.2631 17 17 15.264 17 12.352V5.648C17.008 2.736 15.2711 1 12.3577 1ZM8.16357 13.408C7.93145 13.64 7.49123 13.864 7.17107 13.912L5.20209 14.192C5.13006 14.2 5.05802 14.208 4.98599 14.208C4.65782 14.208 4.35367 14.096 4.13756 13.88C3.87343 13.616 3.76138 13.232 3.82541 12.808L4.10555 10.84C4.15357 10.512 4.36968 10.08 4.6098 9.848L8.17958 6.28C8.24361 6.448 8.30764 6.616 8.39569 6.808C8.47572 6.976 8.56377 7.152 8.65982 7.312C8.73986 7.448 8.8279 7.576 8.89994 7.672C8.98798 7.808 9.09203 7.936 9.15606 8.008C9.19608 8.064 9.2281 8.104 9.24411 8.12C9.44421 8.36 9.67632 8.584 9.87642 8.752C9.93245 8.808 9.96447 8.84 9.98048 8.848C10.1005 8.944 10.2206 9.04 10.3246 9.112C10.4527 9.208 10.5808 9.296 10.7168 9.368C10.8769 9.464 11.053 9.552 11.2291 9.64C11.4132 9.72 11.5813 9.792 11.7494 9.848L8.16357 13.408ZM13.3021 8.272L12.5658 9.016C12.5177 9.064 12.4537 9.088 12.3897 9.088C12.3657 9.088 12.3336 9.088 12.3176 9.08C10.6928 8.616 9.39618 7.32 8.93195 5.696C8.90794 5.608 8.93195 5.512 8.99598 5.456L9.74036 4.712C10.957 3.496 12.1175 3.52 13.3101 4.712C13.9184 5.32 14.2146 5.904 14.2146 6.512C14.2066 7.088 13.9104 7.664 13.3021 8.272Z" fill="#81828A"/>
</svg>
