<svg width="19" height="19" viewBox="0 0 19 19" fill="none" xmlns="http://www.w3.org/2000/svg">
<path d="M12.8577 1.5H6.15032C3.23687 1.5 1.5 3.236 1.5 6.148V12.844C1.5 15.764 3.23687 17.5 6.15032 17.5H12.8497C15.7631 17.5 17.5 15.764 17.5 12.852V6.148C17.508 3.236 15.7711 1.5 12.8577 1.5ZM8.66357 13.908C8.43145 14.14 7.99123 14.364 7.67107 14.412L5.70209 14.692C5.63006 14.7 5.55802 14.708 5.48599 14.708C5.15782 14.708 4.85367 14.596 4.63756 14.38C4.37343 14.116 4.26138 13.732 4.32541 13.308L4.60555 11.34C4.65357 11.012 4.86968 10.58 5.1098 10.348L8.67958 6.78C8.74361 6.948 8.80764 7.116 8.89569 7.308C8.97572 7.476 9.06377 7.652 9.15982 7.812C9.23986 7.948 9.3279 8.076 9.39994 8.172C9.48798 8.308 9.59203 8.436 9.65606 8.508C9.69608 8.564 9.7281 8.604 9.74411 8.62C9.94421 8.86 10.1763 9.084 10.3764 9.252C10.4325 9.308 10.4645 9.34 10.4805 9.348C10.6005 9.444 10.7206 9.54 10.8246 9.612C10.9527 9.708 11.0808 9.796 11.2168 9.868C11.3769 9.964 11.553 10.052 11.7291 10.14C11.9132 10.22 12.0813 10.292 12.2494 10.348L8.66357 13.908ZM13.8021 8.772L13.0658 9.516C13.0177 9.564 12.9537 9.588 12.8897 9.588C12.8657 9.588 12.8336 9.588 12.8176 9.58C11.1928 9.116 9.89618 7.82 9.43195 6.196C9.40794 6.108 9.43195 6.012 9.49598 5.956L10.2404 5.212C11.457 3.996 12.6175 4.02 13.8101 5.212C14.4184 5.82 14.7146 6.404 14.7146 7.012C14.7066 7.588 14.4104 8.164 13.8021 8.772Z" fill="white"/>
</svg>
