<svg width="18" height="18" viewBox="0 0 18 18" fill="none" xmlns="http://www.w3.org/2000/svg">
<g clip-path="url(#clip0_147_13736)">
<path d="M9 0C4.02581 0 0 4.02528 0 9C0 13.9742 4.02528 18 9 18C13.9742 18 18 13.9747 18 9C18 4.02581 13.9747 0 9 0ZM12.3495 9.65928H10.665V13.2343C10.665 13.5656 10.3963 13.8343 10.065 13.8343H7.93505C7.6037 13.8343 7.33504 13.5656 7.33504 13.2343V9.65928H5.65042C5.15071 9.65928 4.87118 9.08272 5.17736 8.6902L8.5269 4.39664C8.76723 4.08864 9.2333 4.0893 9.47306 4.39664L12.8226 8.6902C13.1289 9.08279 12.8493 9.65928 12.3495 9.65928Z" fill="#81828A"/>
</g>
<defs>
<clipPath id="clip0_147_13736">
<rect width="18" height="18" fill="white"/>
</clipPath>
</defs>
</svg>
