<svg width="20" height="20" viewBox="0 0 20 20" fill="none" xmlns="http://www.w3.org/2000/svg">
<g clip-path="url(#clip0_1157_9719)">
<path d="M11.1343 12.9634C10.5672 12.3012 10.5672 11.34 11.1343 10.6778C12.2136 9.41774 13.7837 8.69502 15.4419 8.69502C15.6062 8.69502 15.7695 8.70241 15.9317 8.71643V0.589832C15.9317 0.266177 15.6693 0.00378418 15.3456 0.00378418H5.5347V3.94718C5.5347 4.27083 5.2723 4.53323 4.94865 4.53323H1.00537V19.414C1.00537 19.7376 1.26776 20 1.59142 20H15.3456C15.6693 20 15.9317 19.7376 15.9317 19.414V14.9248C15.7695 14.9388 15.6062 14.9462 15.4419 14.9462C13.7836 14.9462 12.2136 14.2235 11.1343 12.9634ZM12.7736 7.74942H10.869C10.5453 7.74942 10.2829 7.48702 10.2829 7.16337C10.2829 6.83972 10.5453 6.57732 10.869 6.57732H12.7736C13.0972 6.57732 13.3596 6.83972 13.3596 7.16337C13.3596 7.48702 13.0972 7.74942 12.7736 7.74942ZM4.17268 6.58361H8.32014C8.6438 6.58361 8.90619 6.846 8.90619 7.16966C8.90619 7.49331 8.6438 7.75571 8.32014 7.75571H4.17268C3.84903 7.75571 3.58664 7.49331 3.58664 7.16966C3.58664 6.846 3.84903 6.58361 4.17268 6.58361ZM4.17268 8.92389H8.32014C8.6438 8.92389 8.90619 9.18629 8.90619 9.50994C8.90619 9.8336 8.6438 10.096 8.32014 10.096H4.17268C3.84903 10.096 3.58664 9.8336 3.58664 9.50994C3.58664 9.18629 3.84903 8.92389 4.17268 8.92389ZM4.17268 11.2345H8.32014C8.6438 11.2345 8.90619 11.4969 8.90619 11.8206C8.90619 12.1442 8.6438 12.4066 8.32014 12.4066H4.17268C3.84903 12.4066 3.58664 12.1442 3.58664 11.8206C3.58664 11.4969 3.84903 11.2345 4.17268 11.2345ZM4.17268 13.5789H8.32014C8.6438 13.5789 8.90619 13.8413 8.90619 14.1649C8.90619 14.4886 8.6438 14.751 8.32014 14.751H4.17268C3.84903 14.751 3.58664 14.4886 3.58664 14.1649C3.58664 13.8413 3.84903 13.5789 4.17268 13.5789ZM4.17268 15.9064H12.7673C13.0909 15.9064 13.3533 16.1688 13.3533 16.4924C13.3533 16.8161 13.0909 17.0785 12.7673 17.0785H4.17268C3.84903 17.0785 3.58664 16.8161 3.58664 16.4924C3.58664 16.1688 3.84903 15.9064 4.17268 15.9064Z" fill="#81828A"/>
<path d="M15.4418 9.86707C14.1264 9.86707 12.8808 10.4405 12.0245 11.4402C11.8388 11.657 11.8388 11.9841 12.0245 12.2009C12.8808 13.2006 14.1264 13.774 15.4418 13.774C16.7573 13.774 18.0029 13.2007 18.8592 12.2009C19.0449 11.9841 19.0449 11.657 18.8592 11.4402C18.0029 10.4405 16.7573 9.86707 15.4418 9.86707ZM15.4418 12.4066C15.1133 12.4066 14.87 12.1381 14.8558 11.8206C14.8416 11.5041 15.1353 11.2345 15.4418 11.2345C15.7704 11.2345 16.0137 11.503 16.0279 11.8206C16.0421 12.1371 15.7484 12.4066 15.4418 12.4066Z" fill="#81828A"/>
<path d="M3.77769 3.36111C4.10091 3.36111 4.36315 3.09942 4.36374 2.7762C4.36553 1.81188 4.36815 -0.00553524 4.36256 1.26727e-05L1.00146 3.36111H3.77769Z" fill="#81828A"/>
</g>
<defs>
<clipPath id="clip0_1157_9719">
<rect width="20" height="20" fill="white"/>
</clipPath>
</defs>
</svg>
