<svg width="19" height="18" viewBox="0 0 19 18" fill="none" xmlns="http://www.w3.org/2000/svg">
<g clip-path="url(#clip0_56_1693)">
<path d="M17.9111 4.10063L14.5361 0.725634C14.4835 0.673501 14.4212 0.632256 14.3527 0.604263C14.2841 0.57627 14.2107 0.562081 14.1367 0.562509H13.0117V5.06251C13.0117 5.36088 12.8932 5.64703 12.6822 5.858C12.4712 6.06898 12.1851 6.18751 11.8867 6.18751H7.38672C7.08835 6.18751 6.8022 6.06898 6.59122 5.858C6.38025 5.64703 6.26172 5.36088 6.26172 5.06251V0.562509H2.88672C2.43917 0.562509 2.00994 0.740299 1.69348 1.05677C1.37701 1.37323 1.19922 1.80246 1.19922 2.25001V15.75C1.19922 16.1976 1.37701 16.6268 1.69348 16.9433C2.00994 17.2597 2.43917 17.4375 2.88672 17.4375H4.01172V12.375C4.01172 11.9275 4.18951 11.4982 4.50598 11.1818C4.82244 10.8653 5.25167 10.6875 5.69922 10.6875H13.5742C14.0218 10.6875 14.451 10.8653 14.7675 11.1818C15.0839 11.4982 15.2617 11.9275 15.2617 12.375V17.4375H16.3867C16.8343 17.4375 17.2635 17.2597 17.58 16.9433C17.8964 16.6268 18.0742 16.1976 18.0742 15.75V4.50001C18.0746 4.42598 18.0605 4.3526 18.0325 4.28406C18.0045 4.21553 17.9632 4.15319 17.9111 4.10063Z" fill="white"/>
<path d="M7.38672 0.5625H11.8867V5.0625H7.38672V0.5625Z" fill="white"/>
<path d="M13.5742 11.8125H5.69922C5.55003 11.8125 5.40696 11.8718 5.30147 11.9773C5.19598 12.0827 5.13672 12.2258 5.13672 12.375V17.4375H14.1367V12.375C14.1367 12.2258 14.0775 12.0827 13.972 11.9773C13.8665 11.8718 13.7234 11.8125 13.5742 11.8125Z" fill="white"/>
</g>
<defs>
<clipPath id="clip0_56_1693">
<rect width="18" height="18" fill="white" transform="translate(0.636719)"/>
</clipPath>
</defs>
</svg>
