<svg width="57" height="56" viewBox="0 0 57 56" fill="none" xmlns="http://www.w3.org/2000/svg">
<path d="M28.5 0.5C43.6895 0.5 56 12.8105 56 28C56 43.1895 43.6895 55.5 28.5 55.5C13.3105 55.5 1 43.1895 1 28C1 12.8105 13.3105 0.5 28.5 0.5Z" fill="url(#paint0_linear_636_27093)" stroke="url(#paint1_linear_636_27093)"/>
<path d="M39.536 39.288V19.82C39.536 17.464 37.676 15.604 35.32 15.604H35.072C35.072 18.208 32.964 20.192 30.484 20.192H26.392C23.788 20.192 21.804 18.084 21.804 15.604H21.556C19.2 15.604 17.34 17.464 17.34 19.82V39.412C17.34 41.768 19.2 43.628 21.556 43.628H35.444C37.676 43.504 39.536 41.644 39.536 39.288ZM28.252 39.04C24.284 39.04 21.184 35.816 21.184 31.972C21.184 28.004 24.408 24.904 28.252 24.904C32.22 24.904 35.32 28.128 35.32 31.972C35.32 35.94 32.096 39.04 28.252 39.04Z" fill="#FF0083"/>
<path d="M30.608 17.8361C31.848 17.8361 32.716 16.8441 32.716 15.7281C32.716 14.6121 31.724 13.6201 30.608 13.6201H26.516C25.276 13.6201 24.408 14.6121 24.408 15.7281C24.408 16.8441 25.4 17.8361 26.516 17.8361H30.608Z" fill="#FF0083"/>
<path d="M30.8559 29.74L27.0119 32.096L26.1439 30.732C25.7719 30.112 25.0279 29.988 24.4079 30.36C23.7879 30.732 23.6639 31.476 24.0359 32.096L25.2759 34.08C25.7719 34.824 26.8879 35.196 27.6319 34.576L31.9719 31.848C32.5919 31.476 32.7159 30.732 32.3439 30.112C32.2199 29.492 31.4759 29.368 30.8559 29.74Z" fill="#FF0083"/>
<defs>
<linearGradient id="paint0_linear_636_27093" x1="28.5" y1="0" x2="28.5" y2="56" gradientUnits="userSpaceOnUse">
<stop stop-color="#232631"/>
<stop offset="1" stop-color="#1D202B" stop-opacity="0.4"/>
</linearGradient>
<linearGradient id="paint1_linear_636_27093" x1="28.5" y1="0" x2="28.5" y2="56" gradientUnits="userSpaceOnUse">
<stop stop-color="#343742"/>
<stop offset="1" stop-color="#343742" stop-opacity="0"/>
</linearGradient>
</defs>
</svg>
