<svg width="60" height="61" viewBox="0 0 60 61" fill="none" xmlns="http://www.w3.org/2000/svg">
<path d="M33.75 22.5C32.888 22.5 32.0614 22.1576 31.4519 21.5481C30.8424 20.9386 30.5 20.112 30.5 19.25C30.5 18.388 30.8424 17.5614 31.4519 16.9519C32.0614 16.3424 32.888 16 33.75 16C34.612 16 35.4386 16.3424 36.0481 16.9519C36.6576 17.5614 37 18.388 37 19.25C37 20.112 36.6576 20.9386 36.0481 21.5481C35.4386 22.1576 34.612 22.5 33.75 22.5Z" fill="#FF0083"/>
<path d="M33.75 22.5C32.888 22.5 32.0614 22.1576 31.4519 21.5481C30.8424 20.9386 30.5 20.112 30.5 19.25C30.5 18.388 30.8424 17.5614 31.4519 16.9519C32.0614 16.3424 32.888 16 33.75 16C34.612 16 35.4386 16.3424 36.0481 16.9519C36.6576 17.5614 37 18.388 37 19.25C37 20.112 36.6576 20.9386 36.0481 21.5481C35.4386 22.1576 34.612 22.5 33.75 22.5Z" fill="url(#paint0_linear_135_6166)"/>
<path d="M33.75 22.5C32.888 22.5 32.0614 22.1576 31.4519 21.5481C30.8424 20.9386 30.5 20.112 30.5 19.25C30.5 18.388 30.8424 17.5614 31.4519 16.9519C32.0614 16.3424 32.888 16 33.75 16C34.612 16 35.4386 16.3424 36.0481 16.9519C36.6576 17.5614 37 18.388 37 19.25C37 20.112 36.6576 20.9386 36.0481 21.5481C35.4386 22.1576 34.612 22.5 33.75 22.5Z" stroke="#F058A6"/>
<path d="M47.4999 5.49976H12.4999C10.5126 5.50569 8.60837 6.29777 7.20313 7.70301C5.7979 9.10825 5.00581 11.0125 4.99988 12.9998V35.1498L14.6999 25.4498C16.1291 24.0894 18.0267 23.3307 19.9999 23.3307C21.973 23.3307 23.8706 24.0894 25.2999 25.4498L32.4774 32.6673L34.6974 30.4473C36.1064 29.0461 38.0128 28.2596 39.9999 28.2596C41.987 28.2596 43.8933 29.0461 45.3024 30.4473L54.9999 40.1498V12.9998C54.9939 11.0125 54.2019 9.10825 52.7966 7.70301C51.3914 6.29777 49.4872 5.50569 47.4999 5.49976ZM33.7499 22.9998C32.7553 22.9998 31.8015 22.6047 31.0982 21.9014C30.395 21.1981 29.9999 20.2443 29.9999 19.2498C29.9999 18.2552 30.395 17.3014 31.0982 16.5981C31.8015 15.8948 32.7553 15.4998 33.7499 15.4998C34.7444 15.4998 35.6983 15.8948 36.4015 16.5981C37.1048 17.3014 37.4999 18.2552 37.4999 19.2498C37.4999 20.2443 37.1048 21.1981 36.4015 21.9014C35.6983 22.6047 34.7444 22.9998 33.7499 22.9998Z" fill="#232833"/>
<path d="M19.9999 23.8313C21.8424 23.8313 23.6146 24.5389 24.9503 25.8079L52.1884 53.194C50.9072 54.3515 49.2374 55.0003 47.4999 55.0003L12.5014 55.0003C12.5012 55.0003 12.501 55.0003 12.5007 55.0003C10.6458 54.9946 8.86837 54.2552 7.55669 52.9435C6.24502 51.6319 5.50561 49.8545 5.49988 47.9996V35.3575L15.049 25.8083C16.3848 24.5391 18.1571 23.8313 19.9999 23.8313Z" fill="#FF0083"/>
<path d="M19.9999 23.8313C21.8424 23.8313 23.6146 24.5389 24.9503 25.8079L52.1884 53.194C50.9072 54.3515 49.2374 55.0003 47.4999 55.0003L12.5014 55.0003C12.5012 55.0003 12.501 55.0003 12.5007 55.0003C10.6458 54.9946 8.86837 54.2552 7.55669 52.9435C6.24502 51.6319 5.50561 49.8545 5.49988 47.9996V35.3575L15.049 25.8083C16.3848 24.5391 18.1571 23.8313 19.9999 23.8313Z" fill="url(#paint1_linear_135_6166)"/>
<path d="M19.9999 23.8313C21.8424 23.8313 23.6146 24.5389 24.9503 25.8079L52.1884 53.194C50.9072 54.3515 49.2374 55.0003 47.4999 55.0003L12.5014 55.0003C12.5012 55.0003 12.501 55.0003 12.5007 55.0003C10.6458 54.9946 8.86837 54.2552 7.55669 52.9435C6.24502 51.6319 5.50561 49.8545 5.49988 47.9996V35.3575L15.049 25.8083C16.3848 24.5391 18.1571 23.8313 19.9999 23.8313Z" stroke="#F058A6"/>
<path d="M54.5 47.9999V48.0006C54.5022 49.6398 53.9225 51.2196 52.8736 52.4644L33.1837 32.6684L35.0501 30.802C35.0503 30.8018 35.0504 30.8017 35.0506 30.8015C36.3659 29.4938 38.1453 28.7598 40 28.7598C41.8548 28.7598 43.6342 29.4938 44.9495 30.8015C44.9496 30.8016 44.9498 30.8018 44.95 30.802L54.5 40.352V47.9999Z" fill="#FF0083"/>
<path d="M54.5 47.9999V48.0006C54.5022 49.6398 53.9225 51.2196 52.8736 52.4644L33.1837 32.6684L35.0501 30.802C35.0503 30.8018 35.0504 30.8017 35.0506 30.8015C36.3659 29.4938 38.1453 28.7598 40 28.7598C41.8548 28.7598 43.6342 29.4938 44.9495 30.8015C44.9496 30.8016 44.9498 30.8018 44.95 30.802L54.5 40.352V47.9999Z" fill="url(#paint2_linear_135_6166)"/>
<path d="M54.5 47.9999V48.0006C54.5022 49.6398 53.9225 51.2196 52.8736 52.4644L33.1837 32.6684L35.0501 30.802C35.0503 30.8018 35.0504 30.8017 35.0506 30.8015C36.3659 29.4938 38.1453 28.7598 40 28.7598C41.8548 28.7598 43.6342 29.4938 44.9495 30.8015C44.9496 30.8016 44.9498 30.8018 44.95 30.802L54.5 40.352V47.9999Z" stroke="#F058A6"/>
<defs>
<linearGradient id="paint0_linear_135_6166" x1="33.75" y1="15.5" x2="33.75" y2="18.0662" gradientUnits="userSpaceOnUse">
<stop stop-color="white" stop-opacity="0.5"/>
<stop offset="1" stop-color="white" stop-opacity="0"/>
</linearGradient>
<linearGradient id="paint1_linear_135_6166" x1="28.9499" y1="23.3313" x2="28.9499" y2="34.3382" gradientUnits="userSpaceOnUse">
<stop stop-color="white" stop-opacity="0.5"/>
<stop offset="1" stop-color="white" stop-opacity="0"/>
</linearGradient>
<linearGradient id="paint2_linear_135_6166" x1="43.7388" y1="28.2598" x2="43.7388" y2="36.7898" gradientUnits="userSpaceOnUse">
<stop stop-color="white" stop-opacity="0.5"/>
<stop offset="1" stop-color="white" stop-opacity="0"/>
</linearGradient>
</defs>
</svg>
