<svg width="24" height="24" viewBox="0 0 24 24" fill="none" xmlns="http://www.w3.org/2000/svg">
<path d="M9.58036 5.27704L15.8046 11.4829C15.8785 11.5567 15.931 11.6368 15.962 11.723C15.993 11.8091 16.0083 11.9015 16.0078 12C16.0078 12.0985 15.9925 12.1909 15.962 12.277C15.9315 12.3632 15.879 12.4433 15.8046 12.5172L9.58036 18.7414C9.40798 18.9138 9.1925 19 8.93392 19C8.67535 19 8.45371 18.9077 8.26902 18.723C8.08432 18.5383 7.99197 18.3228 7.99197 18.0765C7.99197 17.8303 8.08432 17.6148 8.26902 17.4301L13.6991 12L8.26902 6.56992C8.09663 6.39754 8.01044 6.18501 8.01044 5.93235C8.01044 5.67968 8.10279 5.46125 8.28749 5.27704C8.47218 5.09235 8.68766 5 8.93392 5C9.18019 5 9.39567 5.09235 9.58036 5.27704Z" fill="white"/>
</svg>
