<svg width="42" height="42" viewBox="0 0 42 42" fill="none" xmlns="http://www.w3.org/2000/svg">
<g filter="url(#filter0_d_163_18222)">
<path d="M17.5 11.0207C19.6658 9.7703 22.3342 9.7703 24.5 11.0207L27.8923 12.9793C30.0581 14.2297 31.3923 16.5406 31.3923 19.0415V22.9585C31.3923 25.4594 30.0581 27.7703 27.8923 29.0207L24.5 30.9793C22.3342 32.2297 19.6658 32.2297 17.5 30.9793L14.1077 29.0207C11.9419 27.7703 10.6077 25.4594 10.6077 22.9585V19.0415C10.6077 16.5406 11.9419 14.2297 14.1077 12.9793L17.5 11.0207Z" fill="#181A25"/>
</g>
<path d="M17.7503 13.4506C19.7614 12.2895 22.2392 12.2895 24.2503 13.4506L25.9133 14.4107C27.9244 15.5718 29.1633 17.7177 29.1633 20.0399V21.9602C29.1633 24.2824 27.9244 26.4282 25.9133 27.5894L24.2503 28.5495C22.2392 29.7106 19.7614 29.7106 17.7503 28.5495L16.0872 27.5894C14.0761 26.4282 12.8372 24.2824 12.8372 21.9602V20.0399C12.8372 17.7177 14.0761 15.5718 16.0872 14.4107L17.7503 13.4506Z" fill="url(#paint0_linear_163_18222)" stroke="url(#paint1_linear_163_18222)"/>
<path d="M20.8869 16.4456L21.2967 17.3449L22.2462 17.4336L21.4948 18.1332L21.727 19.0325L20.8869 18.5108L20.0466 19.0325L20.2787 18.1332L19.5273 17.4336L20.4771 17.3449L20.8869 16.4456Z" fill="#FE8900"/>
<path d="M20.8873 16.4456L21.2971 17.3449L22.2466 17.4336L21.4952 18.1332L21.7274 19.0325L20.8873 18.5108L20.047 19.0325L20.2792 18.1332L19.5278 17.4336L20.4773 17.3449L20.8873 16.4456ZM20.8873 16.3099L20.8361 16.4225L20.4399 17.2919L19.5224 17.3778L19.3975 17.3896L19.4895 17.4741L20.2161 18.1498L19.9927 19.0168L19.9572 19.1544L20.0765 19.0804L20.887 18.577L21.6975 19.0804L21.8166 19.1544L21.7817 19.0185L21.558 18.1515L22.2846 17.4758L22.3766 17.3913L22.2517 17.3795L21.3362 17.2917L20.9399 16.4222L20.8887 16.3096L20.8873 16.3099Z" fill="#FE8900"/>
<path d="M20.8868 24.3279L21.0926 24.7792L21.5693 24.824L21.1919 25.1754L21.3087 25.6267L20.8868 25.3649L20.465 25.6267L20.5815 25.1754L20.2041 24.824L20.6811 24.7792L20.8868 24.3279Z" fill="#FE8900"/>
<path d="M20.8873 24.3277L21.093 24.7782L21.5697 24.823L21.1926 25.1743L21.3091 25.6248L20.887 25.363L20.4648 25.6248L20.5814 25.1743L20.204 24.823L20.6807 24.7782L20.8867 24.3277M20.8867 24.2596L20.8608 24.3159L20.6618 24.7526L20.2014 24.7956L20.1387 24.8016L20.1848 24.8446L20.5507 25.1842L20.4381 25.6195L20.4207 25.6879L20.4806 25.6505L20.8875 25.3971L21.2945 25.6505L21.3541 25.6879L21.3367 25.6195L21.2241 25.1842L21.59 24.8446L21.6361 24.8016L21.5734 24.7956L21.111 24.7526L20.914 24.3156L20.8884 24.2593L20.8867 24.2596Z" fill="#FE8900"/>
<path d="M17.0874 18.6038L16.6962 18.1814L17.003 17.8762L18.6313 19.5056V19.6591L19.0455 20.0735H19.2248L20.2137 21.0629C20.2137 21.0629 20.3395 21.2076 20.259 21.3402C20.1786 21.4729 19.9959 21.7254 19.9959 21.7254L19.9455 21.6714L19.9911 21.7302C19.9911 21.7302 17.337 19.0636 17.1898 18.9183C17.0218 18.7533 17.0874 18.6038 17.0874 18.6038ZM19.9669 22.2452L19.9053 22.3547C19.9053 22.3547 19.6059 22.1759 19.4812 22.1759C19.3565 22.1759 19.2085 22.3285 19.1829 22.5273C19.1573 22.7261 18.855 23.787 18.7514 23.9945C18.6479 24.202 18.4562 24.0928 18.4562 24.0928C18.4562 24.0928 17.6052 23.4125 17.5503 23.3585C17.4955 23.3044 17.5222 23.1752 17.5222 23.1752C17.5222 23.1752 17.9649 22.2784 18.1098 22.0608C18.2547 21.8431 18.154 21.7443 18.154 21.7443C18.0476 21.5838 18.2173 21.4658 18.2173 21.4658L18.3819 21.3003C18.4134 21.2704 18.436 21.2325 18.4473 21.1906C18.4586 21.1487 18.4582 21.1046 18.4461 21.0629L18.221 21.2882C18.1961 21.3162 18.1659 21.3388 18.132 21.3547C18.0981 21.3707 18.0614 21.3795 18.024 21.3808H18.011C17.9404 21.3744 17.8751 21.3405 17.8292 21.2865L17.594 21.0522C17.4251 20.8833 17.5188 20.6862 17.5914 20.6017L17.594 20.5989L17.8121 20.381L17.7214 20.2937V20.1329L16.2158 18.6429L16.5527 18.3146L16.9225 18.7088C16.8662 18.8355 17.0488 19.0208 17.0812 19.0529L19.8873 21.8685C19.8635 21.9996 19.8921 22.1349 19.9669 22.2452ZM18.389 20.9371L18.3831 20.9292L17.9066 20.4714L17.6885 20.6896C17.6719 20.7093 17.5683 20.8413 17.6868 20.9599L17.9286 21.2023C17.9521 21.2292 17.9846 21.2467 18.02 21.2513C18.041 21.2502 18.0616 21.2449 18.0804 21.2355C18.0993 21.2262 18.116 21.213 18.1295 21.1969L18.389 20.9371ZM20.6615 21.7919L20.2858 21.5652L20.1569 21.8029L20.5934 21.8972C20.5934 21.8972 20.6947 21.8769 20.6615 21.7919Z" fill="#FE8900"/>
<path d="M17.0019 17.876L18.6302 19.5054V19.6589L19.0445 20.0733H19.2238L20.2127 21.0627C20.2127 21.0627 20.3385 21.2075 20.258 21.3401C20.1775 21.4727 19.9949 21.7252 19.9949 21.7252L19.9445 21.6712L19.9901 21.73C19.9901 21.73 17.336 19.0634 17.1888 18.9181C17.0199 18.7523 17.0863 18.6027 17.0863 18.6027L16.6952 18.1804L17.0019 17.876ZM16.5516 18.3144L16.9214 18.7086C16.8651 18.8353 17.0478 19.0206 17.0801 19.0527L19.8862 21.8683C19.8621 21.9998 19.8907 22.1355 19.9659 22.2461L19.9042 22.3557C19.9042 22.3557 19.6085 22.1777 19.4821 22.1777H19.4798C19.3549 22.18 19.2071 22.3303 19.1815 22.5291C19.1559 22.7279 18.8537 23.7888 18.7501 23.9963C18.6995 24.0974 18.6283 24.1233 18.5683 24.1233C18.5291 24.1227 18.4906 24.1131 18.4557 24.0951C18.4557 24.0951 17.6042 23.4124 17.5493 23.3583C17.4944 23.3042 17.5211 23.175 17.5211 23.175C17.5211 23.175 17.9638 22.2782 18.1088 22.0606C18.2537 21.8429 18.1529 21.7441 18.1529 21.7441C18.0466 21.5836 18.2163 21.4656 18.2163 21.4656L18.3809 21.3001C18.4123 21.2702 18.4349 21.2323 18.4462 21.1904C18.4575 21.1485 18.4571 21.1044 18.4451 21.0627L18.2199 21.288C18.1951 21.316 18.1648 21.3386 18.1309 21.3546C18.0971 21.3705 18.0603 21.3794 18.0229 21.3806H18.01C17.9394 21.3742 17.8741 21.3403 17.8282 21.2863L17.5929 21.052C17.424 20.8831 17.5178 20.686 17.5904 20.6015L17.5929 20.5987L17.811 20.3808L17.7204 20.2935V20.1327L16.2148 18.6427L16.5516 18.3144ZM18.0229 21.2519C18.0639 21.2482 18.1017 21.2286 18.1285 21.1973L18.3879 20.9374L18.382 20.9296L17.9056 20.4717L17.6875 20.6899C17.6709 20.7097 17.5673 20.8417 17.6858 20.9602L17.9275 21.2027C17.951 21.2296 17.9835 21.2471 18.019 21.2517H18.0229M20.2842 21.5648L20.6604 21.7917C20.6942 21.8762 20.5923 21.897 20.5923 21.897L20.1558 21.8027L20.2847 21.565M17.0019 17.8186L16.9738 17.8468L16.6681 18.1528L16.64 18.181L16.6681 18.2091L17.0433 18.6137C17.0298 18.67 17.0182 18.8043 17.1632 18.9474C17.3081 19.0904 19.9377 21.7326 19.9642 21.759L19.9692 21.7545L20.0019 21.7897L20.03 21.7495C20.0376 21.739 20.2141 21.4932 20.2943 21.3606C20.3888 21.2044 20.2507 21.0422 20.2448 21.0354L19.2558 20.046L19.244 20.0342H19.0647L18.6702 19.6417V19.4883L18.6581 19.4764L17.0301 17.8473L17.0019 17.8192V17.8186ZM16.5516 18.2561L16.5221 18.2843L16.1863 18.6137L16.1582 18.6419L16.1863 18.67L17.6799 20.1479V20.309L17.6922 20.3211L17.7533 20.3797L17.5648 20.5708L17.5614 20.5745C17.4801 20.6663 17.3762 20.8899 17.5656 21.0793L17.7992 21.313C17.8522 21.375 17.9276 21.4136 18.0088 21.4203H18.0235C18.0661 21.419 18.108 21.409 18.1467 21.3911C18.1854 21.3731 18.2201 21.3476 18.2486 21.3159L18.413 21.1514C18.4073 21.1964 18.3862 21.2381 18.3533 21.2694L18.1912 21.4316C18.1211 21.482 18.0204 21.6129 18.12 21.7638L18.1225 21.7675L18.1256 21.7706C18.1282 21.7731 18.1982 21.8519 18.0761 22.035C17.9312 22.2526 17.504 23.1176 17.4851 23.1542L17.4829 23.1587V23.1635C17.4795 23.1789 17.4519 23.3155 17.5206 23.3842C17.5769 23.4405 18.3952 24.0951 18.4299 24.123L18.4324 24.125L18.4352 24.1267C18.4765 24.1484 18.5223 24.16 18.5689 24.1607C18.6345 24.1607 18.7251 24.1348 18.787 24.0115C18.8911 23.8029 19.195 22.7467 19.2226 22.5311C19.2454 22.3526 19.378 22.2171 19.481 22.2152H19.4827C19.5769 22.2152 19.8038 22.3396 19.8834 22.3875L19.9192 22.4089L19.9397 22.3725L20.0016 22.263L20.0146 22.2402L19.9988 22.2188C19.9308 22.1174 19.9048 21.9936 19.9262 21.8733L19.9307 21.8519L19.9152 21.8365L17.1091 19.0209C17.0143 18.926 16.9248 18.7976 16.9589 18.7221L16.9698 18.6974L16.9513 18.6776L16.5815 18.2835L16.5533 18.253L16.5516 18.2561ZM17.7164 20.7175L17.905 20.5286L18.33 20.9369L18.0995 21.1686C18.0801 21.1918 18.0528 21.2069 18.0229 21.2111H18.0207C17.9976 21.2075 17.9765 21.1962 17.9607 21.179L17.9571 21.1751L17.715 20.9327C17.6267 20.8442 17.6937 20.748 17.7181 20.7187L17.7164 20.7175ZM20.2676 21.5082L20.2473 21.5456L20.1184 21.7832L20.0928 21.8308L20.1457 21.8424L20.5822 21.9367L20.5903 21.9387L20.5988 21.937C20.6182 21.933 20.6366 21.9253 20.653 21.9142C20.6694 21.9031 20.6834 21.8888 20.6942 21.8722C20.7018 21.8575 20.706 21.8413 20.7064 21.8248C20.7068 21.8082 20.7034 21.7918 20.6964 21.7768L20.6914 21.7641L20.6796 21.7571L20.3039 21.5301L20.2676 21.5082Z" fill="#FE8900"/>
<path d="M24.5849 18.919C24.4377 19.0643 21.7836 21.7309 21.7836 21.7309L21.8292 21.6721L21.7788 21.7253C21.7788 21.7253 21.5968 21.4719 21.5166 21.3393C21.4364 21.2067 21.5619 21.0619 21.5619 21.0619L22.5508 20.0725H22.7301L23.1443 19.6581V19.5046L24.7729 17.8752L25.0788 18.1821L24.6876 18.6045C24.6876 18.6045 24.7529 18.7531 24.5849 18.919ZM21.8875 21.8661L24.6936 19.0505C24.7259 19.0184 24.9094 18.8331 24.8523 18.7064L25.2221 18.3122L25.5572 18.6439L24.0519 20.1339V20.2947L23.961 20.382L24.1791 20.5999L24.1816 20.6027C24.2543 20.6846 24.3471 20.8843 24.1791 21.0532L23.9444 21.288C23.8984 21.3421 23.833 21.3759 23.7623 21.3824H23.7494C23.712 21.3811 23.6752 21.3722 23.6414 21.3563C23.6075 21.3403 23.5772 21.3177 23.5524 21.2897L23.3272 21.0645C23.3152 21.1061 23.3148 21.1503 23.3261 21.1921C23.3374 21.234 23.36 21.2719 23.3914 21.3018L23.556 21.4665C23.556 21.4665 23.7249 21.5845 23.6194 21.745C23.6194 21.745 23.5183 21.8435 23.6635 22.0615C23.8088 22.2794 24.2512 23.1759 24.2512 23.1759C24.2512 23.1759 24.2793 23.3043 24.223 23.3592C24.1667 23.4141 23.3171 24.0952 23.3171 24.0952C23.3171 24.0952 23.1271 24.203 23.0244 23.9952C22.9217 23.7874 22.6181 22.7268 22.5927 22.528C22.5674 22.3292 22.4185 22.1789 22.2927 22.1758C22.1669 22.1727 21.8706 22.3546 21.8706 22.3546L21.8087 22.245C21.8838 22.134 21.9121 21.9978 21.8875 21.8661ZM23.6455 21.1962C23.659 21.2124 23.6756 21.2255 23.6944 21.2349C23.7132 21.2442 23.7338 21.2496 23.7547 21.2506C23.7902 21.2461 23.8228 21.2286 23.8462 21.2016L24.0879 20.9592C24.2064 20.8406 24.1028 20.7086 24.0862 20.6889L23.8687 20.4718L23.3923 20.9296L23.3863 20.9375L23.6455 21.1962ZM21.1819 21.897L21.6173 21.8027L21.4887 21.5651L21.113 21.7917C21.0801 21.8768 21.1819 21.897 21.1819 21.897Z" fill="#FE8900"/>
<path d="M24.7727 17.8762L25.0786 18.1823L24.6874 18.6046C24.6874 18.6046 24.753 18.7541 24.585 18.92C24.4378 19.0653 21.7837 21.7319 21.7837 21.7319L21.8293 21.6731L21.7786 21.7254C21.7786 21.7254 21.5965 21.472 21.5163 21.3394C21.4361 21.2068 21.5616 21.0621 21.5616 21.0621L22.5506 20.0727H22.7298L23.1441 19.6582V19.5048L24.7727 17.8754M25.223 18.3138L25.557 18.644L24.0517 20.1341V20.2948L23.9608 20.3821L24.1789 20.6L24.1814 20.6029C24.254 20.6848 24.3469 20.8844 24.1789 21.0533L23.9442 21.2882C23.8981 21.3422 23.8328 21.3761 23.7621 21.3825H23.7491C23.7118 21.3812 23.675 21.3723 23.6411 21.3564C23.6073 21.3405 23.577 21.3178 23.5522 21.2899L23.327 21.0646C23.315 21.1063 23.3146 21.1504 23.3259 21.1923C23.3372 21.2341 23.3598 21.2721 23.3912 21.302L23.5558 21.4667C23.5558 21.4667 23.7247 21.5847 23.6191 21.7451C23.6191 21.7451 23.5181 21.8437 23.6633 22.0616C23.8085 22.2795 24.2509 23.176 24.2509 23.176C24.2509 23.176 24.2791 23.3044 24.2228 23.3593C24.1665 23.4142 23.3169 24.0953 23.3169 24.0953C23.282 24.1132 23.2435 24.1229 23.2043 24.1235C23.1444 24.1235 23.0732 24.0976 23.0228 23.9965C22.9189 23.789 22.6164 22.7281 22.5911 22.5293C22.5658 22.3305 22.4183 22.179 22.2925 22.1759C22.1664 22.1759 21.8704 22.3539 21.8704 22.3539L21.8084 22.2443C21.8833 22.1336 21.9117 21.9977 21.8872 21.8662L24.6933 19.0506C24.7257 19.0185 24.9092 18.8332 24.852 18.7065L25.2218 18.3124M23.7506 21.2521H23.7559C23.7914 21.2476 23.8239 21.2302 23.8474 21.2031L24.0891 20.9607C24.2076 20.8422 24.104 20.7101 24.0874 20.6904L23.8685 20.4719L23.392 20.9297L23.3861 20.9376L23.6459 21.1975C23.6725 21.2288 23.7102 21.2484 23.7511 21.2521M21.4902 21.5652L21.6188 21.8029L21.1823 21.8972C21.1823 21.8972 21.0804 21.8769 21.1145 21.7919L21.4902 21.5652ZM24.7727 17.8188L24.7445 17.8469L23.1159 19.4763L23.1041 19.4882V19.6419L22.7135 20.0327H22.5342L22.5224 20.0445L21.5327 21.0342C21.5267 21.041 21.3886 21.2031 21.4831 21.3594C21.5633 21.492 21.7398 21.7378 21.7474 21.7482L21.7755 21.7885L21.8079 21.7533L21.813 21.7578C21.8394 21.7313 24.4687 19.0895 24.614 18.9462C24.7592 18.8028 24.7474 18.6683 24.7339 18.6125L25.109 18.2079L25.1357 18.1798L25.1076 18.1516L24.8017 17.8455L24.7735 17.8174L24.7727 17.8188ZM25.2207 18.2563L25.1926 18.2867L24.8228 18.6809L24.8042 18.7006L24.8152 18.7254C24.8492 18.8009 24.7589 18.9293 24.6649 19.0241L21.8585 21.8381L21.8431 21.8535L21.8476 21.8749C21.869 21.9952 21.8429 22.119 21.775 22.2204L21.7592 22.2418L21.7721 22.2646L21.8341 22.3741L21.8546 22.4105L21.8903 22.3891C21.97 22.3412 22.1971 22.2168 22.2911 22.2168H22.2925C22.3958 22.2187 22.528 22.3542 22.5508 22.5327C22.579 22.7483 22.8824 23.8045 22.9865 24.0131C23.0484 24.1364 23.1393 24.1623 23.2046 24.1623C23.2512 24.1617 23.297 24.15 23.3383 24.1283L23.3411 24.1266L23.3436 24.1246C23.3782 24.0964 24.1969 23.4418 24.2529 23.3858C24.3216 23.3171 24.294 23.1805 24.2906 23.165V23.1603L24.2886 23.1558C24.2703 23.1192 23.8431 22.2548 23.6976 22.0366C23.5755 21.8535 23.6459 21.7747 23.6487 21.7716L23.6521 21.7685L23.6537 21.7654C23.7537 21.6145 23.6537 21.4839 23.5825 21.4332L23.4204 21.271C23.3876 21.2397 23.3665 21.198 23.3608 21.153L23.5251 21.3175C23.5537 21.3492 23.5883 21.3748 23.627 21.3927C23.6657 21.4107 23.7076 21.4206 23.7503 21.4219H23.7655C23.8468 21.4152 23.9221 21.3766 23.9751 21.3146L24.2087 21.0809C24.3981 20.8915 24.2931 20.6679 24.2129 20.5761L24.2101 20.5733L24.0207 20.3838L24.0818 20.3252L24.0942 20.3131V20.1521L25.5852 18.673L25.6133 18.6449L25.5838 18.6167L25.248 18.2873L25.2185 18.2592L25.2207 18.2563ZM23.4424 20.9371L23.8685 20.5288L24.0573 20.7177C24.0818 20.7459 24.1485 20.8433 24.0601 20.9317L23.8184 21.1741L23.8144 21.1781C23.7986 21.1953 23.7774 21.2066 23.7542 21.2102H23.7522C23.7224 21.206 23.6951 21.1908 23.6757 21.1677L23.4424 20.9371ZM21.5045 21.5083L21.4679 21.5303L21.0922 21.7572L21.0804 21.7643L21.0753 21.777C21.0684 21.792 21.0651 21.8084 21.0655 21.8249C21.0659 21.8415 21.07 21.8577 21.0776 21.8724C21.0884 21.889 21.1024 21.9032 21.1188 21.9144C21.1352 21.9255 21.1536 21.9332 21.173 21.9372L21.1814 21.9389L21.1896 21.9369L21.6261 21.8426L21.6793 21.831L21.6534 21.7834L21.5248 21.5458L21.5045 21.5083Z" fill="#FE8900"/>
<defs>
<filter id="filter0_d_163_18222" x="0.607422" y="0.082901" width="40.7852" height="41.8342" filterUnits="userSpaceOnUse" color-interpolation-filters="sRGB">
<feFlood flood-opacity="0" result="BackgroundImageFix"/>
<feColorMatrix in="SourceAlpha" type="matrix" values="0 0 0 0 0 0 0 0 0 0 0 0 0 0 0 0 0 0 127 0" result="hardAlpha"/>
<feOffset/>
<feGaussianBlur stdDeviation="5"/>
<feComposite in2="hardAlpha" operator="out"/>
<feColorMatrix type="matrix" values="0 0 0 0 0.996078 0 0 0 0 0.537882 0 0 0 0 0 0 0 0 1 0"/>
<feBlend mode="normal" in2="BackgroundImageFix" result="effect1_dropShadow_163_18222"/>
<feBlend mode="normal" in="SourceGraphic" in2="effect1_dropShadow_163_18222" result="shape"/>
</filter>
<linearGradient id="paint0_linear_163_18222" x1="21.0003" y1="10.9968" x2="21.0003" y2="31.0033" gradientUnits="userSpaceOnUse">
<stop stop-color="#232631"/>
<stop offset="1" stop-color="#1D202B" stop-opacity="0.4"/>
</linearGradient>
<linearGradient id="paint1_linear_163_18222" x1="21.0003" y1="10.9968" x2="21.0003" y2="31.0033" gradientUnits="userSpaceOnUse">
<stop stop-color="#343742"/>
<stop offset="1" stop-color="#343742" stop-opacity="0"/>
</linearGradient>
</defs>
</svg>
