<svg width="50" height="52" viewBox="0 0 50 52" fill="none" xmlns="http://www.w3.org/2000/svg">
<g filter="url(#filter0_d_71_5851)">
<path d="M21.5 11.0207C23.6658 9.7703 26.3342 9.7703 28.5 11.0207L36.2224 15.4793C38.3882 16.7297 39.7224 19.0406 39.7224 21.5415V30.4585C39.7224 32.9594 38.3882 35.2703 36.2224 36.5207L28.5 40.9793C26.3342 42.2297 23.6658 42.2297 21.5 40.9793L13.7776 36.5207C11.6118 35.2703 10.2776 32.9594 10.2776 30.4585V21.5415C10.2776 19.0406 11.6118 16.7297 13.7776 15.4793L21.5 11.0207Z" fill="#181A25"/>
</g>
<path d="M28.2504 14.2826L33.523 17.3268C35.5341 18.4879 36.773 20.6337 36.773 22.9559V29.0442C36.773 31.3665 35.5341 33.5123 33.523 34.6734L28.2504 37.7176C26.2393 38.8787 23.7615 38.8787 21.7504 37.7176L16.4777 34.6734C14.4666 33.5123 13.2277 31.3665 13.2277 29.0442V22.9559C13.2277 20.6337 14.4666 18.4879 16.4777 17.3268L21.7504 14.2826C23.7615 13.1215 26.2393 13.1215 28.2504 14.2826Z" fill="url(#paint0_linear_71_5851)" stroke="url(#paint1_linear_71_5851)"/>
<path d="M24.84 19.5479L25.4205 20.8219L26.7656 20.9475L25.7011 21.9387L26.0301 23.2127L24.84 22.4736L23.6495 23.2127L23.9784 21.9387L22.9139 20.9475L24.2595 20.8219L24.84 19.5479Z" fill="#FE8900"/>
<path d="M24.8406 19.5479L25.421 20.8219L26.7662 20.9475L25.7017 21.9387L26.0306 23.2128L24.8406 22.4736L23.6501 23.2128L23.979 21.9387L22.9145 20.9475L24.2597 20.8219L24.8406 19.5479M24.8406 19.3556L24.768 19.5152L24.2066 20.7469L22.9069 20.8686L22.7299 20.8853L22.8603 21.005L23.8897 21.9623L23.5731 23.1904L23.5229 23.3855L23.6919 23.2806L24.8402 22.5674L25.9884 23.2806L26.157 23.3855L26.1076 23.1928L25.7906 21.9647L26.82 21.0074L26.9504 20.8877L26.7734 20.871L25.4765 20.7465L24.9151 19.5148L24.8425 19.3552L24.8406 19.3556Z" fill="#FE8900"/>
<path d="M24.8399 30.7145L25.1313 31.3539L25.8067 31.4173L25.2721 31.9151L25.4375 32.5545L24.8399 32.1835L24.2423 32.5545L24.4073 31.9151L23.8727 31.4173L24.5484 31.3539L24.8399 30.7145Z" fill="#FE8900"/>
<path d="M24.8405 30.7142L25.1319 31.3524L25.8073 31.4159L25.273 31.9137L25.4381 32.5519L24.8401 32.1809L24.242 32.5519L24.4071 31.9137L23.8725 31.4159L24.5478 31.3524L24.8397 30.7142M24.8397 30.6177L24.803 30.6975L24.5211 31.3161L23.8689 31.3772L23.78 31.3855L23.8454 31.4466L24.3636 31.9276L24.2042 32.5443L24.1794 32.6412L24.2644 32.5882L24.8409 32.2292L25.4174 32.5882L25.5019 32.6412L25.4772 32.5443L25.3177 31.9276L25.836 31.4466L25.9014 31.3855L25.8125 31.3772L25.1574 31.3161L24.8783 30.6971L24.8421 30.6173L24.8397 30.6177Z" fill="#FE8900"/>
<path d="M19.4573 22.6054L18.9031 22.0071L19.3377 21.5747L21.6445 23.883V24.1004L22.2314 24.6875H22.4853L23.8863 26.0892C23.8863 26.0892 24.0645 26.2942 23.9505 26.4821C23.8365 26.67 23.5777 27.0277 23.5777 27.0277L23.5064 26.9512L23.5709 27.0345C23.5709 27.0345 19.811 23.2568 19.6024 23.0509C19.3644 22.8172 19.4573 22.6054 19.4573 22.6054ZM23.5367 27.7641L23.4493 27.9192C23.4493 27.9192 23.0251 27.6659 22.8485 27.6659C22.6719 27.6659 22.4622 27.8821 22.4259 28.1637C22.3896 28.4454 21.9615 29.9483 21.8147 30.2423C21.668 30.5363 21.3965 30.3815 21.3965 30.3815C21.3965 30.3815 20.1909 29.4178 20.1132 29.3412C20.0354 29.2646 20.0733 29.0816 20.0733 29.0816C20.0733 29.0816 20.7004 27.8111 20.9057 27.5028C21.1111 27.1945 20.9683 27.0545 20.9683 27.0545C20.8176 26.8271 21.058 26.66 21.058 26.66L21.2913 26.4254C21.3358 26.3831 21.3679 26.3294 21.3839 26.2701C21.3999 26.2108 21.3993 26.1482 21.3822 26.0892L21.0632 26.4083C21.028 26.448 20.9851 26.4801 20.9372 26.5026C20.8892 26.5252 20.8371 26.5377 20.7841 26.5395H20.7658C20.6658 26.5304 20.5733 26.4825 20.5082 26.4059L20.175 26.074C19.9357 25.8347 20.0685 25.5555 20.1714 25.4358L20.175 25.4318L20.4839 25.1231L20.3556 24.9995V24.7717L18.2226 22.6608L18.6998 22.1958L19.2237 22.7542C19.144 22.9337 19.4027 23.1961 19.4485 23.2416L23.4238 27.2304C23.3901 27.4162 23.4306 27.6078 23.5367 27.7641V27.7641ZM21.3012 25.9109L21.2929 25.8997L20.6179 25.2511L20.3089 25.5603C20.2854 25.5882 20.1387 25.7753 20.3065 25.9432L20.649 26.2866C20.6823 26.3248 20.7283 26.3495 20.7786 26.356C20.8083 26.3546 20.8374 26.347 20.8641 26.3337C20.8908 26.3205 20.9145 26.3019 20.9336 26.2791L21.3012 25.9109ZM24.5206 27.1219L23.9884 26.8008L23.8058 27.1374L24.4241 27.2711C24.4241 27.2711 24.5676 27.2423 24.5206 27.1219Z" fill="#FE8900"/>
<path d="M19.3362 21.5744L21.643 23.8827V24.1001L22.2299 24.6872H22.4839L23.8848 26.0889C23.8848 26.0889 24.063 26.2939 23.949 26.4818C23.835 26.6697 23.5762 27.0274 23.5762 27.0274L23.5049 26.9509L23.5695 27.0342C23.5695 27.0342 19.8095 23.2565 19.601 23.0507C19.3618 22.8157 19.4559 22.6039 19.4559 22.6039L18.9017 22.0056L19.3362 21.5744ZM18.6984 22.1955L19.2222 22.7539C19.1425 22.9334 19.4012 23.1958 19.4471 23.2413L23.4224 27.2301C23.3882 27.4164 23.4288 27.6087 23.5352 27.7654L23.4479 27.9205C23.4479 27.9205 23.0289 27.6684 22.8498 27.6684H22.8467C22.6696 27.6716 22.4603 27.8846 22.4241 28.1662C22.3878 28.4478 21.9596 29.9508 21.8129 30.2448C21.7411 30.388 21.6402 30.4247 21.5553 30.4247C21.4998 30.4239 21.4452 30.4103 21.3958 30.3848C21.3958 30.3848 20.1894 29.4175 20.1117 29.3409C20.0339 29.2643 20.0718 29.0813 20.0718 29.0813C20.0718 29.0813 20.6989 27.8108 20.9043 27.5025C21.1096 27.1942 20.9669 27.0542 20.9669 27.0542C20.8162 26.8268 21.0566 26.6597 21.0566 26.6597L21.2898 26.4251C21.3343 26.3828 21.3663 26.329 21.3823 26.2697C21.3983 26.2105 21.3978 26.1479 21.3807 26.0889L21.0617 26.408C21.0266 26.4477 20.9837 26.4798 20.9357 26.5023C20.8877 26.5249 20.8357 26.5374 20.7827 26.5392H20.7643C20.6643 26.5301 20.5718 26.4822 20.5068 26.4056L20.1735 26.0737C19.9343 25.8344 20.067 25.5552 20.1699 25.4355L20.1735 25.4315L20.4825 25.1228L20.3541 24.9992V24.7714L18.2211 22.6606L18.6984 22.1955ZM20.7827 26.3569C20.8407 26.3516 20.8943 26.3238 20.9322 26.2796L21.2998 25.9114L21.2914 25.9002L20.6164 25.2517L20.3074 25.5608C20.2839 25.5887 20.1372 25.7758 20.305 25.9437L20.6475 26.2871C20.6808 26.3253 20.7269 26.35 20.7771 26.3565H20.7827M23.9861 26.8001L24.5191 27.1216C24.567 27.2412 24.4227 27.2708 24.4227 27.2708L23.8043 27.1371L23.9869 26.8005M19.3362 21.493L19.2964 21.5329L18.8634 21.9665L18.8235 22.0064L18.8634 22.0463L19.3949 22.6195C19.3757 22.6992 19.3594 22.8895 19.5647 23.0921C19.77 23.2948 23.4953 27.0378 23.5328 27.0753L23.54 27.0689L23.5862 27.1188L23.6261 27.0618C23.6368 27.047 23.8868 26.6988 24.0004 26.5109C24.1344 26.2895 23.9387 26.0598 23.9303 26.0502L22.5293 24.6486L22.5126 24.6318H22.2586L21.6996 24.0758V23.8584L21.6825 23.8416L19.3761 21.5337L19.3362 21.4938V21.493ZM18.6984 22.1129L18.6565 22.1528L18.1809 22.6195L18.141 22.6594L18.1809 22.6992L20.2967 24.7929V25.0211L20.3142 25.0383L20.4007 25.1212L20.1336 25.3921L20.1288 25.3972C20.0136 25.5273 19.8665 25.844 20.1348 26.1124L20.4657 26.4435C20.5408 26.5313 20.6476 26.5859 20.7627 26.5955H20.7835C20.8439 26.5936 20.9032 26.5795 20.9581 26.5541C21.0129 26.5286 21.062 26.4924 21.1024 26.4475L21.3352 26.2145C21.3271 26.2783 21.2973 26.3374 21.2507 26.3817L21.0211 26.6114C20.9218 26.6828 20.7791 26.8683 20.9202 27.0821L20.9238 27.0873L20.9282 27.0917C20.9318 27.0953 21.0311 27.2069 20.858 27.4662C20.6527 27.7745 20.0475 28.9999 20.0208 29.0517L20.0176 29.0581V29.0649C20.0128 29.0868 19.9737 29.2803 20.071 29.3776C20.1508 29.4574 21.3101 30.3848 21.3592 30.4243L21.3628 30.4271L21.3667 30.4295C21.4252 30.4602 21.4901 30.4767 21.5561 30.4777C21.649 30.4777 21.7774 30.441 21.8651 30.2663C22.0126 29.9708 22.4432 28.4746 22.4823 28.169C22.5146 27.9161 22.7023 27.7243 22.8483 27.7215H22.8506C22.9842 27.7215 23.3055 27.8978 23.4184 27.9656L23.469 27.9959L23.4981 27.9445L23.5858 27.7893L23.6042 27.757L23.5818 27.7267C23.4855 27.583 23.4487 27.4076 23.479 27.2373L23.4853 27.2069L23.4634 27.185L19.4881 23.1962C19.3538 23.0618 19.227 22.8799 19.2752 22.773L19.2908 22.7379L19.2645 22.71L18.7406 22.1516L18.7007 22.1085L18.6984 22.1129ZM20.3485 25.5999L20.6156 25.3322L21.2176 25.9106L20.8911 26.2389C20.8637 26.2717 20.825 26.2932 20.7827 26.2991H20.7795C20.7468 26.294 20.7169 26.278 20.6946 26.2536V26.2536L20.6894 26.248L20.3465 25.9046C20.2213 25.7794 20.3162 25.643 20.3509 25.6015L20.3485 25.5999ZM23.9626 26.7199L23.9339 26.773L23.7513 27.1096L23.715 27.177L23.7899 27.1934L24.4083 27.327L24.4199 27.3298L24.4318 27.3274C24.4593 27.3218 24.4854 27.3108 24.5086 27.2951C24.5318 27.2793 24.5516 27.2591 24.567 27.2357C24.5778 27.2149 24.5837 27.1919 24.5843 27.1684C24.5849 27.145 24.58 27.1217 24.5702 27.1004L24.563 27.0825L24.5462 27.0725L24.014 26.751L23.9626 26.7199V26.7199Z" fill="#FE8900"/>
<path d="M30.0788 23.0519C29.8703 23.2577 26.1103 27.0355 26.1103 27.0355L26.1749 26.9521L26.1036 27.0275C26.1036 27.0275 25.8456 26.6685 25.732 26.4806C25.6184 26.2927 25.7962 26.0877 25.7962 26.0877L27.1972 24.6861H27.4511L28.038 24.0989V23.8815L30.3452 21.5732L30.7785 22.008L30.2244 22.6063C30.2244 22.6063 30.3169 22.8169 30.0788 23.0519ZM26.2575 27.2269L30.2327 23.2382C30.2786 23.1927 30.5385 22.9302 30.4576 22.7507L30.9815 22.1923L31.4563 22.6622L29.3237 24.773V25.0008L29.195 25.1244L29.5039 25.4332L29.5075 25.4372C29.6104 25.5532 29.742 25.836 29.5039 26.0754L29.1714 26.408C29.1062 26.4846 29.0136 26.5325 28.9135 26.5416H28.8952C28.8422 26.5398 28.7901 26.5272 28.7422 26.5047C28.6942 26.4821 28.6513 26.45 28.6161 26.4104L28.2971 26.0913C28.2801 26.1503 28.2795 26.2129 28.2955 26.2722C28.3116 26.3315 28.3436 26.3852 28.388 26.4276L28.6213 26.6609C28.6213 26.6609 28.8605 26.828 28.711 27.0554C28.711 27.0554 28.5678 27.195 28.7736 27.5037C28.9793 27.8125 29.606 29.0825 29.606 29.0825C29.606 29.0825 29.6459 29.2644 29.5661 29.3422C29.4864 29.4199 28.2828 30.3848 28.2828 30.3848C28.2828 30.3848 28.0137 30.5376 27.8681 30.2432C27.7226 29.9488 27.2924 28.4463 27.2566 28.1647C27.2207 27.8831 27.0098 27.6701 26.8316 27.6657C26.6534 27.6613 26.2335 27.919 26.2335 27.919L26.1458 27.7638C26.2523 27.6065 26.2924 27.4136 26.2575 27.2269ZM28.748 26.278C28.7671 26.3008 28.7907 26.3194 28.8173 26.3327C28.844 26.3459 28.873 26.3535 28.9027 26.355C28.953 26.3486 28.9991 26.3239 29.0323 26.2856L29.3748 25.9421C29.5426 25.7742 29.3959 25.5871 29.3724 25.5592L29.0642 25.2517L28.3892 25.9003L28.3809 25.9114L28.748 26.278ZM25.258 27.2708L25.8747 27.1372L25.6925 26.8005L25.1603 27.1216C25.1136 27.2421 25.258 27.2708 25.258 27.2708Z" fill="#FE8900"/>
<path d="M30.3448 21.5747L30.7782 22.0083L30.224 22.6066C30.224 22.6066 30.3169 22.8184 30.0789 23.0533C29.8704 23.2592 26.1104 27.0369 26.1104 27.0369L26.175 26.9535L26.1032 27.0277C26.1032 27.0277 25.8453 26.6687 25.7317 26.4809C25.618 26.293 25.7959 26.088 25.7959 26.088L27.1968 24.6863H27.4508L28.0377 24.0992V23.8818L30.3448 21.5735M30.9827 22.1946L31.456 22.6624L29.3234 24.7733V25.001L29.1946 25.1247L29.5036 25.4334L29.5072 25.4374C29.6101 25.5535 29.7416 25.8363 29.5036 26.0756L29.1711 26.4083C29.1059 26.4848 29.0133 26.5328 28.9132 26.5419H28.8948C28.8419 26.5401 28.7898 26.5275 28.7418 26.5049C28.6939 26.4824 28.651 26.4503 28.6158 26.4107L28.2968 26.0916C28.2797 26.1506 28.2792 26.2131 28.2952 26.2724C28.3112 26.3317 28.3432 26.3855 28.3877 26.4278L28.6209 26.6612C28.6209 26.6612 28.8601 26.8283 28.7106 27.0557C28.7106 27.0557 28.5675 27.1953 28.7732 27.504C28.979 27.8127 29.6057 29.0827 29.6057 29.0827C29.6057 29.0827 29.6456 29.2646 29.5658 29.3424C29.4861 29.4202 28.2825 30.3851 28.2825 30.3851C28.2331 30.4104 28.1785 30.4241 28.123 30.425C28.0381 30.425 27.9372 30.3883 27.8658 30.2451C27.7187 29.9511 27.2901 28.4481 27.2542 28.1665C27.2184 27.8849 27.0095 27.6703 26.8312 27.6659C26.6526 27.6659 26.2332 27.918 26.2332 27.918L26.1455 27.7629C26.2516 27.6059 26.2917 27.4135 26.2571 27.2272L30.2324 23.2384C30.2783 23.1929 30.5382 22.9305 30.4573 22.751L30.9811 22.1926M28.8968 26.3572H28.9044C28.9547 26.3508 29.0008 26.3261 29.034 26.2878L29.3764 25.9444C29.5443 25.7765 29.3976 25.5894 29.374 25.5615L29.0639 25.2519L28.3889 25.9005L28.3805 25.9117L28.7485 26.2798C28.7862 26.3241 28.8397 26.3519 28.8976 26.3572M25.6946 26.8008L25.8768 27.1374L25.2584 27.271C25.2584 27.271 25.1141 27.2423 25.1624 27.1219L25.6946 26.8008ZM30.3448 21.4933L30.305 21.5332L27.9978 23.8415L27.981 23.8583V24.0761L27.4277 24.6297H27.1737L27.157 24.6464L25.7548 26.0485C25.7464 26.0581 25.5507 26.2878 25.6846 26.5092C25.7983 26.6971 26.0482 27.0453 26.059 27.06L26.0989 27.1171L26.1447 27.0672L26.1519 27.0736C26.1894 27.0361 29.9143 23.2935 30.12 23.0904C30.3257 22.8874 30.309 22.6967 30.2898 22.6178L30.8213 22.0446L30.8591 22.0047L30.8193 21.9648L30.3859 21.5312L30.346 21.4913L30.3448 21.4933ZM30.9795 22.1132L30.9397 22.1563L30.4158 22.7147L30.3895 22.7426L30.405 22.7777C30.4533 22.8846 30.3253 23.0665 30.1921 23.2009L26.2165 27.1873L26.1945 27.2092L26.2009 27.2395C26.2312 27.4098 26.1943 27.5853 26.0981 27.729L26.0757 27.7593L26.0941 27.7916L26.1818 27.9467L26.2109 27.9982L26.2615 27.9679C26.3743 27.9001 26.6961 27.7238 26.8292 27.7238H26.8312C26.9776 27.7266 27.1649 27.9184 27.1972 28.1713C27.2371 28.4769 27.6669 29.973 27.8144 30.2686C27.9021 30.4433 28.0309 30.48 28.1234 30.48C28.1894 30.4791 28.2543 30.4625 28.3128 30.4317L28.3167 30.4294L28.3203 30.4266C28.3694 30.3867 29.5291 29.4593 29.6085 29.3799C29.7058 29.2826 29.6667 29.0891 29.6619 29.0672V29.0604L29.6591 29.054C29.6332 29.0022 29.028 27.7776 28.8219 27.4685C28.6488 27.2092 28.7485 27.0975 28.7525 27.0932L28.7573 27.0888L28.7597 27.0844C28.9012 26.8706 28.7597 26.6855 28.6588 26.6137L28.4292 26.3839C28.3826 26.3396 28.3527 26.2806 28.3446 26.2168L28.5775 26.4498C28.6179 26.4947 28.667 26.531 28.7218 26.5564C28.7766 26.5818 28.836 26.5959 28.8964 26.5977V26.5977H28.918C29.0331 26.5882 29.1398 26.5336 29.215 26.4458L29.5459 26.1147C29.8142 25.8463 29.6655 25.5296 29.5519 25.3995L29.5479 25.3955L29.2796 25.1271L29.3661 25.0441L29.3836 25.027V24.7988L31.4958 22.7035L31.5357 22.6636L31.4939 22.6237L31.0182 22.1571L30.9764 22.1172L30.9795 22.1132ZM28.4603 25.9109L29.0639 25.3325L29.3314 25.6002C29.3661 25.64 29.4606 25.7781 29.3354 25.9033L28.9929 26.2467L28.9873 26.2523C28.9649 26.2767 28.9348 26.2928 28.902 26.2978H28.8992C28.8569 26.2918 28.8182 26.2704 28.7908 26.2376L28.4603 25.9109ZM25.7149 26.7202L25.6631 26.7513L25.1309 27.0728L25.1141 27.0828L25.1069 27.1007C25.0972 27.122 25.0924 27.1453 25.0929 27.1687C25.0935 27.1921 25.0994 27.2151 25.1101 27.2359C25.1255 27.2594 25.1453 27.2796 25.1685 27.2954C25.1917 27.3111 25.2178 27.3221 25.2453 27.3277L25.2572 27.3301L25.2688 27.3273L25.8872 27.1937L25.9625 27.1773L25.9258 27.1099L25.7436 26.7733L25.7149 26.7202V26.7202Z" fill="#FE8900"/>
<defs>
<filter id="filter0_d_71_5851" x="0.277588" y="0.0828857" width="49.4448" height="51.8342" filterUnits="userSpaceOnUse" color-interpolation-filters="sRGB">
<feFlood flood-opacity="0" result="BackgroundImageFix"/>
<feColorMatrix in="SourceAlpha" type="matrix" values="0 0 0 0 0 0 0 0 0 0 0 0 0 0 0 0 0 0 127 0" result="hardAlpha"/>
<feOffset/>
<feGaussianBlur stdDeviation="5"/>
<feComposite in2="hardAlpha" operator="out"/>
<feColorMatrix type="matrix" values="0 0 0 0 0.996078 0 0 0 0 0.537882 0 0 0 0 0 0 0 0 1 0"/>
<feBlend mode="normal" in2="BackgroundImageFix" result="effect1_dropShadow_71_5851"/>
<feBlend mode="normal" in="SourceGraphic" in2="effect1_dropShadow_71_5851" result="shape"/>
</filter>
<linearGradient id="paint0_linear_71_5851" x1="25.0004" y1="11.8289" x2="25.0004" y2="40.1713" gradientUnits="userSpaceOnUse">
<stop stop-color="#232631"/>
<stop offset="1" stop-color="#1D202B" stop-opacity="0.4"/>
</linearGradient>
<linearGradient id="paint1_linear_71_5851" x1="25.0004" y1="11.8289" x2="25.0004" y2="40.1713" gradientUnits="userSpaceOnUse">
<stop stop-color="#343742"/>
<stop offset="1" stop-color="#343742" stop-opacity="0"/>
</linearGradient>
</defs>
</svg>
