<svg width="15" height="14" viewBox="0 0 15 14" fill="none" xmlns="http://www.w3.org/2000/svg">
<g clip-path="url(#clip0_85_38480)">
<path d="M7.75 0C3.88113 0 0.75 3.13086 0.75 7C0.75 10.8689 3.88086 14 7.75 14C11.6189 14 14.75 10.8691 14.75 7C14.75 3.13113 11.6191 0 7.75 0ZM6.08438 9.95285C6.08438 9.95285 3.66659 7.53408 3.4928 7.36061C3.10618 6.974 3.10618 6.34487 3.4928 5.95859C3.88039 5.57099 4.50722 5.57099 4.89482 5.95859L6.46009 7.52385C6.65472 7.71848 6.97059 7.71714 7.16359 7.52153L10.6004 4.03514C10.9867 3.64325 11.6178 3.6406 12.0074 4.0302C12.391 4.41383 12.3934 5.04033 12.0123 5.42694C8.28011 9.21367 7.57134 9.95252 7.57134 9.95252C7.16159 10.3622 6.49446 10.3626 6.08438 9.95285Z" fill="white"/>
</g>
<defs>
<clipPath id="clip0_85_38480">
<rect width="14" height="14" fill="white" transform="translate(0.75)"/>
</clipPath>
</defs>
</svg>
