<svg width="17" height="17" viewBox="0 0 17 17" fill="none" xmlns="http://www.w3.org/2000/svg">
<path d="M14.875 15.5833H2.125C1.83458 15.5833 1.59375 15.3425 1.59375 15.0521C1.59375 14.7617 1.83458 14.5208 2.125 14.5208H14.875C15.1654 14.5208 15.4062 14.7617 15.4062 15.0521C15.4062 15.3425 15.1654 15.5833 14.875 15.5833Z" fill="#FF0083"/>
<path d="M13.4727 2.465C12.0985 1.09083 10.7527 1.05542 9.34307 2.465L8.48599 3.32208C8.41515 3.39292 8.38682 3.50625 8.41515 3.60542C8.95349 5.4825 10.4552 6.98417 12.3322 7.5225C12.3606 7.52958 12.3889 7.53667 12.4172 7.53667C12.4952 7.53667 12.566 7.50833 12.6227 7.45167L13.4727 6.59458C14.1739 5.90042 14.5139 5.2275 14.5139 4.5475C14.521 3.84625 14.181 3.16625 13.4727 2.465Z" fill="#FF0083"/>
<path d="M11.0569 8.16708C10.8515 8.06792 10.6532 7.96875 10.4619 7.85542C10.3061 7.76333 10.1573 7.66417 10.0086 7.55792C9.88815 7.48 9.74649 7.36667 9.6119 7.25333C9.59774 7.24625 9.54815 7.20375 9.49149 7.14708C9.25774 6.94875 8.99565 6.69375 8.7619 6.41042C8.74065 6.39625 8.70524 6.34667 8.65565 6.28292C8.58482 6.19792 8.4644 6.05625 8.35815 5.89333C8.27315 5.78708 8.17399 5.63125 8.0819 5.47542C7.96857 5.28417 7.8694 5.09292 7.77024 4.89458C7.64022 4.61597 7.27454 4.5332 7.05713 4.75061L3.07399 8.73375C2.9819 8.82583 2.8969 9.00292 2.87565 9.12333L2.49315 11.8362C2.42232 12.3179 2.5569 12.7712 2.8544 13.0758C3.1094 13.3237 3.46357 13.4583 3.84607 13.4583C3.93107 13.4583 4.01607 13.4512 4.10107 13.4371L6.82107 13.0546C6.94857 13.0333 7.12565 12.9483 7.21065 12.8562L11.2004 8.86653C11.4134 8.65347 11.3334 8.28689 11.0569 8.16708Z" fill="#FF0083"/>
</svg>
