<svg width="19" height="18" viewBox="0 0 19 18" fill="none" xmlns="http://www.w3.org/2000/svg">
<path d="M11.6375 2.96211V5.81211H10.5125V2.96211C10.5125 2.75961 10.3325 2.66211 10.2125 2.66211C10.175 2.66211 10.1375 2.66961 10.1 2.68461L4.1525 4.92711C3.755 5.07711 3.5 5.45211 3.5 5.87961V6.38211C2.8175 6.89211 2.375 7.70961 2.375 8.63211V5.87961C2.375 4.98711 2.9225 4.19211 3.755 3.87711L9.71 1.62711C9.875 1.56711 10.0475 1.53711 10.2125 1.53711C10.9625 1.53711 11.6375 2.14461 11.6375 2.96211Z" fill="white"/>
<path d="M16.625 10.875V11.625C16.625 11.8275 16.4675 11.9925 16.2575 12H15.1625C14.765 12 14.405 11.7075 14.375 11.3175C14.3525 11.085 14.4425 10.8675 14.5925 10.7175C14.7275 10.575 14.915 10.5 15.1175 10.5H16.25C16.4675 10.5075 16.625 10.6725 16.625 10.875Z" fill="white"/>
<path d="M15.11 9.7125H15.875C16.2875 9.7125 16.625 9.375 16.625 8.9625V8.6325C16.625 7.08 15.3575 5.8125 13.805 5.8125H5.195C4.5575 5.8125 3.9725 6.0225 3.5 6.3825C2.8175 6.8925 2.375 7.71 2.375 8.6325V13.68C2.375 15.2325 3.6425 16.5 5.195 16.5H13.805C15.3575 16.5 16.625 15.2325 16.625 13.68V13.5375C16.625 13.125 16.2875 12.7875 15.875 12.7875H15.2225C14.5025 12.7875 13.8125 12.345 13.625 11.6475C13.4675 11.0775 13.655 10.53 14.03 10.1625C14.3075 9.8775 14.69 9.7125 15.11 9.7125ZM11 9.5625H5.75C5.4425 9.5625 5.1875 9.3075 5.1875 9C5.1875 8.6925 5.4425 8.4375 5.75 8.4375H11C11.3075 8.4375 11.5625 8.6925 11.5625 9C11.5625 9.3075 11.3075 9.5625 11 9.5625Z" fill="white"/>
</svg>
