<svg width="50" height="52" viewBox="0 0 50 52" fill="none" xmlns="http://www.w3.org/2000/svg">
<g filter="url(#filter0_d_71_5833)">
<path d="M21.5 11.0207C23.6658 9.7703 26.3342 9.7703 28.5 11.0207L36.2224 15.4793C38.3882 16.7297 39.7224 19.0406 39.7224 21.5415V30.4585C39.7224 32.9594 38.3882 35.2703 36.2224 36.5207L28.5 40.9793C26.3342 42.2297 23.6658 42.2297 21.5 40.9793L13.7776 36.5207C11.6118 35.2703 10.2776 32.9594 10.2776 30.4585V21.5415C10.2776 19.0406 11.6118 16.7297 13.7776 15.4793L21.5 11.0207Z" fill="#181A25"/>
</g>
<path d="M21.7482 14.2831C23.7594 13.122 26.2371 13.122 28.2482 14.2831L33.5209 17.3272C35.532 18.4884 36.7709 20.6342 36.7709 22.9564V29.0447C36.7709 31.367 35.532 33.5128 33.5209 34.6739L28.2482 37.718C26.2371 38.8792 23.7594 38.8792 21.7482 37.718L16.4756 34.6739C14.4645 33.5128 13.2256 31.3669 13.2256 29.0447V22.9564C13.2256 20.6342 14.4645 18.4884 16.4756 17.3272L21.7482 14.2831Z" fill="url(#paint0_linear_71_5833)" stroke="url(#paint1_linear_71_5833)"/>
<path d="M22.9259 21.4486L22.1765 20.6408L22.7608 20.0563L25.8819 23.1784V23.4726L26.6757 24.2668H27.0193L28.9142 26.1626C28.9142 26.1626 29.1554 26.44 29.0015 26.6945C28.8476 26.9489 28.4986 27.4349 28.4986 27.4349L28.4024 27.3289L28.4901 27.4415C28.4901 27.4415 23.4046 22.3312 23.1226 22.0526C22.8009 21.7354 22.9259 21.4486 22.9259 21.4486ZM28.4449 28.427L28.328 28.6366C28.328 28.6366 27.7547 28.291 27.5155 28.2957C27.2764 28.3003 26.9928 28.5879 26.9441 28.969C26.8954 29.3501 26.3158 31.3831 26.1168 31.7806C25.9178 32.178 25.5512 31.9688 25.5512 31.9688C25.5512 31.9688 23.9204 30.6641 23.8152 30.5585C23.71 30.4529 23.7634 30.2078 23.7634 30.2078C23.7634 30.2078 24.6117 28.4889 24.8898 28.072C25.168 27.655 24.9744 27.466 24.9744 27.466C24.7707 27.1578 25.0959 26.9318 25.0959 26.9318L25.411 26.6165C25.4713 26.5592 25.5146 26.4865 25.5363 26.4062C25.558 26.3259 25.5572 26.2413 25.5341 26.1614L25.1006 26.5951C24.9837 26.712 24.8563 26.7724 24.7247 26.7724C24.7165 26.7724 24.7083 26.7724 24.6998 26.7724C24.5644 26.7602 24.4392 26.6952 24.3512 26.5916L23.9013 26.1415C23.5795 25.8196 23.7572 25.4378 23.8962 25.2807L23.9013 25.2753L24.3192 24.8575L24.1451 24.6903V24.3825L21.26 21.5273L21.9035 20.8956L22.612 21.6508C22.5029 21.8936 22.8543 22.2486 22.9162 22.3106L28.2938 27.7037C28.2077 28.1063 28.4449 28.427 28.4449 28.427ZM25.4204 25.9213L25.4091 25.9061L24.4964 25.0278L24.0789 25.4467C24.0469 25.4857 23.8487 25.7378 24.0758 25.9646L24.5385 26.4307C24.5834 26.4824 24.6458 26.5158 24.7138 26.5246C24.7784 26.5273 24.8505 26.4926 24.923 26.4201L25.4204 25.9213ZM29.7743 27.558L29.0545 27.1235L28.8075 27.579L29.6442 27.7599C29.6442 27.7599 29.8393 27.7209 29.7743 27.558Z" fill="#FEC600"/>
<path d="M22.7605 20.0534L25.8816 23.1755V23.4697L26.6755 24.2639H27.019L28.914 26.1597C28.914 26.1597 29.1551 26.4371 29.0012 26.6916C28.8474 26.9461 28.4984 27.432 28.4984 27.432L28.4006 27.3276L28.4882 27.4402C28.4882 27.4402 23.4028 22.3299 23.1208 22.0513C22.7987 21.7341 22.926 21.4473 22.926 21.4473L22.1766 20.6395L22.7609 20.055M21.9001 20.8947L22.6086 21.6499C22.4995 21.8927 22.8509 22.2477 22.9128 22.3096L28.2904 27.7028C28.2051 28.1073 28.4434 28.4272 28.4434 28.4272L28.3266 28.6369C28.3266 28.6369 27.7602 28.2959 27.5187 28.2959H27.5141C27.2749 28.3002 26.9913 28.5882 26.9427 28.9693C26.894 29.3504 26.3144 31.3833 26.1153 31.7808C26.0187 31.9757 25.8816 32.0244 25.7675 32.0244C25.6916 32.0232 25.617 32.0043 25.5498 31.969C25.5498 31.969 23.9189 30.6644 23.8137 30.5588C23.7086 30.4532 23.7619 30.2081 23.7619 30.2081C23.7619 30.2081 24.6103 28.4892 24.8884 28.0722C25.1665 27.6553 24.9729 27.4663 24.9729 27.4663C24.7692 27.158 25.0944 26.932 25.0944 26.932L25.4095 26.6168C25.4698 26.5595 25.5131 26.4867 25.5349 26.4065C25.5566 26.3262 25.5558 26.2415 25.5326 26.1616L25.0991 26.5953C24.9823 26.7122 24.8549 26.7726 24.7232 26.7726C24.7154 26.7726 24.7073 26.7726 24.6995 26.7726C24.5641 26.7604 24.4389 26.6955 24.3509 26.5918L23.901 26.1418C23.5792 25.8199 23.7569 25.438 23.8959 25.281L23.901 25.2755L24.3189 24.8578L24.1448 24.6906V24.3827L21.2597 21.5276L21.9032 20.8959M24.7225 26.5248C24.7856 26.5248 24.8549 26.4901 24.9246 26.4204L25.422 25.9228L25.4107 25.9076L24.4946 25.0265L24.077 25.4454C24.0451 25.4844 23.8468 25.7365 24.0739 25.9633L24.5367 26.4293C24.5816 26.4811 24.644 26.5145 24.7119 26.5233H24.719M29.0526 27.1234L29.7724 27.5579C29.8375 27.7207 29.6423 27.7597 29.6423 27.7597L28.8057 27.5789L29.0526 27.1234ZM22.7605 19.9431L22.7056 19.9996L22.1213 20.5841L22.0683 20.6371L22.1194 20.6921L22.8384 21.4672C22.8123 21.5743 22.7905 21.8327 23.0682 22.1066C23.3459 22.3806 28.385 27.4452 28.436 27.4951L28.4458 27.4865L28.5081 27.5536L28.5634 27.4756C28.5778 27.4558 28.9163 26.985 29.0698 26.7306C29.2509 26.4309 28.986 26.1203 28.9747 26.1071H28.9728L28.9708 26.1051L27.0763 24.2082L27.0533 24.1852H26.7097L25.9615 23.4366V23.1424L25.9385 23.1194L22.8158 19.9996L22.7605 19.9447V19.9431ZM21.9036 20.7817L21.8471 20.8374L21.2036 21.4691L21.1472 21.5244L21.2032 21.5802L24.0654 24.4124V24.721L24.0895 24.744L24.2064 24.8562L23.8433 25.2178L23.8383 25.2233C23.6825 25.399 23.4838 25.8277 23.8468 26.1909L24.2944 26.6386C24.396 26.7574 24.5403 26.8313 24.696 26.8443C24.7053 26.8443 24.7147 26.8443 24.724 26.8443C24.8798 26.8443 25.0235 26.7769 25.1564 26.6441L25.4711 26.3292C25.4602 26.4156 25.4197 26.4956 25.3566 26.5556L25.045 26.8673C24.911 26.964 24.7174 27.2145 24.909 27.5041L24.9137 27.5111L24.9195 27.5169C24.9242 27.522 25.0586 27.6728 24.8249 28.0235C24.5445 28.4436 23.7265 30.1013 23.6899 30.1703L23.6856 30.1788V30.1882C23.6794 30.2178 23.6264 30.4797 23.758 30.6114C23.8651 30.7185 25.4329 31.9753 25.5007 32.0271L25.5054 32.031L25.5108 32.0341C25.5899 32.0757 25.6777 32.0981 25.7671 32.0996C25.8922 32.0996 26.0666 32.0497 26.1847 31.8132C26.3845 31.4133 26.9668 29.3893 27.0198 28.9763C27.0634 28.6345 27.3174 28.3746 27.5148 28.3711H27.5183C27.6987 28.3711 28.1338 28.6092 28.2861 28.7012L28.3546 28.7425L28.3936 28.6727L28.5124 28.4627L28.5373 28.4187L28.5069 28.3777C28.505 28.375 28.2911 28.0796 28.3679 27.7153L28.3764 27.674L28.3468 27.6444L22.9677 22.2527C22.7854 22.0708 22.6144 21.8241 22.6795 21.6803L22.7005 21.6328L22.6651 21.5938L21.9562 20.8386L21.9016 20.7805L21.9036 20.7817ZM24.1359 25.4968L24.4977 25.1348L25.3114 25.9173L24.8681 26.3608C24.8309 26.4054 24.7784 26.4346 24.7209 26.4426H24.717C24.6716 26.4354 24.6302 26.4123 24.6001 26.3775H24.5982L24.5943 26.3732L24.1312 25.9087C23.9617 25.7392 24.0895 25.5549 24.1366 25.4988L24.1359 25.4968ZM29.0238 27.0139L28.9848 27.0859L28.7383 27.5415L28.6888 27.6327L28.7901 27.6545L29.6268 27.8357L29.6427 27.8388L29.6583 27.8357C29.6719 27.833 29.79 27.8069 29.8414 27.7118C29.8559 27.6836 29.8638 27.6524 29.8646 27.6207C29.8653 27.589 29.8589 27.5575 29.8457 27.5286L29.8359 27.5045L29.8137 27.4908L29.0935 27.0563L29.0238 27.0139Z" fill="#FEC600"/>
<path d="M21.8287 29.2194H22.887V29.3791H21.8287V29.2194ZM21.8287 26.7094H22.887C22.8871 26.6696 22.8793 26.6301 22.864 26.5932C22.8488 26.5564 22.8265 26.5229 22.7983 26.4947C22.7701 26.4665 22.7366 26.4441 22.6998 26.4289C22.6629 26.4136 22.6235 26.4058 22.5836 26.4059H22.1322C22.0517 26.4059 21.9745 26.4379 21.9176 26.4948C21.8607 26.5517 21.8287 26.6289 21.8287 26.7094ZM21.8287 28.8663H22.887V27.0625H21.8287V28.8663Z" fill="#FEC600"/>
<path d="M22.5809 26.407C22.6207 26.407 22.6602 26.4148 22.6971 26.43C22.7339 26.4453 22.7674 26.4676 22.7955 26.4958C22.8237 26.524 22.8461 26.5575 22.8613 26.5944C22.8765 26.6312 22.8844 26.6707 22.8843 26.7106H21.826C21.826 26.6301 21.858 26.5529 21.9149 26.4959C21.9718 26.439 22.049 26.407 22.1294 26.407H22.5809ZM22.8843 27.0636V28.8675H21.826V27.0636H22.8843ZM22.8843 29.2205V29.3803H21.826V29.2205H22.8843ZM22.5809 26.3291H22.1294C22.0283 26.3292 21.9314 26.3694 21.8599 26.441C21.7884 26.5125 21.7482 26.6095 21.7481 26.7106V26.7885H22.9622V26.7106C22.9621 26.6095 22.9219 26.5125 22.8504 26.441C22.7789 26.3694 22.682 26.3292 22.5809 26.3291ZM22.9622 26.9857H21.7481V28.9454H22.9622V26.9857ZM22.9622 29.1426H21.7481V29.4582H22.9622V29.1426Z" fill="#FEC600"/>
<path d="M20.1406 28.9322V26.7527C20.1406 26.7018 20.1609 26.6529 20.1969 26.6169C20.2329 26.5809 20.2817 26.5606 20.3327 26.5606H20.7549C20.7801 26.5606 20.8051 26.5656 20.8284 26.5752C20.8517 26.5849 20.8728 26.599 20.8907 26.6169C20.9085 26.6347 20.9226 26.6559 20.9323 26.6792C20.9419 26.7025 20.9469 26.7275 20.9469 26.7527V28.9322H20.1406ZM20.1406 29.3788H20.9469V29.219H20.1406V29.3788ZM20.2734 26.3256H20.8141V25.7353H20.2715L20.2734 26.3256ZM20.2734 25.4707H20.8141V24.8184C20.8141 24.6691 20.6929 24.0826 20.5438 24.0826C20.3946 24.0826 20.2734 24.6691 20.2734 24.8184V25.4707Z" fill="#FEC600"/>
<path d="M20.5467 24.0836C20.6959 24.0836 20.817 24.67 20.817 24.8193V25.4716H20.2764V24.8193C20.2764 24.67 20.3975 24.0836 20.5467 24.0836ZM20.817 25.7362V26.3265H20.2764V25.7362H20.817ZM20.7578 26.5615C20.8088 26.5615 20.8576 26.5818 20.8936 26.6178C20.9296 26.6538 20.9499 26.7027 20.9499 26.7536V28.9331H20.1455V26.7536C20.1455 26.7027 20.1658 26.6538 20.2018 26.6178C20.2378 26.5818 20.2866 26.5615 20.3376 26.5615H20.7598M20.9518 29.2199V29.3797H20.1455V29.2199H20.9518ZM20.5467 24.0056C20.4396 24.0056 20.3551 24.1225 20.2807 24.3735C20.2363 24.5184 20.2087 24.668 20.1985 24.8193V25.5495H20.8949V24.8193C20.8848 24.668 20.8571 24.5184 20.8124 24.3735C20.7384 24.1225 20.6538 24.0056 20.5467 24.0056ZM20.8949 25.6582H20.1985V26.4045H20.8949V25.6582ZM20.7578 26.4836H20.3356C20.264 26.4837 20.1954 26.5122 20.1448 26.5628C20.0942 26.6134 20.0658 26.682 20.0657 26.7536V29.0111H21.0278V26.7536C21.0277 26.682 20.9992 26.6134 20.9486 26.5628C20.898 26.5122 20.8294 26.4837 20.7578 26.4836ZM21.0278 29.142H20.0676V29.4576H21.0297V29.142H21.0278Z" fill="#FEC600"/>
<defs>
<filter id="filter0_d_71_5833" x="0.277588" y="0.0828857" width="49.4448" height="51.8342" filterUnits="userSpaceOnUse" color-interpolation-filters="sRGB">
<feFlood flood-opacity="0" result="BackgroundImageFix"/>
<feColorMatrix in="SourceAlpha" type="matrix" values="0 0 0 0 0 0 0 0 0 0 0 0 0 0 0 0 0 0 127 0" result="hardAlpha"/>
<feOffset/>
<feGaussianBlur stdDeviation="5"/>
<feComposite in2="hardAlpha" operator="out"/>
<feColorMatrix type="matrix" values="0 0 0 0 0.996078 0 0 0 0 0.776941 0 0 0 0 0 0 0 0 1 0"/>
<feBlend mode="normal" in2="BackgroundImageFix" result="effect1_dropShadow_71_5833"/>
<feBlend mode="normal" in="SourceGraphic" in2="effect1_dropShadow_71_5833" result="shape"/>
</filter>
<linearGradient id="paint0_linear_71_5833" x1="24.9982" y1="11.8293" x2="24.9982" y2="40.1718" gradientUnits="userSpaceOnUse">
<stop stop-color="#232631"/>
<stop offset="1" stop-color="#1D202B" stop-opacity="0.4"/>
</linearGradient>
<linearGradient id="paint1_linear_71_5833" x1="24.9982" y1="11.8293" x2="24.9982" y2="40.1718" gradientUnits="userSpaceOnUse">
<stop stop-color="#343742"/>
<stop offset="1" stop-color="#343742" stop-opacity="0"/>
</linearGradient>
</defs>
</svg>
