<svg width="42" height="42" viewBox="0 0 42 42" fill="none" xmlns="http://www.w3.org/2000/svg">
<g filter="url(#filter0_d_163_18205)">
<path d="M17.5 11.0207C19.6658 9.7703 22.3342 9.7703 24.5 11.0207L27.8923 12.9793C30.0581 14.2297 31.3923 16.5406 31.3923 19.0415V22.9585C31.3923 25.4594 30.0581 27.7703 27.8923 29.0207L24.5 30.9793C22.3342 32.2297 19.6658 32.2297 17.5 30.9793L14.1077 29.0207C11.9419 27.7703 10.6077 25.4594 10.6077 22.9585V19.0415C10.6077 16.5406 11.9419 14.2297 14.1077 12.9793L17.5 11.0207Z" fill="#181A25"/>
</g>
<path d="M24.2474 13.4509L25.9104 14.4111C27.9215 15.5722 29.1604 17.718 29.1604 20.0403V21.9606C29.1604 24.2828 27.9215 26.4286 25.9104 27.5897L24.2474 28.5499C22.2362 29.711 19.7585 29.711 17.7474 28.5499L16.0843 27.5897C14.0732 26.4286 12.8343 24.2828 12.8343 21.9606V20.0403C12.8343 17.718 14.0732 15.5722 16.0843 14.4111L17.7474 13.4509C19.7585 12.2898 22.2362 12.2898 24.2474 13.4509Z" fill="url(#paint0_linear_163_18205)" stroke="url(#paint1_linear_163_18205)"/>
<path d="M20.9983 24.9203L21.3399 25.6693L22.1313 25.7435L21.505 26.3261L21.6984 27.0752L20.9983 26.6408L20.2982 27.0752L20.4915 26.3261L19.8652 25.7435L20.6567 25.6693L20.9983 24.9203Z" fill="#FF0083"/>
<path d="M22.8057 23.2646L20.9999 21.9857L19.1943 23.2646V16.7973H22.8057V23.2646Z" fill="#FF0083"/>
<path d="M19.1943 24.1931V24.6465L20.9999 23.3676L22.8057 24.6465V24.1931L20.9999 22.9142L19.1943 24.1931Z" fill="#FF0083"/>
<defs>
<filter id="filter0_d_163_18205" x="0.607422" y="0.0829048" width="40.7852" height="41.8342" filterUnits="userSpaceOnUse" color-interpolation-filters="sRGB">
<feFlood flood-opacity="0" result="BackgroundImageFix"/>
<feColorMatrix in="SourceAlpha" type="matrix" values="0 0 0 0 0 0 0 0 0 0 0 0 0 0 0 0 0 0 127 0" result="hardAlpha"/>
<feOffset/>
<feGaussianBlur stdDeviation="5"/>
<feComposite in2="hardAlpha" operator="out"/>
<feColorMatrix type="matrix" values="0 0 0 0 0.996078 0 0 0 0 0 0 0 0 0 0.513726 0 0 0 1 0"/>
<feBlend mode="normal" in2="BackgroundImageFix" result="effect1_dropShadow_163_18205"/>
<feBlend mode="normal" in="SourceGraphic" in2="effect1_dropShadow_163_18205" result="shape"/>
</filter>
<linearGradient id="paint0_linear_163_18205" x1="20.9974" y1="10.9972" x2="20.9974" y2="31.0036" gradientUnits="userSpaceOnUse">
<stop stop-color="#232631"/>
<stop offset="1" stop-color="#1D202B" stop-opacity="0.4"/>
</linearGradient>
<linearGradient id="paint1_linear_163_18205" x1="20.9974" y1="10.9972" x2="20.9974" y2="31.0036" gradientUnits="userSpaceOnUse">
<stop stop-color="#343742"/>
<stop offset="1" stop-color="#343742" stop-opacity="0"/>
</linearGradient>
</defs>
</svg>
