<svg width="20" height="20" viewBox="0 0 20 20" fill="none" xmlns="http://www.w3.org/2000/svg">
<path d="M18.3083 1.94165C17.7083 1.25831 16.8167 0.833313 15.8333 0.833313C14.9 0.833313 14.05 1.21665 13.4417 1.84165C13.0917 2.19998 12.825 2.63331 12.6667 3.11665C12.5583 3.44998 12.5 3.79998 12.5 4.16665C12.5 4.79165 12.675 5.38331 12.9833 5.88331C13.15 6.16665 13.3667 6.42498 13.6167 6.64165C14.2 7.17498 14.975 7.49998 15.8333 7.49998C16.2 7.49998 16.55 7.44165 16.875 7.32498C17.6417 7.08331 18.2833 6.55831 18.6833 5.88331C18.8583 5.59998 18.9917 5.27498 19.0667 4.94165C19.1333 4.69165 19.1667 4.43331 19.1667 4.16665C19.1667 3.31665 18.8417 2.53331 18.3083 1.94165ZM17.075 4.77498H16.4583V5.42498C16.4583 5.76665 16.175 6.04998 15.8333 6.04998C15.4917 6.04998 15.2083 5.76665 15.2083 5.42498V4.77498H14.5917C14.25 4.77498 13.9667 4.49165 13.9667 4.14998C13.9667 3.80831 14.25 3.52498 14.5917 3.52498H15.2083V2.93331C15.2083 2.59165 15.4917 2.30831 15.8333 2.30831C16.175 2.30831 16.4583 2.59165 16.4583 2.93331V3.52498H17.075C17.4167 3.52498 17.7 3.80831 17.7 4.14998C17.7 4.49165 17.425 4.77498 17.075 4.77498Z" fill="#81828A"/>
<path d="M18.3327 10C18.3327 8.90835 18.1243 7.85835 17.7327 6.90002C17.4743 7.08335 17.1827 7.22502 16.8743 7.32502C16.7827 7.35835 16.691 7.38335 16.591 7.40835C16.9077 8.20835 17.0827 9.08335 17.0827 10C17.0827 11.9334 16.2993 13.6917 15.0327 14.975C14.791 14.6667 14.4827 14.3834 14.116 14.1417C11.8577 12.625 8.15768 12.625 5.88268 14.1417C5.51602 14.3834 5.21602 14.6667 4.96602 14.975C3.69935 13.6917 2.91602 11.9334 2.91602 10C2.91602 6.09169 6.09102 2.91669 9.99935 2.91669C10.9077 2.91669 11.7827 3.09169 12.5827 3.40835C12.6077 3.30835 12.6327 3.21669 12.666 3.11669C12.766 2.80835 12.9077 2.52502 13.0993 2.26669C12.141 1.87502 11.091 1.66669 9.99935 1.66669C5.40768 1.66669 1.66602 5.40835 1.66602 10C1.66602 12.4167 2.70768 14.5917 4.35768 16.1167C4.35768 16.125 4.35768 16.125 4.34935 16.1334C4.43268 16.2167 4.53268 16.2834 4.61602 16.3584C4.66602 16.4 4.70768 16.4417 4.75768 16.475C4.90768 16.6 5.07435 16.7167 5.23268 16.8334C5.29102 16.875 5.34102 16.9084 5.39935 16.95C5.55768 17.0584 5.72435 17.1584 5.89935 17.25C5.95768 17.2834 6.02435 17.325 6.08268 17.3584C6.24935 17.45 6.42435 17.5334 6.60768 17.6084C6.67435 17.6417 6.74102 17.675 6.80768 17.7C6.99102 17.775 7.17435 17.8417 7.35768 17.9C7.42435 17.925 7.49102 17.95 7.55768 17.9667C7.75768 18.025 7.95768 18.075 8.15768 18.125C8.21602 18.1417 8.27435 18.1584 8.34102 18.1667C8.57435 18.2167 8.80768 18.25 9.04935 18.275C9.08268 18.275 9.11601 18.2834 9.14935 18.2917C9.43268 18.3167 9.71602 18.3334 9.99935 18.3334C10.2827 18.3334 10.566 18.3167 10.841 18.2917C10.8743 18.2917 10.9077 18.2834 10.941 18.275C11.1827 18.25 11.416 18.2167 11.6493 18.1667C11.7077 18.1584 11.766 18.1334 11.8327 18.125C12.0327 18.075 12.241 18.0334 12.4327 17.9667C12.4993 17.9417 12.566 17.9167 12.6327 17.9C12.816 17.8334 13.0077 17.775 13.1827 17.7C13.2493 17.675 13.316 17.6417 13.3827 17.6084C13.5577 17.5334 13.7327 17.45 13.9077 17.3584C13.9743 17.325 14.0327 17.2834 14.091 17.25C14.2577 17.15 14.4243 17.0584 14.591 16.95C14.6493 16.9167 14.6993 16.875 14.7577 16.8334C14.9243 16.7167 15.0827 16.6 15.2327 16.475C15.2827 16.4334 15.3243 16.3917 15.3743 16.3584C15.466 16.2834 15.5577 16.2084 15.641 16.1334C15.641 16.125 15.641 16.125 15.6327 16.1167C17.291 14.5917 18.3327 12.4167 18.3327 10Z" fill="#81828A"/>
<path d="M10 5.77502C8.275 5.77502 6.875 7.17502 6.875 8.90002C6.875 10.5917 8.2 11.9667 9.95833 12.0167C9.98333 12.0167 10.0167 12.0167 10.0333 12.0167C10.05 12.0167 10.075 12.0167 10.0917 12.0167C10.1 12.0167 10.1083 12.0167 10.1083 12.0167C11.7917 11.9584 13.1167 10.5917 13.125 8.90002C13.125 7.17502 11.725 5.77502 10 5.77502Z" fill="#81828A"/>
</svg>
