<svg width="19" height="18" viewBox="0 0 19 18" fill="none" xmlns="http://www.w3.org/2000/svg">
<path d="M12.6875 16.875C13.4124 16.875 14 16.2874 14 15.5625C14 14.8376 13.4124 14.25 12.6875 14.25C11.9626 14.25 11.375 14.8376 11.375 15.5625C11.375 16.2874 11.9626 16.875 12.6875 16.875Z" fill="white"/>
<path d="M6.6875 16.875C7.41237 16.875 8 16.2874 8 15.5625C8 14.8376 7.41237 14.25 6.6875 14.25C5.96263 14.25 5.375 14.8376 5.375 15.5625C5.375 16.2874 5.96263 16.875 6.6875 16.875Z" fill="white"/>
<path d="M4.13 2.955L3.98 4.7925C3.95 5.145 4.2275 5.4375 4.58 5.4375H16.0625C16.3775 5.4375 16.64 5.1975 16.6625 4.8825C16.76 3.555 15.7475 2.475 14.42 2.475H5.2025C5.1275 2.145 4.9775 1.83 4.745 1.5675C4.37 1.17 3.845 0.9375 3.305 0.9375H2C1.6925 0.9375 1.4375 1.1925 1.4375 1.5C1.4375 1.8075 1.6925 2.0625 2 2.0625H3.305C3.5375 2.0625 3.755 2.16 3.9125 2.325C4.07 2.4975 4.145 2.7225 4.13 2.955Z" fill="white"/>
<path d="M15.8825 6.5625H4.3775C4.0625 6.5625 3.8075 6.8025 3.7775 7.11L3.5075 10.3725C3.4025 11.655 4.4075 12.75 5.69 12.75H14.03C15.155 12.75 16.145 11.8275 16.2275 10.7025L16.475 7.2C16.505 6.855 16.235 6.5625 15.8825 6.5625Z" fill="white"/>
</svg>
