<svg width="19" height="18" viewBox="0 0 19 18" fill="none" xmlns="http://www.w3.org/2000/svg">
<path d="M4.77142 7.375H2.19791C1.96284 7.37558 1.7376 7.46938 1.57161 7.63583C1.40562 7.80228 1.31243 8.02777 1.3125 8.26284V16.6255C1.31243 16.8606 1.40562 17.0861 1.57161 17.2526C1.7376 17.419 1.96284 17.5128 2.19791 17.5134H4.77142C5.00673 17.5129 5.23226 17.4192 5.39865 17.2528C5.56504 17.0864 5.65874 16.8609 5.65926 16.6255V8.26284C5.65874 8.02753 5.56504 7.802 5.39865 7.63561C5.23226 7.46922 5.00673 7.37551 4.77142 7.375Z" fill="white"/>
<path d="M17.3055 10.2865C17.3054 9.88521 17.1462 9.50032 16.8628 9.21623C16.8387 9.19004 16.8127 9.16565 16.785 9.14326C17.0989 9.01024 17.3572 8.77288 17.5162 8.47133C17.6752 8.16978 17.7252 7.82255 17.6577 7.48839C17.5902 7.15423 17.4093 6.85364 17.1457 6.63749C16.882 6.42134 16.5518 6.30289 16.2109 6.30218H10.9325C10.9617 6.2511 10.9885 6.20488 11.0128 6.15867C11.1647 5.91346 11.2856 5.65037 11.3728 5.37542C11.4892 4.99428 11.5602 4.60076 11.5844 4.20299C11.6181 3.62831 11.5365 3.05269 11.3443 2.51004C11.1522 1.96739 10.8534 1.46867 10.4655 1.04326C10.3194 0.877291 10.1414 0.742438 9.94203 0.646738C9.74269 0.551039 9.52612 0.496453 9.30524 0.486234C9.0035 0.474649 8.70853 0.577484 8.47939 0.774145C8.25025 0.970805 8.10387 1.24677 8.06956 1.54677C8.06754 1.55801 8.06673 1.56942 8.06713 1.58083V3.71164L6.65632 7.28731C6.54079 7.57811 6.36695 7.84218 6.14551 8.06326V16.3043C6.49376 16.4003 6.84807 16.4726 7.20605 16.5208C7.33909 16.5386 7.47317 16.5476 7.6074 16.5476H14.7612C15.1147 16.5471 15.4539 16.4073 15.705 16.1584C15.8286 16.0348 15.9265 15.888 15.9933 15.7265C16.0601 15.565 16.0944 15.3918 16.0942 15.217C16.095 14.8945 15.9773 14.5828 15.7633 14.3414C16.0451 14.2821 16.3044 14.1445 16.5114 13.9444C16.7183 13.7442 16.8646 13.4897 16.9332 13.2101C17.0018 12.9305 16.9901 12.6371 16.8993 12.3639C16.8085 12.0907 16.6424 11.8486 16.4201 11.6657C16.6841 11.5445 16.9078 11.3502 17.0648 11.1058C17.2217 10.8613 17.3052 10.577 17.3055 10.2865Z" fill="white"/>
</svg>
