<svg width="48" height="48" viewBox="0 0 48 48" fill="none" xmlns="http://www.w3.org/2000/svg">
<g filter="url(#filter0_d_71_4797)">
<rect x="4" y="2" width="40" height="40" rx="20" fill="url(#paint0_linear_71_4797)" fill-opacity="0.2" shape-rendering="crispEdges"/>
<rect x="13.3333" y="11" width="22" height="22" rx="11" fill="#FF0083"/>
<path fill-rule="evenodd" clip-rule="evenodd" d="M23.0902 15.0909C20.4901 15.5533 18.323 17.5252 17.5229 20.1565C17.3769 20.6364 17.3253 21.1535 17.3342 22.0423C17.3489 23.476 17.6634 24.6365 18.3199 25.6788L18.7172 26.3094L20.9227 25.0046L23.1284 23.6999L23.1584 26.35L23.1884 29H24.3045H25.4206V26.3839C25.4206 24.5588 25.4578 23.7678 25.5434 23.7678C25.6108 23.7678 26.5996 24.3263 27.7407 25.0091C29.344 25.9684 29.8558 26.2254 29.994 26.1408C30.1793 26.0275 31.0884 24.3581 31.0035 24.287C30.9771 24.265 29.4642 23.359 27.6416 22.2737L24.3278 20.3005L22.0934 21.6446C20.8646 22.3838 19.7964 22.9886 19.7197 22.9886C19.6147 22.9886 19.5912 22.7197 19.6247 21.9032C19.6629 20.9702 19.719 20.7119 20.0244 20.0637C21.5129 16.9041 25.6397 16.3498 27.9718 18.996C28.42 19.5045 28.8513 20.4331 28.9986 21.2071C29.0611 21.5347 29.1243 21.8112 29.1393 21.8217C29.1543 21.8322 29.6445 22.1238 30.2287 22.4697L31.291 23.0987L31.3259 22.1809C31.3736 20.9259 31.1958 20.1053 30.6201 18.9253C30.0216 17.6984 29.3634 16.939 28.2641 16.207C26.8077 15.2372 24.756 14.7946 23.0902 15.0909Z" fill="#1F222D"/>
<rect x="4.5" y="2.5" width="39" height="39" rx="19.5" stroke="url(#paint1_linear_71_4797)" shape-rendering="crispEdges"/>
</g>
<defs>
<filter id="filter0_d_71_4797" x="0" y="0" width="48" height="48" filterUnits="userSpaceOnUse" color-interpolation-filters="sRGB">
<feFlood flood-opacity="0" result="BackgroundImageFix"/>
<feColorMatrix in="SourceAlpha" type="matrix" values="0 0 0 0 0 0 0 0 0 0 0 0 0 0 0 0 0 0 127 0" result="hardAlpha"/>
<feOffset dy="2"/>
<feGaussianBlur stdDeviation="2"/>
<feComposite in2="hardAlpha" operator="out"/>
<feColorMatrix type="matrix" values="0 0 0 0 1 0 0 0 0 0 0 0 0 0 0.513726 0 0 0 1 0"/>
<feBlend mode="normal" in2="BackgroundImageFix" result="effect1_dropShadow_71_4797"/>
<feBlend mode="normal" in="SourceGraphic" in2="effect1_dropShadow_71_4797" result="shape"/>
</filter>
<linearGradient id="paint0_linear_71_4797" x1="24" y1="2" x2="24" y2="42" gradientUnits="userSpaceOnUse">
<stop stop-color="#282630"/>
<stop offset="1" stop-color="#0F0E13"/>
</linearGradient>
<linearGradient id="paint1_linear_71_4797" x1="24" y1="2" x2="24" y2="42" gradientUnits="userSpaceOnUse">
<stop stop-color="#393D45"/>
<stop offset="1" stop-color="#393D45" stop-opacity="0"/>
</linearGradient>
</defs>
</svg>
