<svg width="20" height="20" viewBox="0 0 20 20" fill="none" xmlns="http://www.w3.org/2000/svg">
<g clip-path="url(#clip0_172_10345)">
<path d="M5.27344 0H0.585938C0.262344 0 0 0.262344 0 0.585938V5.27344C0 5.59703 0.262344 5.85938 0.585938 5.85938H5.27344C5.59703 5.85938 5.85938 5.59703 5.85938 5.27344V0.585938C5.85938 0.262344 5.59703 0 5.27344 0Z" fill="white"/>
<path d="M7.69531 3.51562H19.4141C19.7377 3.51562 20 3.25328 20 2.92969C20 2.60609 19.7377 2.34375 19.4141 2.34375H7.69531C7.37172 2.34375 7.10938 2.60609 7.10938 2.92969C7.10938 3.25328 7.37172 3.51562 7.69531 3.51562Z" fill="white"/>
<path d="M5.27344 7.07031H0.585938C0.262344 7.07031 0 7.33266 0 7.65625V12.3438C0 12.6673 0.262344 12.9297 0.585938 12.9297H5.27344C5.59703 12.9297 5.85938 12.6673 5.85938 12.3438V7.65625C5.85938 7.33266 5.59703 7.07031 5.27344 7.07031Z" fill="white"/>
<path d="M5.27344 14.1406H0.585938C0.262344 14.1406 0 14.403 0 14.7266V19.4141C0 19.7377 0.262344 20 0.585938 20H5.27344C5.59703 20 5.85938 19.7377 5.85938 19.4141V14.7266C5.85938 14.403 5.59703 14.1406 5.27344 14.1406Z" fill="white"/>
<path d="M19.4141 4.6875H7.69531C7.37172 4.6875 7.10938 4.94984 7.10938 5.27344C7.10938 5.59703 7.37172 5.85938 7.69531 5.85938H19.4141C19.7377 5.85938 20 5.59703 20 5.27344C20 4.94984 19.7377 4.6875 19.4141 4.6875Z" fill="white"/>
<path d="M7.69531 1.17188H12.3828C12.7064 1.17188 12.9688 0.909531 12.9688 0.585938C12.9688 0.262344 12.7064 0 12.3828 0H7.69531C7.37172 0 7.10938 0.262344 7.10938 0.585938C7.10938 0.909531 7.37172 1.17188 7.69531 1.17188Z" fill="white"/>
<path d="M19.4141 11.7578H7.69531C7.37172 11.7578 7.10938 12.0202 7.10938 12.3438C7.10938 12.6673 7.37172 12.9297 7.69531 12.9297H19.4141C19.7377 12.9297 20 12.6673 20 12.3438C20 12.0202 19.7377 11.7578 19.4141 11.7578Z" fill="white"/>
<path d="M19.4141 9.41406H7.69531C7.37172 9.41406 7.10938 9.67641 7.10938 10C7.10938 10.3236 7.37172 10.5859 7.69531 10.5859H19.4141C19.7377 10.5859 20 10.3236 20 10C20 9.67641 19.7377 9.41406 19.4141 9.41406Z" fill="white"/>
<path d="M7.69531 8.24219H12.3828C12.7064 8.24219 12.9688 7.97984 12.9688 7.65625C12.9688 7.33266 12.7064 7.07031 12.3828 7.07031H7.69531C7.37172 7.07031 7.10938 7.33266 7.10938 7.65625C7.10938 7.97984 7.37172 8.24219 7.69531 8.24219Z" fill="white"/>
<path d="M19.4141 18.8281H7.69531C7.37172 18.8281 7.10938 19.0905 7.10938 19.4141C7.10938 19.7377 7.37172 20 7.69531 20H19.4141C19.7377 20 20 19.7377 20 19.4141C20 19.0905 19.7377 18.8281 19.4141 18.8281Z" fill="white"/>
<path d="M19.4141 16.4844H7.69531C7.37172 16.4844 7.10938 16.7467 7.10938 17.0703C7.10938 17.3939 7.37172 17.6562 7.69531 17.6562H19.4141C19.7377 17.6562 20 17.3939 20 17.0703C20 16.7467 19.7377 16.4844 19.4141 16.4844Z" fill="white"/>
<path d="M7.69531 15.3125H12.3828C12.7064 15.3125 12.9688 15.0502 12.9688 14.7266C12.9688 14.403 12.7064 14.1406 12.3828 14.1406H7.69531C7.37172 14.1406 7.10938 14.403 7.10938 14.7266C7.10938 15.0502 7.37172 15.3125 7.69531 15.3125Z" fill="white"/>
</g>
<defs>
<clipPath id="clip0_172_10345">
<rect width="20" height="20" fill="white"/>
</clipPath>
</defs>
</svg>
