<svg width="17" height="17" viewBox="0 0 17 17" fill="none" xmlns="http://www.w3.org/2000/svg">
<path d="M14.9252 3.70466C13.7847 3.59133 12.6443 3.50633 11.4968 3.44258V3.4355L11.341 2.51466C11.2347 1.863 11.0789 0.885498 9.42141 0.885498H7.56558C5.91516 0.885498 5.75933 1.8205 5.646 2.50758L5.49725 3.41425C4.8385 3.45675 4.17975 3.49925 3.521 3.563L2.076 3.70466C1.7785 3.733 1.566 3.99508 1.59433 4.2855C1.62266 4.57591 1.87766 4.78841 2.17516 4.76008L3.62016 4.61841C7.33183 4.25008 11.0718 4.39175 14.826 4.76716C14.8472 4.76716 14.8614 4.76716 14.8827 4.76716C15.1518 4.76716 15.3856 4.56175 15.4139 4.2855C15.4352 3.99508 15.2227 3.733 14.9252 3.70466Z" fill="#FF0000"/>
<path d="M13.6215 5.76575C13.4515 5.58867 13.2177 5.4895 12.9769 5.4895H4.02356C3.78273 5.4895 3.5419 5.58867 3.37898 5.76575C3.21606 5.94284 3.12398 6.18367 3.13815 6.43159L3.57731 13.6991C3.65523 14.7758 3.7544 16.1216 6.22648 16.1216H10.774C13.2461 16.1216 13.3452 14.7828 13.4231 13.6991L13.8623 6.43867C13.8765 6.18367 13.7844 5.94284 13.6215 5.76575ZM9.67606 12.5728H7.31731C7.0269 12.5728 6.78606 12.332 6.78606 12.0416C6.78606 11.7512 7.0269 11.5103 7.31731 11.5103H9.67606C9.96648 11.5103 10.2073 11.7512 10.2073 12.0416C10.2073 12.332 9.96648 12.5728 9.67606 12.5728ZM10.2711 9.7395H6.7294C6.43898 9.7395 6.19815 9.49867 6.19815 9.20825C6.19815 8.91784 6.43898 8.677 6.7294 8.677H10.2711C10.5615 8.677 10.8023 8.91784 10.8023 9.20825C10.8023 9.49867 10.5615 9.7395 10.2711 9.7395Z" fill="#FF0000"/>
</svg>
